<svg width="64" height="64" viewBox="0 0 64 64" fill="none" xmlns="http://www.w3.org/2000/svg">
<path d="M12.9339 4.12988C12.6278 3.40836 12.703 3.08434 13.2731 2.66011C21.2003 -3.22564 33.0711 1.19202 34.7341 10.6486C35.1936 13.154 34.8577 15.7334 33.7698 18.0549C32.6818 20.3765 30.8915 22.3342 28.6292 23.6761C26.2963 25.0674 24.154 26.629 22.4962 28.7468C20.2612 31.6062 19.0196 34.8363 18.5125 38.3504C18.0123 41.8177 18.2274 45.2299 19.3204 48.5803C19.4009 48.8325 19.5128 49.0814 19.6282 49.3686C20.5127 47.7919 21.7081 46.3933 23.1485 45.25C23.6978 44.807 24.3079 44.4378 24.962 44.1526C25.3572 43.9856 25.5233 43.8186 25.4866 43.3727C25.3257 41.7025 25.7804 40.1742 26.6425 38.7262C31.1422 31.1769 37.3486 25.4248 45.8389 22.0811C48.5611 21.0368 51.419 20.3497 54.3345 20.0384C58.9407 19.5023 63.5523 23.0799 63.9527 27.4691C64.1801 29.946 63.5505 32.3026 62.8493 34.6309C61.3925 39.4744 58.7571 43.7184 55.2491 47.473C54.6755 48.0893 54.3607 48.1411 53.6087 47.7519C53.168 47.0254 53.203 46.8049 53.899 46.0533C56.802 42.92 59.0701 39.421 60.4797 35.4509C61.3541 32.9874 62.1008 30.4788 61.9784 27.8416C61.8245 24.4895 58.2657 21.5867 54.7751 21.9224C52.61 22.1303 50.4753 22.5649 48.4096 23.2185C41.3165 25.4615 35.8079 29.7322 31.2995 35.319C30.8361 35.8919 30.8449 36.3061 31.1999 36.9073C32.9626 39.8853 35.1976 42.5075 37.7141 44.9243C40.4002 47.5014 43.3102 49.8029 46.6853 51.5366C47.0963 51.747 47.3743 51.7286 47.7223 51.4514C48.5233 50.8117 49.3557 50.2054 50.1706 49.5758C50.8054 49.0747 51.108 49.063 51.797 49.5039C52.1467 50.2171 52.1065 50.496 51.5259 50.9787C49.2152 52.9097 46.679 54.5798 43.9677 55.9559C42.511 56.6874 40.9563 57.0281 39.3072 56.791C39.0239 56.7526 38.9277 56.8461 38.821 57.0549C36.7715 61.0416 33.1602 62.9005 28.8075 63.7473C28.3091 63.8442 27.7827 63.769 27.3088 63.9928H23.3828C22.5084 63.7072 21.5728 63.7089 20.6792 63.4918C19.4795 63.2062 18.2502 62.9807 17.1484 62.4462C12.9688 60.4203 9.45379 57.6745 6.83063 53.8932C3.56391 49.1799 1.5703 44.0391 0.599725 38.4807C0.0254486 35.3214 -0.137257 32.1063 0.115315 28.9088C0.632902 22.582 2.70145 16.4601 6.15385 11.0378C7.187 9.40114 8.34306 7.83819 9.61293 6.36126C10.1498 5.7366 10.4139 5.69318 11.1868 6.01552C11.6747 6.70531 11.6328 6.98591 10.9717 7.77424C5.63796 14.1343 2.64754 21.3913 2.07394 29.5067C1.68222 35.0434 2.58284 40.4398 4.62192 45.6458C6.35321 50.0618 8.83123 54.0251 12.4687 57.2686C13.1842 57.9254 13.9832 58.4938 14.847 58.9605C14.8306 58.4369 14.9251 57.9154 15.125 57.4275C15.3248 56.9396 15.6258 56.4952 16.01 56.1212C16.8844 55.226 17.4545 54.1638 18.0053 53.0748C18.439 52.218 18.5964 51.4247 17.9948 50.5946C17.8869 50.4147 17.8023 50.2228 17.743 50.0234C16.0992 45.7159 15.8945 41.3 16.7462 36.8289C17.3527 33.484 18.7769 30.323 20.903 27.6027C22.7253 25.2845 25.0651 23.5642 27.6219 22.041C29.6565 20.8235 31.2338 19.0203 32.1264 16.8915C33.019 14.7627 33.1807 12.4183 32.5884 10.196C30.5073 2.54153 21.2616 -0.588406 14.576 4.10483C14.0041 4.50901 13.4882 4.57583 12.9339 4.12988ZM25.0232 62.1206C27.9104 62.1206 30.1768 61.6546 32.1197 60.7577C34.1063 59.8391 35.7414 58.5513 36.8099 56.664C36.9953 56.33 36.9691 56.183 36.5966 56.011C35.5485 55.5 34.5724 54.8642 33.6919 54.1187C30.9323 51.8973 28.3826 49.4889 26.4921 46.5176C25.9955 45.736 26.006 45.7143 25.1701 46.2337C22.8652 47.6651 21.4504 49.7411 20.5026 52.1528C19.7191 54.1454 18.8028 56.0427 17.2831 57.6645C16.2653 58.7451 16.8529 60.3752 18.3323 60.8879C20.4791 61.6385 22.7382 62.0547 25.0232 62.1206ZM29.4703 37.8326C28.9929 38.6327 28.5225 39.3475 28.1255 40.0974C27.0762 42.0683 27.1217 44.0424 28.4036 45.8846C30.6679 49.1299 33.5862 51.912 36.9883 54.0686C38.173 54.8314 39.6179 55.1337 41.028 54.9137C42.4812 54.7133 43.6372 53.9416 44.8753 53.2953C45.3178 53.0631 45.295 52.9612 44.8753 52.7207C40.1431 50.0634 36.2101 46.541 32.779 42.4791C31.5438 41.0201 30.4371 39.466 29.4703 37.8326Z" fill="#070A08"/>
<path d="M12.9338 4.12976C13.4882 4.5757 14.0041 4.50889 14.576 4.10638C21.2633 -0.586855 30.5091 2.54308 32.5884 10.1976C33.1807 12.4198 33.0189 14.7643 32.1264 16.8931C31.2338 19.0219 29.6565 20.825 27.6218 22.0425C25.0651 23.5658 22.7253 25.2861 20.903 27.6043C18.7775 30.3247 17.3539 33.4857 16.7479 36.8304C15.8963 41.3032 16.1009 45.7192 17.7447 50.0249C17.8041 50.2244 17.8886 50.4162 17.9966 50.5961C18.5981 51.4312 18.4408 52.2195 18.0071 53.0763C17.4562 54.1653 16.8878 55.2275 16.0117 56.1228C15.6276 56.4968 15.3265 56.9411 15.1267 57.429C14.9268 57.917 14.8323 58.4384 14.8488 58.9621C13.985 58.4954 13.1859 57.927 12.4704 57.2702C8.83296 54.0267 6.3497 50.0633 4.62365 45.6473C2.58458 40.4414 1.68395 35.045 2.07568 29.5083C2.64928 21.3928 5.63969 14.1425 10.9735 7.77578C11.6345 6.98745 11.673 6.70686 11.1886 6.01708C11.7062 5.33397 12.3375 4.74606 12.9338 4.12976Z" fill="#B2DADA"/>
<path d="M51.7865 49.5038C51.0975 49.0628 50.795 49.0829 50.1602 49.5756C49.3487 50.2053 48.5163 50.8115 47.7119 51.4512C47.3621 51.7285 47.0858 51.7468 46.6749 51.5364C43.3015 49.8027 40.3898 47.5012 37.7036 44.9241C35.1871 42.5107 32.9522 39.8885 31.1894 36.9072C30.8397 36.3059 30.8257 35.8917 31.2891 35.3189C35.7975 29.7354 41.3061 25.4647 48.3992 23.2183C50.4649 22.5648 52.5995 22.1302 54.7647 21.9223C58.2623 21.5882 61.814 24.4893 61.9679 27.8414C62.0904 30.4786 61.3454 32.9873 60.4692 35.4508C59.0597 39.4208 56.7968 42.9199 53.8886 46.0532C53.1891 46.8047 53.1576 47.0252 53.5983 47.7517L51.7865 49.5038ZM40.6328 40.0839C40.6151 40.7158 40.8467 41.331 41.2816 41.8075C41.7223 42.3086 42.254 42.4088 42.7139 42.0915C43.2105 41.7574 43.2822 41.2347 42.8678 40.6735C42.5775 40.2827 42.49 39.9069 42.8765 39.5561C43.2263 39.2371 43.618 39.3006 44.0062 39.5561C44.6061 39.9419 45.1499 39.8902 45.4962 39.4426C45.8424 38.9949 45.7393 38.4488 45.1744 38.0312C44.2668 37.3632 43.2612 37.2346 42.2312 37.7072C41.2012 38.1799 40.6661 38.9866 40.6258 40.0839H40.6328ZM52.0296 28.9187C52.0296 29.839 52.2465 30.4402 52.6347 30.8929C53.0841 31.414 53.6472 31.5342 54.1159 31.2085C54.5846 30.8828 54.6598 30.3584 54.2418 29.7855C53.9533 29.3914 53.8921 29.0139 54.2751 28.6732C54.6353 28.3592 55.02 28.4327 55.4048 28.6832C55.9924 29.0657 56.5485 29.0072 56.8895 28.5529C57.2305 28.0986 57.1221 27.5625 56.552 27.1449C55.6444 26.4769 54.6406 26.3566 53.6105 26.8293C52.5805 27.3019 52.0663 28.127 52.0296 28.9187ZM52.946 35.0433C52.946 34.2934 52.6347 33.8942 52.0121 33.8741C51.3896 33.8541 51.0416 34.1948 50.9804 34.9531C50.9034 35.87 50.4207 36.2892 49.3173 36.4195C48.6772 36.4913 48.247 36.8888 48.268 37.3966C48.2785 37.9294 48.7716 38.3302 49.4274 38.3402C50.3477 38.3357 51.2299 37.9889 51.8869 37.3733C52.5438 36.7578 52.9237 35.922 52.946 35.0433Z" fill="#BC7669"/>
<path d="M45.748 16.9085C41.6419 16.8918 38.2737 13.6583 38.3332 9.79352C38.3926 5.82515 41.7101 2.74031 45.8931 2.76035C49.9258 2.78039 53.2205 5.99885 53.2013 9.90041C53.1821 13.7585 49.8139 16.9252 45.748 16.9085ZM40.3618 9.83694C40.3559 10.5184 40.4922 11.1942 40.7626 11.8249C41.0329 12.4556 41.432 13.0286 41.9366 13.5105C42.4412 13.9923 43.0411 14.3735 43.7015 14.6317C44.3619 14.89 45.0694 15.0201 45.783 15.0145C48.7646 15.0145 51.2479 12.6462 51.2287 9.82358C51.2117 8.4485 50.6293 7.13491 49.6073 6.16627C48.5852 5.19763 47.2054 4.65159 45.7655 4.64599C45.0532 4.64598 44.3479 4.78047 43.6903 5.0417C43.0326 5.30294 42.4355 5.68577 41.9333 6.16819C41.4311 6.65062 41.0337 7.22311 40.764 7.85273C40.4943 8.48235 40.3576 9.15668 40.3618 9.83694Z" fill="#070A08"/>
<path d="M25.0232 62.1204C22.7372 62.0526 20.4775 61.6341 18.3306 60.8811C16.8529 60.3684 16.2653 58.7382 17.2814 57.6576C18.8011 56.0426 19.7174 54.1502 20.5009 52.146C21.4487 49.7409 22.8635 47.6582 25.1684 46.2269C26.0043 45.7074 25.9938 45.7258 26.4904 46.5108C28.3809 49.482 30.9306 51.8905 33.6902 54.1118C34.5731 54.8603 35.5521 55.4984 36.6036 56.0108C36.9761 56.1778 37.0024 56.3449 36.817 56.6639C35.7485 58.5512 34.1134 59.8372 32.1268 60.7575C30.1769 61.6544 27.9104 62.1187 25.0232 62.1204Z" fill="#FFE38A"/>
<path d="M29.4703 37.8325C30.433 39.4666 31.5356 41.0218 32.7667 42.4823C36.1978 46.5459 40.1309 50.0667 44.863 52.7239C45.288 52.9644 45.3107 53.0663 44.863 53.2985C43.6389 53.9448 42.476 54.7165 41.0157 54.9169C39.6056 55.1369 38.1607 54.8347 36.9761 54.0718C33.574 51.9152 30.6556 49.1331 28.3913 45.8878C27.1094 44.0506 27.0692 42.0715 28.1132 40.1006C28.5225 39.3357 28.9929 38.6242 29.4703 37.8325Z" fill="#E95C70"/>
<path d="M40.6258 40.0841C40.659 38.9868 41.1959 38.1718 42.2242 37.7008C43.2524 37.2298 44.2597 37.3567 45.1674 38.0248C45.7322 38.4423 45.8406 38.9801 45.4891 39.4361C45.1376 39.8921 44.599 39.9372 43.9992 39.5497C43.6109 39.3008 43.2227 39.2374 42.8695 39.5497C42.483 39.9004 42.5704 40.2762 42.8607 40.667C43.2752 41.2282 43.2105 41.7426 42.7068 42.085C42.2469 42.4024 41.7153 42.3055 41.2746 41.8011C40.8413 41.3263 40.6098 40.7138 40.6258 40.0841Z" fill="#070A08"/>
<path d="M52.0295 28.9187C52.0663 28.1271 52.5787 27.3037 53.6034 26.8293C54.6282 26.355 55.6443 26.4752 56.5519 27.1433C57.122 27.5609 57.2339 28.0903 56.8894 28.5513C56.5449 29.0123 55.9923 29.064 55.4047 28.6816C55.02 28.431 54.6352 28.3575 54.275 28.6715C53.8832 29.0056 53.9532 29.3897 54.2417 29.7839C54.6597 30.3568 54.5915 30.8678 54.1158 31.2069C53.6402 31.5459 53.0841 31.4123 52.6346 30.8912C52.2464 30.4403 52.0295 29.839 52.0295 28.9187Z" fill="#070A08"/>
<path d="M52.9459 35.0433C52.9218 35.9222 52.5399 36.7576 51.8813 37.3719C51.2226 37.9863 50.3392 38.3313 49.4186 38.3336C48.7628 38.3235 48.2697 37.9227 48.2592 37.3899C48.2469 36.8888 48.6771 36.4847 49.3084 36.4128C50.4119 36.2893 50.8946 35.8633 50.9715 34.9464C51.0327 34.1881 51.365 33.8424 52.0033 33.8675C52.6416 33.8925 52.9529 34.2934 52.9459 35.0433Z" fill="#070A08"/>
<path d="M40.3617 9.837C40.3564 9.15575 40.4924 8.48024 40.7618 7.84944C41.0312 7.21863 41.4287 6.64501 41.9314 6.16165C42.4341 5.6783 43.032 5.29479 43.6906 5.03322C44.3493 4.77166 45.0556 4.63724 45.7689 4.6377C47.2088 4.6433 48.5887 5.18933 49.6107 6.15797C50.6328 7.12661 51.2152 8.4402 51.2321 9.81528C51.2514 12.6379 48.7681 15.0046 45.7864 15.0062C45.0733 15.0122 44.3661 14.8827 43.7059 14.6252C43.0457 14.3677 42.4458 13.9873 41.9409 13.5063C41.4361 13.0252 41.0365 12.4531 40.7654 11.8232C40.4943 11.1932 40.3571 10.5181 40.3617 9.837Z" fill="#B2DADA"/>
</svg>
