<svg width="64" height="64" viewBox="0 0 64 64" fill="none" xmlns="http://www.w3.org/2000/svg">
<g clip-path="url(#clip0_2033_166)">
<path d="M0 33.0017C0.218562 32.9125 0.169418 32.6835 0.222442 32.5245C0.966072 30.3143 2.87106 28.9033 5.20929 28.8852C6.72888 28.871 8.25106 28.8645 9.77065 28.8943C10.2233 28.9033 10.3099 28.7649 10.3074 28.3369C10.2875 25.5253 10.2849 22.7129 10.2996 19.8996C10.3112 17.2005 11.8269 15.205 14.3165 14.5804C14.845 14.4641 15.3857 14.4133 15.9266 14.4291C17.9894 14.4291 20.0521 14.4135 22.1136 14.4381C22.5779 14.4446 22.7098 14.3256 22.7059 13.8522C22.6826 11.0407 22.6801 8.22869 22.6982 5.41626C22.7163 2.61245 24.3354 0.604008 26.9815 0.0737675C27.309 0.0180554 27.6413 -0.00534083 27.9734 0.0039259C38.2239 0.0039259 48.4734 0.0039259 58.7222 0.0039259C61.7678 0.0039259 63.9974 2.23482 63.9987 5.28305C63.9987 13.4738 63.9987 21.6606 63.9987 29.8435C63.9987 32.831 61.7562 35.0929 58.7636 35.1175C56.5973 35.1343 54.4298 35.1472 52.2636 35.1032C51.6739 35.0916 51.6066 35.2882 51.6169 35.7964C51.6415 38.5459 51.6299 41.2967 51.6286 44.0462C51.6286 47.3725 49.4624 49.5517 46.1322 49.5749C44.6941 49.584 43.2573 49.5917 41.8204 49.5672C41.4014 49.5594 41.3031 49.6965 41.3031 50.0974C41.3186 52.9103 41.2824 55.7231 41.3187 58.5347C41.3562 61.548 39.3787 63.2991 37.5682 63.8203C37.3819 63.8746 37.1401 63.7828 37.0069 64.0026H4.12553C4.10484 63.969 4.08932 63.9134 4.06216 63.9056C1.97353 63.3495 0.645342 62.0369 0.0957026 59.9392C0.0957026 59.912 0.033625 59.8978 0 59.8771V33.0017ZM31.0048 47.4863C36.024 47.4863 41.0432 47.4488 46.0611 47.5057C47.9544 47.5264 49.5697 46.2422 49.5529 44.0139C49.4986 35.9956 49.4986 27.9773 49.5529 19.9591C49.5671 17.7838 47.9855 16.4763 46.043 16.4854C35.9839 16.528 25.9262 16.5047 15.8684 16.5047C13.6427 16.5047 12.3766 17.7605 12.3766 19.9772C12.3766 27.973 12.3766 35.9693 12.3766 43.966C12.3766 46.2318 13.6246 47.4837 15.8813 47.485L31.0048 47.4863ZM20.6367 61.9179C25.6804 61.9179 30.7242 61.8726 35.7563 61.9386C37.8992 61.9683 39.2895 60.4487 39.2481 58.4403C39.1886 55.7335 39.2106 53.0254 39.2481 50.3186C39.2572 49.6836 39.0955 49.5322 38.4644 49.5335C30.9634 49.5581 23.469 49.5478 15.9706 49.5516C15.0653 49.5516 14.1768 49.4986 13.3543 49.0887C11.2553 48.045 10.3009 46.3224 10.3099 43.9997C10.3268 39.8612 10.3099 35.7098 10.3255 31.5662C10.3255 31.1045 10.2194 30.9622 9.7422 30.9738C8.34805 31.0075 6.94744 31.0553 5.55718 30.9738C3.58623 30.8445 2.04207 32.293 2.0563 34.4411C2.11062 42.4594 2.0757 50.4776 2.07958 58.4959C2.07958 60.7177 3.29137 61.9218 5.51709 61.9218C10.5582 61.9209 15.5981 61.9196 20.6367 61.9179ZM43.3543 2.08092C38.251 2.08092 33.1473 2.08092 28.0432 2.08092C26.0555 2.08092 24.7661 3.37419 24.7596 5.36453C24.7506 8.19679 24.7674 11.0303 24.748 13.8626C24.748 14.3152 24.8424 14.473 25.3274 14.4717C30.4522 14.4536 35.5765 14.4536 40.7005 14.4717C41.1854 14.4717 41.285 14.323 41.2824 13.8704C41.263 10.8079 41.2824 7.74544 41.263 4.68815C41.263 4.2743 41.3355 4.11394 41.7997 4.11523C47.6531 4.13075 53.5064 4.13075 59.3598 4.11523C59.7542 4.11523 59.8861 4.20188 59.8848 4.62349C59.8706 10.998 59.8848 17.3725 59.8693 23.7458C59.8693 25.5149 58.3277 26.9647 56.6361 26.8496C54.8605 26.7203 53.4767 25.1502 53.681 23.4871C53.9138 21.5938 55.4825 20.3923 57.3254 20.7247C57.7031 20.7919 57.7923 20.6911 57.7923 20.3289C57.782 17.163 57.782 13.9971 57.7923 10.8312C57.7923 10.4432 57.6863 10.3346 57.2996 10.3359C52.8007 10.3479 48.3014 10.3479 43.8017 10.3359C43.437 10.3359 43.3465 10.4574 43.353 10.8014C43.3724 11.8218 43.3892 12.8435 43.353 13.8626C43.331 14.3734 43.5043 14.4808 43.9828 14.4769C45.1467 14.4666 46.3275 14.3295 47.4746 14.5674C49.9654 15.0847 51.6131 17.154 51.6131 19.7108C51.6234 23.9191 51.6208 28.1269 51.6053 32.3344C51.6053 32.8517 51.6803 33.0457 52.2675 33.034C54.3496 32.99 56.4357 32.9487 58.5152 33.034C60.3401 33.1103 61.9489 31.7744 61.9372 29.6159C61.892 21.5756 61.9204 13.5354 61.9178 5.49385C61.9358 5.09872 61.8984 4.70301 61.8066 4.31827C61.3992 2.89567 60.2379 2.08091 58.5967 2.07962C53.5176 2.07703 48.4368 2.07747 43.3543 2.08092ZM50.5487 8.2524H56.4163C57.8001 8.2524 57.7768 8.2524 57.8052 6.85825C57.8156 6.3487 57.6876 6.19092 57.1586 6.19351C53.0383 6.21679 48.9192 6.20645 44.7988 6.20645C43.3581 6.20645 43.3762 6.20644 43.3568 7.6743C43.3504 8.13083 43.4538 8.2718 43.9336 8.26533C46.1374 8.23688 48.3424 8.2524 50.5487 8.2524ZM57.7794 23.7432C57.7843 23.6091 57.7615 23.4755 57.7122 23.3507C57.663 23.2258 57.5885 23.1126 57.4934 23.018C57.3983 22.9233 57.2847 22.8494 57.1596 22.8008C57.0345 22.7523 56.9008 22.7301 56.7667 22.7357C56.4989 22.7357 56.242 22.8421 56.0525 23.0315C55.8631 23.221 55.7567 23.4779 55.7567 23.7458C55.7567 24.0136 55.8631 24.2706 56.0525 24.46C56.242 24.6494 56.4989 24.7558 56.7667 24.7558C56.9011 24.7611 57.0352 24.7385 57.1604 24.6895C57.2857 24.6404 57.3994 24.566 57.4945 24.4709C57.5896 24.3758 57.664 24.2621 57.7131 24.1368C57.7621 24.0116 57.7847 23.8776 57.7794 23.7432Z" fill="#221E19"/>
<path d="M31.0048 47.4914H15.8865C13.6297 47.4914 12.3817 46.2382 12.3817 43.9724C12.3817 35.9766 12.3817 27.9803 12.3817 19.9836C12.3817 17.7669 13.6439 16.5111 15.8735 16.5111C25.9313 16.5111 35.989 16.5344 46.0481 16.4917C47.988 16.4827 49.5722 17.785 49.558 19.9655C49.5054 27.9837 49.5054 36.002 49.558 44.0203C49.5735 46.2499 47.9582 47.5341 46.0662 47.5121C41.0431 47.4539 36.0266 47.4914 31.0048 47.4914ZM22.7408 41.9187L42.5757 32.0006L22.7408 22.0851V41.9187ZM14.4639 24.479V27.35C14.4639 28.9097 14.4639 28.8877 15.9951 28.902C16.4568 28.902 16.5279 28.7519 16.5241 28.3381C16.5047 25.9869 16.5383 23.6345 16.4982 21.2846C16.4878 20.7013 16.6715 20.585 17.194 20.6225C17.8147 20.6677 18.442 20.6328 19.0653 20.6328C20.6974 20.6328 20.6832 20.6328 20.6522 19.0162C20.6457 18.6386 20.5125 18.5791 20.1814 18.5843C19.0175 18.6024 17.8535 18.5843 16.6896 18.592C15.289 18.6024 14.491 19.3938 14.4716 20.7906C14.4484 22.0231 14.4587 23.2504 14.4587 24.479H14.4639ZM47.494 34.0828C47.494 33.021 47.494 33.021 46.4813 33.021C45.4028 33.021 45.4027 33.021 45.4027 34.088C45.4027 35.1226 45.4028 35.1226 46.4555 35.1226C47.5082 35.1226 47.494 35.1174 47.494 34.0828ZM47.494 38.2329C47.494 37.1504 47.494 37.1504 46.44 37.1504H46.3727C45.3976 37.1504 45.3976 37.1504 45.3976 38.1346C45.3976 39.2455 45.3976 39.2455 46.4917 39.2455C47.494 39.2404 47.494 39.2404 47.494 38.229V38.2329ZM47.494 42.3183C47.494 41.2837 47.494 41.2837 46.5201 41.2837C45.4028 41.2837 45.4027 41.2837 45.4027 42.3752C45.4027 43.3775 45.4028 43.3775 46.4167 43.3775C47.494 43.3685 47.494 43.3685 47.494 42.3145V42.3183ZM15.483 33.0223C16.5098 33.0223 16.5098 33.0223 16.5098 32.0511C16.5098 30.979 16.5098 30.9789 15.4584 30.9789C14.4587 30.9789 14.4587 30.9789 14.4587 31.9825C14.4587 33.0223 14.4587 33.0223 15.483 33.0223ZM15.492 37.1517C16.5098 37.1517 16.5098 37.1517 16.5098 36.1701C16.5098 35.1071 16.5098 35.1071 15.4493 35.1071C14.4587 35.1071 14.4587 35.1071 14.4587 36.1197C14.4587 37.1517 14.4587 37.1517 15.492 37.1517Z" fill="#E5E8EC"/>
<path d="M20.6367 61.9176C15.5956 61.9176 10.5553 61.9176 5.51582 61.9176C3.2901 61.9176 2.07831 60.7136 2.07831 58.4917C2.07831 50.4735 2.10935 42.4552 2.05503 34.4369C2.0408 32.2888 3.58497 30.8468 5.55591 30.9697C6.94617 31.0563 8.34678 31.0085 9.74093 30.9697C10.2181 30.9581 10.3255 31.099 10.3242 31.562C10.3061 35.7005 10.3242 39.8506 10.3087 43.9955C10.2996 46.3234 11.254 48.0408 13.353 49.0845C14.1755 49.4945 15.0679 49.5475 15.9693 49.5475C23.4703 49.5475 30.9712 49.554 38.4631 49.5294C39.0943 49.5294 39.2559 49.6794 39.2469 50.3144C39.2081 53.0212 39.1861 55.7293 39.2469 58.4361C39.2908 60.4446 37.9006 61.9642 35.755 61.9344C30.7242 61.8723 25.6805 61.9176 20.6367 61.9176ZM26.3142 57.818H35.746C37.1556 57.818 37.1298 57.8179 37.1686 56.3785C37.1815 55.8548 37.0392 55.7319 36.5219 55.7319C29.7745 55.75 23.028 55.7539 16.2823 55.7435C16.1367 55.7358 15.9908 55.7358 15.8452 55.7435C15.5671 55.7746 15.483 55.653 15.4934 55.3866C15.5089 54.9495 15.4792 54.5111 15.5024 54.0752C15.5205 53.7441 15.3964 53.6472 15.0731 53.6497C13.2832 53.6618 11.4924 53.6618 9.70083 53.6497C9.37881 53.6497 9.25078 53.7454 9.26888 54.0778C9.29087 54.493 9.25466 54.912 9.27923 55.3271C9.29863 55.6543 9.18482 55.7539 8.85762 55.7487C7.79585 55.7293 6.73278 55.741 5.67101 55.741C4.05184 55.741 4.06218 55.741 4.11909 57.3963C4.13072 57.7235 4.22255 57.8257 4.54716 57.8205C5.58695 57.8042 6.62803 57.8042 7.6704 57.8205C8.18771 57.8296 8.83434 57.5994 9.17318 57.9201C9.49132 58.2189 9.27535 58.8694 9.26371 59.3608C9.25336 59.7708 9.37364 59.8898 9.78102 59.8781C11.1765 59.8523 12.5719 59.8781 13.966 59.8626C14.4588 59.8626 15.108 60.0838 15.3977 59.7604C15.6408 59.4901 15.518 58.8552 15.4817 58.3818C15.4455 57.9085 15.6111 57.7973 16.0702 57.7998C19.487 57.8283 22.9012 57.818 26.3168 57.818H26.3142ZM5.14723 35.1056C4.12426 35.1056 4.12426 35.1056 4.12426 36.0328C4.12426 37.1554 4.12426 37.1554 5.26492 37.1554C6.2103 37.1554 6.2103 37.1554 6.2103 36.1945C6.2103 35.1056 6.2103 35.1056 5.14723 35.1056ZM5.20414 39.2337C4.12426 39.2337 4.12426 39.2337 4.12426 40.2903C4.12426 41.2848 4.12426 41.2848 5.14465 41.2848C6.2103 41.2848 6.2103 41.2848 6.2103 40.2502C6.2103 39.2156 6.2103 39.2337 5.20414 39.2337ZM5.18345 45.4155C6.2103 45.4155 6.2103 45.4155 6.2103 44.4688C6.2103 43.3618 6.2103 43.3618 5.10326 43.3618C4.12426 43.3618 4.12426 43.3618 4.12426 44.333C4.12426 45.4155 4.12426 45.4155 5.18345 45.4155Z" fill="#FFE38A"/>
<path d="M43.3542 2.08071C48.4368 2.08071 53.5193 2.08071 58.6019 2.08071C60.2431 2.08071 61.4044 2.90064 61.8118 4.31936C61.9036 4.7041 61.941 5.09981 61.923 5.49494C61.923 13.5365 61.8971 21.5767 61.9424 29.617C61.954 31.7755 60.3452 33.1088 58.5204 33.0351C56.4408 32.9459 54.3548 32.9873 52.2726 33.0351C51.6855 33.0467 51.6079 32.8515 51.6105 32.3354C51.6294 28.128 51.632 23.9201 51.6182 19.7118C51.6182 17.1551 49.9667 15.0871 47.4798 14.5685C46.3339 14.3306 45.1519 14.4676 43.988 14.478C43.5094 14.478 43.3413 14.3745 43.3581 13.8637C43.3995 12.8446 43.3827 11.8229 43.3581 10.8025C43.3581 10.4585 43.4422 10.3369 43.8069 10.3369C48.3066 10.349 52.8059 10.349 57.3047 10.3369C57.6927 10.3369 57.7988 10.4507 57.7975 10.8323C57.7845 13.9982 57.7845 17.1641 57.7975 20.33C57.7975 20.6921 57.7082 20.793 57.3306 20.7258C55.4877 20.3934 53.919 21.5948 53.6862 23.4882C53.4818 25.1513 54.8656 26.7214 56.6413 26.8507C58.3225 26.9684 59.8654 25.5186 59.8745 23.7468C59.8874 17.3736 59.8745 10.9991 59.89 4.62457C59.89 4.20296 59.7607 4.11502 59.3649 4.11631C53.5116 4.12752 47.6582 4.12752 41.8049 4.11631C41.3406 4.11631 41.2669 4.27538 41.2682 4.68923C41.285 7.7504 41.2682 10.8129 41.2876 13.8714C41.2876 14.3241 41.1906 14.4754 40.7056 14.4728C35.5817 14.4547 30.4573 14.4547 25.3325 14.4728C24.8476 14.4728 24.7493 14.3163 24.7532 13.8637C24.7726 11.0314 24.7532 8.19787 24.7648 5.36561C24.7713 3.38174 26.0581 2.08459 28.0484 2.082C33.1499 2.07338 38.2519 2.07295 43.3542 2.08071ZM33.034 6.20882H37.7751C39.252 6.20882 39.2326 6.20883 39.252 4.70476C39.252 4.24694 39.1511 4.11114 38.6739 4.11373C35.2429 4.13572 31.8118 4.12537 28.3808 4.12537C26.8289 4.12537 26.8457 4.12537 26.8431 5.67729C26.8431 6.1364 27.006 6.22175 27.4199 6.21787C29.2912 6.19847 31.1626 6.20882 33.034 6.20882ZM33.0637 10.3408H37.8048C39.2468 10.3408 39.2274 10.3408 39.2507 8.86649C39.2585 8.39445 39.155 8.23537 38.6442 8.23925C35.2338 8.26383 31.8235 8.25219 28.4118 8.25219C26.8159 8.25219 26.8353 8.25219 26.8431 9.83645C26.8431 10.271 26.9996 10.3538 27.3863 10.3538C29.2783 10.3318 31.1717 10.3408 33.0637 10.3408Z" fill="#B2DADA"/>
<path d="M50.5487 8.25225C48.3423 8.25225 46.1373 8.23673 43.9323 8.26518C43.4525 8.26518 43.349 8.13585 43.3555 7.67415C43.3775 6.20629 43.3555 6.2063 44.7975 6.2063C48.9179 6.2063 53.0369 6.21664 57.1573 6.19336C57.6875 6.19336 57.8155 6.34855 57.8039 6.8581C57.7755 8.25225 57.8039 8.25225 56.4149 8.25225H50.5487Z" fill="#B2DADA"/>
<path d="M57.7794 23.7431C57.7846 23.8772 57.7621 24.011 57.7132 24.1361C57.6644 24.2612 57.5902 24.3748 57.4954 24.4699C57.4006 24.5649 57.2871 24.6394 57.1622 24.6886C57.0372 24.7378 56.9035 24.7606 56.7693 24.7557C56.5014 24.7557 56.2445 24.6493 56.0551 24.4599C55.8657 24.2704 55.7593 24.0135 55.7593 23.7456C55.7593 23.4778 55.8657 23.2209 56.0551 23.0314C56.2445 22.842 56.5014 22.7356 56.7693 22.7356C56.9031 22.7304 57.0366 22.7528 57.1614 22.8015C57.2861 22.8503 57.3995 22.9242 57.4943 23.0188C57.5891 23.1134 57.6634 23.2266 57.7124 23.3512C57.7615 23.4758 57.7843 23.6092 57.7794 23.7431Z" fill="#B2DADA"/>
<path d="M22.7408 41.9185V22.085L42.5757 32.0005L22.7408 41.9185ZM37.9303 31.9901C33.6147 29.8329 29.4141 27.7378 25.2226 25.6272C24.6536 25.3414 24.7648 25.7229 24.7648 26.0217C24.7648 29.9791 24.7648 33.936 24.7648 37.8926C24.7648 38.5897 24.7648 38.591 25.4192 38.265L37.3483 32.3005C37.5074 32.219 37.6652 32.1311 37.9303 31.9901Z" fill="#221E19"/>
<path d="M14.4588 24.4789C14.4588 23.2503 14.4485 22.0217 14.4588 20.7957C14.473 19.3964 15.2762 18.6049 16.6768 18.5971C17.8407 18.5971 19.0046 18.6075 20.1686 18.5894C20.4997 18.5894 20.6329 18.6437 20.6393 19.0213C20.6704 20.6392 20.6846 20.6379 19.0525 20.6379C18.4291 20.6379 17.8019 20.6728 17.1811 20.6275C16.6638 20.59 16.475 20.7064 16.4854 21.2897C16.5255 23.6396 16.4918 25.992 16.5112 28.3432C16.5112 28.757 16.444 28.9122 15.9823 28.9071C14.451 28.8902 14.451 28.9071 14.451 27.3551L14.4588 24.4789Z" fill="#221E19"/>
<path d="M47.4941 34.0826C47.4941 35.1172 47.4941 35.1172 46.4595 35.1172C45.4248 35.1172 45.4067 35.1172 45.4067 34.0826C45.4067 33.0156 45.4067 33.0156 46.4853 33.0156C47.4941 33.0169 47.4941 33.0169 47.4941 34.0826Z" fill="#221E19"/>
<path d="M47.494 38.2293C47.494 39.2406 47.4941 39.2406 46.4969 39.2406C45.4028 39.2406 45.4028 39.2406 45.4028 38.1297C45.4028 37.1468 45.4028 37.1468 46.378 37.1455H46.44C47.4941 37.1468 47.494 37.1468 47.494 38.2293Z" fill="#221E19"/>
<path d="M47.494 42.3147C47.494 43.3687 47.4941 43.3687 46.4168 43.3687C45.4028 43.3687 45.4028 43.3687 45.4028 42.3664C45.4028 41.2749 45.4028 41.2749 46.5202 41.2749C47.494 41.2749 47.494 41.2749 47.494 42.3147Z" fill="#221E19"/>
<path d="M15.483 33.0226C14.4587 33.0226 14.4587 33.0226 14.4587 31.988C14.4587 30.9844 14.4587 30.9844 15.4584 30.9844C16.5099 30.9844 16.5099 30.9844 16.5099 32.0565C16.5099 33.0226 16.5099 33.0226 15.483 33.0226Z" fill="#221E19"/>
<path d="M15.492 37.1517C14.4574 37.1517 14.4574 37.1517 14.4574 36.1171C14.4574 35.1045 14.4574 35.1045 15.448 35.1045C16.5085 35.1045 16.5085 35.1045 16.5085 36.1676C16.5098 37.1517 16.5098 37.1517 15.492 37.1517Z" fill="#221E19"/>
<path d="M26.3167 57.8182C22.9012 57.8182 19.487 57.8285 16.0715 57.8078C15.6098 57.8078 15.4468 57.9113 15.483 58.3898C15.5192 58.8683 15.6421 59.4981 15.399 59.7684C15.1093 60.0917 14.4601 59.8654 13.9673 59.8706C12.5732 59.8861 11.1777 59.8602 9.7823 59.8861C9.36975 59.8861 9.24948 59.7736 9.265 59.3688C9.27664 58.8774 9.49261 58.2268 9.17447 57.9281C8.83563 57.6074 8.18512 57.8376 7.67169 57.8285C6.63018 57.8121 5.5891 57.8121 4.54845 57.8285C4.22383 57.8285 4.13201 57.7315 4.12037 57.4043C4.06476 55.7489 4.05441 55.7489 5.67229 55.7489C6.73407 55.7489 7.79713 55.7373 8.85891 55.7567C9.18611 55.7567 9.29991 55.6623 9.28052 55.3351C9.25594 54.92 9.29215 54.5009 9.27017 54.0858C9.25206 53.7534 9.3801 53.6564 9.70212 53.6577C11.4937 53.6698 13.2845 53.6698 15.0744 53.6577C15.3977 53.6577 15.5218 53.7521 15.5037 54.0832C15.4804 54.519 15.5102 54.9575 15.4947 55.3946C15.4843 55.661 15.5684 55.7826 15.8464 55.7515C15.992 55.7438 16.138 55.7438 16.2836 55.7515C23.031 55.7515 29.7775 55.7476 36.5232 55.7399C37.0405 55.7399 37.1841 55.8615 37.1699 56.3865C37.1349 57.8259 37.1608 57.8259 35.7473 57.8259L26.3167 57.8182ZM11.3678 56.7668C11.3678 57.7949 11.3679 57.7949 12.3507 57.7949C13.4035 57.7949 13.4035 57.7949 13.4035 56.7693C13.4035 55.7438 13.4035 55.7489 12.3533 55.7489C11.3679 55.7489 11.3678 55.7489 11.3678 56.7668Z" fill="#221E19"/>
<path d="M5.14724 35.106C6.21031 35.106 6.21031 35.1059 6.21031 36.1949C6.21031 37.1558 6.21031 37.1558 5.26493 37.1558C4.12427 37.1558 4.12427 37.1558 4.12427 36.0332C4.12427 35.1059 4.12427 35.106 5.14724 35.106Z" fill="#221E19"/>
<path d="M5.20415 39.2339C6.21031 39.2339 6.21031 39.2339 6.21031 40.2556C6.21031 41.2773 6.21031 41.2902 5.14466 41.2902C4.12427 41.2902 4.12427 41.2902 4.12427 40.2957C4.12427 39.2339 4.12427 39.2339 5.20415 39.2339Z" fill="#221E19"/>
<path d="M5.18345 45.4155C4.12427 45.4155 4.12427 45.4155 4.12427 44.3331C4.12427 43.3618 4.12427 43.3618 5.10327 43.3618C6.21031 43.3618 6.21031 43.3618 6.21031 44.4689C6.21031 45.4155 6.21031 45.4155 5.18345 45.4155Z" fill="#221E19"/>
<path d="M33.034 6.20886C31.1627 6.20886 29.2913 6.19851 27.4199 6.21791C27.0061 6.21791 26.8431 6.13644 26.8431 5.67733C26.8431 4.1254 26.8276 4.1254 28.3808 4.1254C31.8119 4.1254 35.2429 4.13576 38.674 4.11377C39.1512 4.11377 39.2572 4.2431 39.2521 4.70479C39.2327 6.20887 39.2521 6.20886 37.7751 6.20886H33.034Z" fill="#221E19"/>
<path d="M33.0637 10.3409C31.1716 10.3409 29.2783 10.3319 27.3862 10.3474C26.9982 10.3474 26.8456 10.2711 26.8431 9.83009C26.8353 8.24584 26.8159 8.24584 28.4118 8.24584C31.8234 8.24584 35.2338 8.25748 38.6441 8.23291C39.155 8.23291 39.2584 8.3881 39.2507 8.86014C39.2287 10.3345 39.2507 10.3345 37.8048 10.3345L33.0637 10.3409Z" fill="#221E19"/>
<path d="M37.9303 31.9902C37.6652 32.1312 37.5074 32.2191 37.3471 32.3006L25.4218 38.2651C24.7752 38.591 24.7687 38.5898 24.7675 37.8927C24.7675 33.9361 24.7675 29.9792 24.7675 26.0218C24.7675 25.723 24.6562 25.3415 25.2253 25.6273C29.4142 27.7379 33.6147 29.833 37.9303 31.9902Z" fill="#E95C70"/>
<path d="M11.3678 56.7668C11.3678 55.749 11.3678 55.749 12.3533 55.749C13.4034 55.749 13.4034 55.749 13.4034 56.7694C13.4034 57.7898 13.4034 57.795 12.3507 57.795C11.3678 57.795 11.3678 57.795 11.3678 56.7668Z" fill="#E5E8EC"/>
</g>
<defs>
<clipPath id="clip0_2033_166">
<rect width="64.0013" height="64" fill="white"/>
</clipPath>
</defs>
</svg>
