<svg width="64" height="64" viewBox="0 0 64 64" fill="none" xmlns="http://www.w3.org/2000/svg">
<g clip-path="url(#clip0_2033_118)">
<path d="M0 16.3964C0.257182 15.9809 0.228792 15.4896 0.334003 15.0354C1.83702 8.96546 7.56684 4.84875 13.7108 5.46954C14.9522 5.57973 16.1661 5.90054 17.3014 6.41839C17.6354 6.57484 17.8324 6.53447 18.0913 6.25856C20.7617 3.38526 24.2267 1.38559 28.0379 0.518379C37.4818 -1.71747 47.385 3.47259 50.8386 12.6178C53.4522 19.534 52.4836 26.0329 48.1916 32.0322C47.7123 32.7051 47.3967 32.7791 46.6535 32.473C46.191 31.8 46.1943 31.5207 46.7003 30.8495C47.7344 29.4843 48.5653 27.9745 49.1669 26.3677C50.1099 23.8965 50.4972 21.2454 50.3009 18.6053C50.2725 18.2352 50.1539 18.0754 49.7514 18.0283C45.1706 17.5 41.2527 15.562 37.9928 12.2915C37.6154 11.9113 37.4267 11.8995 37.0226 12.2461C33.1606 15.5722 28.6364 18.0268 23.7543 19.4448C21.0032 20.266 18.1599 20.7329 15.2923 20.8345C14.7396 20.853 14.5158 21.0229 14.6243 21.5949C14.7913 22.436 14.8565 23.2991 15.0602 24.1285C18.2666 37.1499 33.4688 42.2827 43.8362 33.8542C44.4775 33.3326 44.8382 33.3394 45.4745 33.8811C45.74 34.4682 45.568 34.9056 45.0821 35.306C43.4327 36.6798 41.571 37.7721 39.571 38.5395C39.1769 38.6892 39.0015 38.7464 39.3105 39.2259C40.1989 40.6038 40.2323 42.0539 39.404 43.489C39.3267 43.6093 39.278 43.746 39.2618 43.8885C39.2456 44.0309 39.2622 44.1751 39.3105 44.31C39.5359 45.0418 39.7063 45.7904 39.9184 46.6081C40.2006 46.3641 40.4494 46.1505 40.6983 45.9351C44.4909 42.7185 49.87 42.8934 53.4488 46.3524C53.8547 46.7443 54.182 47.281 54.6596 47.5149C55.1606 47.7639 55.5698 47.1161 56.0808 46.9933C57.7508 46.5946 59.2405 46.9176 60.3811 48.2551C61.5217 49.5926 61.6803 51.1016 60.989 52.71C60.9138 52.8782 60.822 53.0464 60.7451 53.2147C64.1904 54.2729 65.0872 57.8815 62.5371 60.4488C61.8173 61.1755 61.0892 61.8973 60.366 62.6358C59.9556 63.0682 59.4604 63.41 58.9118 63.6393C58.3633 63.8687 57.7734 63.9807 57.1797 63.9683C48.7027 63.9683 40.2268 63.9683 31.752 63.9683C26.9257 63.9683 23.1297 60.9047 21.8705 56.0747C21.3879 54.2241 20.8952 52.3735 20.3775 50.4102C20.2105 50.6726 20.0953 50.8308 20.0001 50.999C17.9477 54.5824 15.8818 58.1574 13.8528 61.756C12.991 63.2852 11.7769 64.1112 10.0001 63.9952C9.15168 63.9413 8.29163 64.1062 7.45161 63.8875C5.71312 63.4316 4.51906 61.8115 4.6727 60.1375C4.86809 58.218 6.17572 56.8469 8.04112 56.6971C8.4102 56.6685 8.48702 56.4414 8.6106 56.2244C11.7135 50.8139 14.8119 45.4018 17.9059 39.988C18.4887 38.9668 19.0933 37.9692 20.0669 37.2643C20.4834 36.9628 20.9255 36.6988 21.3879 36.4753C20.0281 35.5314 18.7842 34.4285 17.6821 33.1896C16.9964 32.4293 16.3815 31.6071 15.8451 30.7334C15.6297 30.3683 15.4126 30.2859 15.0101 30.3633C10.5244 31.2162 6.66002 29.9763 3.46695 26.721C1.61824 24.8401 0.534403 22.542 0.138609 19.9209C0.123579 19.82 0.138611 19.7073 0.0100197 19.6703L0 16.3964ZM12.6387 19.8789C12.7038 18.4438 12.8057 16.8792 13.1998 15.3483C13.3802 14.6468 13.8244 14.2733 14.3538 14.3927C14.945 14.5256 15.2255 15.0657 15.0569 15.7773C14.8682 16.6559 14.7244 17.5437 14.626 18.4371C14.5776 18.8005 14.6694 18.9603 15.0869 18.9418C16.0889 18.8997 17.0759 18.8089 18.0662 18.6827C22.7411 18.1002 27.2419 16.5331 31.276 14.0832C34.1485 12.3436 36.7554 10.2777 38.9448 7.70202C39.3873 7.18217 39.9468 7.14516 40.3676 7.53379C40.7885 7.92241 40.7651 8.43384 40.3509 8.93518C40.072 9.27165 39.7781 9.60812 39.4792 9.92104C38.903 10.5435 38.8963 10.5435 39.4792 11.1138C42.2831 13.8544 45.6231 15.4997 49.4792 16.1138C50.022 16.2013 49.9084 15.9052 49.8383 15.6242C47.4418 6.10042 38.0196 0.171815 28.5773 2.37906C23.0663 3.66438 19.0181 6.90458 16.4162 11.9685C16.0372 12.707 15.5412 12.9358 14.9784 12.6296C14.449 12.3419 14.3554 11.812 14.7095 11.102C15.1319 10.2132 15.6351 9.36561 16.2125 8.57011C16.4881 8.20336 16.3712 8.0856 16.0021 7.9611C14.1861 7.33291 12.2373 7.20056 10.3541 7.57753C3.41518 8.92341 -0.334002 17.0862 3.26321 23.2234C5.58954 27.1954 9.10826 29.0359 13.7242 28.6069C14.5742 28.5262 14.5709 28.5228 14.2469 27.7657C13.1931 25.2927 12.7021 22.6951 12.6387 19.8789ZM18.5338 49.6986C18.9547 48.9701 19.3421 48.3056 19.7245 47.6394C21.0138 45.3917 22.3081 43.1475 23.5873 40.8948C23.8478 40.4372 24.2035 40.2219 24.7162 40.3144C25.1254 40.3935 25.3508 40.6879 25.4477 41.0849C25.5295 41.4214 25.3575 41.6939 25.2022 41.9665C24.1234 43.8529 23.0412 45.7372 21.9557 47.6192C21.8766 47.7383 21.8257 47.8741 21.8069 48.0161C21.7881 48.1581 21.8018 48.3026 21.8471 48.4385C22.1444 49.4597 22.4049 50.4943 22.6554 51.5289C22.7406 51.8822 22.8625 51.9832 23.2383 51.8806C28.1025 50.5582 32.97 49.2482 37.8409 47.9506C38.2099 47.8513 38.2651 47.7151 38.1548 47.3449C37.8375 46.2851 37.582 45.2067 37.2931 44.1384C37.1595 43.6337 37.1712 43.1946 37.5637 42.7925C37.8472 42.4812 38.023 42.0857 38.0647 41.6653C38.2651 40.4019 37.243 39.3369 36.0256 39.5456C32.1628 40.2084 28.3852 39.8972 24.793 38.2922C23.5038 37.7168 22.4784 37.986 21.4129 38.6674C20.9613 38.936 20.5787 39.3077 20.2957 39.7525C18.7092 42.4443 17.1494 45.1663 15.5495 47.927C16.7386 48.2349 17.7272 48.7716 18.5338 49.6986ZM40.9555 50.4152C41.0456 50.8089 41.0991 51.0495 41.1542 51.29C41.2861 51.862 41.049 52.3634 40.5764 52.5098C40.0403 52.678 39.5493 52.4105 39.3656 51.825C39.1792 51.2741 39.0258 50.7123 38.9063 50.1427C38.8312 49.7356 38.6575 49.6851 38.3102 49.7793C33.4504 51.1039 28.5879 52.4195 23.7226 53.7261C23.3251 53.8338 23.29 54.0071 23.3886 54.3368C23.5723 54.9963 23.7393 55.6692 23.9447 56.3186C24.9617 59.5773 27.6638 61.756 31.0406 61.9948C33.1598 62.1446 35.2841 62.0268 37.4067 62.0504C38.3235 62.0621 38.3202 62.0504 38.1064 61.2092C38.0513 60.9871 38.0179 60.76 37.9795 60.5363C37.8125 59.5487 38.0279 58.5999 38.3469 57.6241C36.4113 57.6241 34.5393 57.6241 32.6688 57.6241C32.2747 57.6241 31.8773 57.6325 31.4848 57.5989C31.2606 57.5919 31.048 57.4971 30.8921 57.3347C30.7362 57.1723 30.6492 56.955 30.6498 56.7291C30.6181 56.2749 30.8652 55.9417 31.3178 55.7802C31.5588 55.7125 31.8099 55.6886 32.0593 55.7096C33.9932 55.7096 35.9354 55.6171 37.8626 55.7466C39.2971 55.8425 40.3576 55.4555 41.251 54.3183C41.8456 53.5629 42.6071 52.9421 43.3402 52.2137C42.4149 51.8133 41.5975 51.1968 40.9555 50.4152ZM44.9635 62.0537C46.2745 62.0537 47.5854 62.0537 48.8964 62.0537C49.0268 62.0691 49.159 62.0468 49.2773 61.9893C49.3956 61.9318 49.4952 61.8415 49.5644 61.729C49.914 61.1563 50.0991 60.497 50.0991 59.8246C50.0991 59.1522 49.914 58.493 49.5644 57.9202C49.5026 57.8138 49.412 57.7273 49.3031 57.671C49.1942 57.6147 49.0717 57.5908 48.9498 57.6022C46.2867 57.6112 43.6225 57.6112 40.9571 57.6022C40.8241 57.5914 40.6911 57.6217 40.5756 57.689C40.4601 57.7564 40.3678 57.8575 40.3108 57.9791C39.6295 59.1904 39.6278 60.4 40.2808 61.6214C40.343 61.7634 40.4482 61.8821 40.5814 61.9603C40.7146 62.0386 40.8689 62.0724 41.0223 62.0571C42.3482 62.0403 43.6609 62.0621 44.9718 62.0621L44.9635 62.0537ZM9.37045 62.0907C9.53735 62.0823 9.70456 62.0823 9.87146 62.0907C11.0071 62.2136 11.7369 61.7189 12.2679 60.7011C13.0595 59.187 13.9546 57.7251 14.8064 56.2412C15.4126 55.1864 15.3257 54.8465 14.317 54.1282C13.8827 53.8405 13.3935 53.6474 12.8808 53.5612C12.5151 53.4838 12.2796 53.573 12.0809 53.9398C11.4647 55.0753 10.7632 56.1655 10.1704 57.3146C9.74287 58.1557 9.2619 58.6604 8.21647 58.5982C7.26122 58.5427 6.57652 59.4074 6.59489 60.3731C6.59933 60.8175 6.77362 61.2431 7.08153 61.5615C7.38944 61.8798 7.80728 62.0663 8.2482 62.0823C8.62897 62.1076 9.00305 62.0907 9.37713 62.0907H9.37045ZM46.9892 49.9997C47.3416 50.0367 47.6723 50.0821 47.9795 49.7961C48.9615 48.8809 49.4909 47.7773 49.4909 46.4197C49.4998 46.3599 49.4969 46.299 49.4822 46.2404C49.4674 46.1819 49.4413 46.1269 49.4052 46.0786C49.3691 46.0303 49.3239 45.9898 49.272 45.9594C49.2202 45.929 49.1629 45.9093 49.1035 45.9015C46.5333 45.1882 44.1819 45.6037 42.0527 47.2474C41.7938 47.4492 41.7637 47.6579 41.8439 47.9489C42.2146 49.2948 43.0597 50.136 44.389 50.5246C44.5333 50.5757 44.6875 50.5924 44.8393 50.5734C44.9911 50.5545 45.1365 50.5003 45.2641 50.4152C45.7824 50.0922 46.3904 49.9465 46.9976 49.9997H46.9892ZM54.7281 55.686C54.9884 55.708 55.2505 55.6744 55.4971 55.5874C55.7437 55.5004 55.9693 55.3621 56.1593 55.1813C57.0978 54.2577 58.0397 53.3307 58.9398 52.3769C59.5344 51.7426 59.6379 50.9553 59.3256 50.1494C59.1906 49.7847 58.9597 49.4638 58.6576 49.2211C58.3555 48.9784 57.9935 48.823 57.6105 48.7716C56.7488 48.6235 55.7935 49.0963 55.6833 49.749C55.3493 51.6854 54.3323 53.0902 52.5905 53.9717C52.4836 54.0256 52.2448 54.076 52.4235 54.2661C53.0781 54.9256 53.6559 55.7247 54.7364 55.686H54.7281ZM57.0861 62.0218C57.4522 62.0436 57.8185 61.983 58.1585 61.8445C58.4985 61.706 58.8036 61.493 59.0517 61.221C59.8099 60.4151 60.6132 59.653 61.3898 58.8657C62.3066 57.9168 62.3166 56.6046 61.4298 55.7264C60.5431 54.8482 59.2471 54.8852 58.3069 55.8173C57.846 56.2715 57.4268 56.7846 56.8423 57.0757C56.4833 57.2439 56.4983 57.4441 56.6285 57.7621C57.1322 58.9692 57.1727 60.3219 56.7421 61.5574C56.6035 61.9663 56.6853 62.0958 57.0945 62.0218H57.0861ZM51.014 55.6591C49.8817 54.4916 48.7962 53.3223 47.6505 52.2137C47.1061 51.6854 46.4131 51.788 45.8135 52.3735C44.8817 53.2977 43.957 54.2297 43.0396 55.1696C42.8977 55.3159 42.6756 55.4202 42.6422 55.6591H51.014ZM53.018 62.01V62.047C53.2246 62.0276 53.4326 62.0276 53.6392 62.047C54.2504 62.1631 54.5477 61.8384 54.7682 61.3286C55.0151 60.8087 55.1321 60.2358 55.1088 59.6599C55.0855 59.0839 54.9227 58.5225 54.6345 58.0245C54.58 57.8895 54.4834 57.776 54.3593 57.7011C54.2353 57.6262 54.0904 57.5938 53.9465 57.609C53.3035 57.6359 52.6589 57.6258 52.016 57.609C51.692 57.609 51.5634 57.6443 51.712 58.0262C52.046 58.901 52.046 59.8213 51.9525 60.7465C51.9057 61.1755 51.4832 61.756 51.7154 61.9494C51.9842 62.1833 52.5788 62.01 53.0347 62.01H53.018ZM51.368 47.101C51.205 48.1996 50.8061 49.2491 50.199 50.1763C49.9568 50.5498 49.2554 50.7551 49.521 51.3102C49.7247 51.7359 50.2007 52.0269 50.5447 52.3886C50.602 52.4489 50.6758 52.4905 50.7568 52.5082C50.8377 52.5258 50.922 52.5188 50.9989 52.4879C52.385 52.1514 53.2919 51.2951 53.6943 49.9156C53.7611 49.6885 53.8329 49.4327 53.6058 49.214C52.8944 48.5293 52.2548 47.7622 51.3847 47.101H51.368ZM13.3852 51.7073C14.6093 52.0034 15.2005 52.3062 16.104 53.1777C16.3712 53.4351 16.4697 53.398 16.625 53.0986C16.8438 52.6713 17.0893 52.2574 17.3414 51.8486C17.4009 51.7656 17.4309 51.6649 17.4267 51.5627C17.4224 51.4605 17.3842 51.3627 17.3181 51.285C17.0511 50.858 16.6848 50.5031 16.2509 50.251C15.817 49.9988 15.3286 49.8572 14.8281 49.8382C14.6126 49.8264 14.4323 49.8382 14.3087 50.0804C14.0265 50.6222 13.7192 51.1269 13.3852 51.7073Z" fill="#0D0808"/>
<path d="M47.7592 39.3655C47.7592 39.8702 47.7792 40.3749 47.7592 40.8695C47.7551 41.112 47.659 41.3436 47.4907 41.517C47.3223 41.6903 47.0945 41.7921 46.854 41.8016C46.6019 41.8026 46.3594 41.7045 46.1779 41.5283C45.9965 41.3521 45.8903 41.1115 45.8821 40.8578C45.8587 39.8483 45.857 38.8507 45.8821 37.8497C45.8853 37.7239 45.9133 37.6 45.9645 37.4853C46.0157 37.3705 46.089 37.2671 46.1803 37.1811C46.2715 37.0952 46.3788 37.0284 46.4959 36.9846C46.613 36.9408 46.7376 36.9209 46.8624 36.9261C47.1024 36.9373 47.3291 37.0406 47.4959 37.2149C47.6626 37.3891 47.7569 37.6211 47.7592 37.8632C47.7875 38.3628 47.7592 38.8642 47.7592 39.3655Z" fill="#0D0808"/>
<path d="M43.5139 42.2403C43.3355 42.256 43.1565 42.2161 43.0015 42.1257C42.8464 42.0354 42.7227 41.8992 42.6472 41.7356C42.4 41.209 42.1829 40.6673 41.9792 40.1222C41.7754 39.5771 42.0126 39.2171 42.4501 38.9664C42.5559 38.907 42.6727 38.87 42.7932 38.8576C42.9137 38.8453 43.0355 38.8578 43.151 38.8945C43.2666 38.9312 43.3735 38.9913 43.4651 39.0711C43.5568 39.1508 43.6314 39.2486 43.6843 39.3584C43.9661 39.9156 44.2051 40.4938 44.399 41.0879C44.5827 41.6649 44.1135 42.2268 43.5139 42.2403Z" fill="#0D0808"/>
<path d="M51.7487 39.8867C51.5099 40.5597 51.3028 41.3386 50.8085 41.9611C50.5179 42.3295 50.0804 42.3228 49.6779 42.094C49.2253 41.8366 49.1268 41.4008 49.2754 40.9567C49.4726 40.41 49.7058 39.8772 49.9735 39.3618C50.1856 38.9345 50.5614 38.7999 51.0173 38.9093C51.4732 39.0186 51.697 39.3501 51.7487 39.8867Z" fill="#0D0808"/>
<path d="M12.6386 19.8787C12.7021 22.6983 13.1931 25.2925 14.2502 27.7673C14.5742 28.5294 14.5842 28.5327 13.7275 28.6084C9.11323 29.0391 5.59285 27.1986 3.26651 23.2249C-0.330699 17.081 3.41848 8.92493 10.3574 7.57904C12.2406 7.20208 14.1894 7.33442 16.0054 7.96262C16.3745 8.08711 16.4914 8.20488 16.2158 8.57163C15.6384 9.36712 15.1352 10.2147 14.7128 11.1036C14.3588 11.8135 14.4523 12.3435 14.9817 12.6311C15.5445 12.9373 16.0405 12.7085 16.4196 11.97C19.0214 6.90442 23.0729 3.66421 28.5806 2.38058C38.0229 0.173336 47.4518 6.10194 49.8416 15.6257C49.9117 15.9067 50.0253 16.2028 49.4825 16.1153C45.6265 15.5012 42.2864 13.8559 39.4825 11.1154C38.898 10.545 38.9046 10.545 39.4825 9.92256C39.7814 9.60123 40.0753 9.27486 40.3542 8.9367C40.7684 8.432 40.7667 7.90711 40.3709 7.53531C39.9751 7.16351 39.3906 7.1837 38.9481 7.70354C36.7587 10.2792 34.1518 12.3451 31.2793 14.0847C27.2426 16.5351 22.7388 18.1017 18.0612 18.6826C17.0709 18.8087 16.0805 18.8996 15.0819 18.9416C14.6644 18.9602 14.5725 18.8003 14.6209 18.4369C14.7205 17.5434 14.8654 16.6557 15.0552 15.7771C15.2222 15.0638 14.9433 14.5255 14.3521 14.3926C13.8227 14.2731 13.3785 14.6466 13.1981 15.3481C12.8073 16.8791 12.7038 18.4437 12.6386 19.8787Z" fill="#BC7669"/>
<path d="M18.5338 49.6982C17.7272 48.7712 16.7385 48.2346 15.5562 47.9301C17.156 45.1693 18.7158 42.454 20.3023 39.7555C20.5853 39.3107 20.968 38.939 21.4196 38.6704C22.485 37.9891 23.5104 37.7199 24.7997 38.2952C28.3919 39.9002 32.1695 40.2114 36.0322 39.5486C37.2497 39.34 38.2717 40.4049 38.0713 41.6684C38.0296 42.0888 37.8538 42.4842 37.5703 42.7955C37.1778 43.1892 37.1661 43.6367 37.2998 44.1414C37.5887 45.2097 37.8442 46.2881 38.1615 47.348C38.2717 47.7181 38.2166 47.8527 37.8475 47.9536C32.9778 49.2546 28.1102 50.5646 23.2449 51.8836C22.8692 51.9862 22.7439 51.8836 22.6621 51.532C22.4116 50.4973 22.151 49.4627 21.8538 48.4415C21.8085 48.3057 21.7947 48.1612 21.8135 48.0191C21.8324 47.8771 21.8833 47.7413 21.9623 47.6222C23.0512 45.7413 24.1333 43.8571 25.2088 41.9695C25.3642 41.697 25.5428 41.4261 25.4543 41.088C25.3575 40.6909 25.132 40.3965 24.7229 40.3174C24.2102 40.2182 23.8545 40.4402 23.5939 40.8978C22.3147 43.1505 21.0204 45.3948 19.7312 47.6424C19.3421 48.3052 18.9546 48.9698 18.5338 49.6982Z" fill="#E95C70"/>
<path d="M40.9554 50.415C41.599 51.1931 42.417 51.8061 43.3419 52.2033C42.6087 52.9318 41.8472 53.5492 41.2527 54.3079C40.3592 55.4452 39.2987 55.8322 37.8642 55.7363C35.937 55.6067 33.9948 55.6993 32.0609 55.6993C31.8115 55.6783 31.5604 55.7022 31.3194 55.7699C30.8702 55.9381 30.623 56.2645 30.6514 56.7188C30.6509 56.9447 30.7378 57.1619 30.8937 57.3243C31.0496 57.4868 31.2622 57.5815 31.4864 57.5885C31.8789 57.6222 32.2763 57.6138 32.6705 57.6138C34.5425 57.6138 36.4146 57.6138 38.3485 57.6138C38.0295 58.5895 37.8158 59.5384 37.9811 60.5259C38.0195 60.753 38.0529 60.9802 38.108 61.1989C38.3218 62.0501 38.3251 62.0585 37.4083 62.04C35.2857 62.0165 33.1614 62.1342 31.0422 61.9845C27.6654 61.7456 24.9633 59.567 23.9463 56.3083C23.7392 55.669 23.5722 54.996 23.3868 54.3231C23.29 53.9866 23.325 53.8184 23.7208 53.7124C28.5873 52.4114 33.4498 51.0958 38.3084 49.7656C38.6558 49.6714 38.8295 49.7219 38.9046 50.129C39.0241 50.6985 39.1774 51.2603 39.3639 51.8113C39.5476 52.3968 40.0319 52.6609 40.5746 52.4961C41.0472 52.3497 41.2844 51.8484 41.1525 51.2764C41.1074 51.0492 41.0456 50.8087 40.9554 50.415Z" fill="#FFE38A"/>
<path d="M44.9719 62.0618C43.6609 62.0618 42.3483 62.0484 41.0373 62.0719C40.8839 62.0873 40.7296 62.0534 40.5965 61.9751C40.4633 61.8969 40.3581 61.7782 40.2958 61.6362C39.6429 60.4148 39.6445 59.2052 40.3259 57.9939C40.3828 57.8723 40.4752 57.7712 40.5907 57.7038C40.7061 57.6365 40.8392 57.6062 40.9722 57.617C43.6353 57.6271 46.2995 57.6271 48.9649 57.617C49.0867 57.6056 49.2093 57.6295 49.3182 57.6858C49.427 57.7421 49.5177 57.8286 49.5795 57.935C49.9291 58.5078 50.1142 59.167 50.1142 59.8394C50.1142 60.5118 49.9291 61.1711 49.5795 61.7438C49.5102 61.8563 49.4106 61.9466 49.2923 62.0041C49.174 62.0616 49.0419 62.0839 48.9115 62.0685C47.5938 62.0467 46.2845 62.0618 44.9719 62.0618Z" fill="#FBDCCF"/>
<path d="M9.37708 62.0908C9.00133 62.0908 8.62724 62.1076 8.25316 62.0908C7.81224 62.0748 7.3944 61.8882 7.08649 61.5699C6.77858 61.2516 6.60429 60.8259 6.59985 60.3815C6.58148 59.4158 7.26785 58.5511 8.22143 58.6066C9.26686 58.6672 9.74783 58.1558 10.1754 57.323C10.7682 56.1739 11.4696 55.0838 12.0858 53.9482C12.2846 53.5814 12.5201 53.4923 12.8858 53.5697C13.3985 53.6558 13.8877 53.8489 14.322 54.1366C15.324 54.855 15.4175 55.1948 14.8113 56.2496C13.9596 57.7335 13.0645 59.1938 12.2729 60.7096C11.7418 61.719 11.012 62.2237 9.87642 62.0992C9.70952 62.0907 9.54231 62.0907 9.37541 62.0992L9.37708 62.0908Z" fill="#FBDCCF"/>
<path d="M46.9975 49.9996C46.3932 49.9482 45.7884 50.0939 45.2724 50.4151C45.1449 50.5002 44.9995 50.5544 44.8476 50.5733C44.6958 50.5923 44.5417 50.5756 44.3973 50.5245C43.0613 50.1426 42.2263 49.2913 41.8522 47.9488C41.7721 47.6578 41.8021 47.4441 42.061 47.2473C44.1903 45.6036 46.5416 45.1881 49.1118 45.9014C49.1712 45.9092 49.2286 45.9289 49.2804 45.9593C49.3322 45.9897 49.3775 46.0303 49.4135 46.0785C49.4496 46.1268 49.4758 46.1818 49.4905 46.2403C49.5052 46.2989 49.5082 46.3598 49.4992 46.4196C49.4992 47.7789 48.9698 48.8808 47.9879 49.796C47.6806 50.082 47.3499 50.0366 46.9975 49.9996Z" fill="#FBDCCF"/>
<path d="M54.7364 55.6858C53.6559 55.7245 53.0781 54.9253 52.4285 54.2591C52.2448 54.069 52.4836 54.0186 52.5955 53.9647C54.3373 53.0832 55.356 51.6784 55.6883 49.742C55.7986 49.0893 56.7538 48.6165 57.6155 48.7646C58.0008 48.8152 58.365 48.9709 58.6688 49.2149C58.9726 49.459 59.2043 49.782 59.339 50.1492C59.6513 50.955 59.5477 51.7423 58.9532 52.3766C58.0531 53.3355 57.1162 54.2575 56.1726 55.1811C55.9821 55.3625 55.7557 55.5012 55.5081 55.5882C55.2606 55.6752 54.9976 55.7084 54.7364 55.6858Z" fill="#BC7669"/>
<path d="M57.0944 62.0215C56.6853 62.0955 56.6035 61.9659 56.7421 61.5555C57.1718 60.3175 57.1289 58.9629 56.6218 57.755C56.4916 57.4371 56.4765 57.2503 56.8356 57.0686C57.4201 56.7776 57.8376 56.2645 58.3002 55.8102C59.2404 54.8849 60.5464 54.8496 61.4231 55.7194C62.2999 56.5892 62.2999 57.9064 61.383 58.8586C60.6132 59.6544 59.8099 60.4165 59.045 61.2139C58.7991 61.4851 58.4967 61.6982 58.1595 61.8378C57.8223 61.9774 57.4586 62.0401 57.0944 62.0215Z" fill="#BC7669"/>
<path d="M53.0346 62.0099C52.5787 62.0099 51.9842 62.1782 51.7103 61.9578C51.4782 61.766 51.9007 61.1839 51.9474 60.7549C52.0476 59.8296 52.0493 58.9043 51.707 58.0346C51.5583 57.6527 51.6869 57.6123 52.0109 57.6173C52.6539 57.6308 53.2985 57.6409 53.9414 57.6173C54.0851 57.6004 54.2304 57.631 54.3554 57.7044C54.4804 57.7778 54.5783 57.8901 54.6345 58.0245C54.9264 58.5208 55.0931 59.0816 55.1202 59.6579C55.1472 60.2342 55.0338 60.8084 54.7898 61.3303C54.5694 61.835 54.2721 62.1715 53.6609 62.0486C53.4542 62.0293 53.2463 62.0293 53.0396 62.0486L53.0346 62.0099Z" fill="#B2DADA"/>
<path d="M51.3847 47.1006C52.2548 47.7567 52.8877 48.5289 53.6159 49.2136C53.843 49.4323 53.7712 49.688 53.7044 49.9152C53.3019 51.2947 52.3951 52.1493 51.009 52.4875C50.9321 52.5184 50.8477 52.5254 50.7668 52.5077C50.6859 52.4901 50.612 52.4484 50.5547 52.3882C50.2107 52.0265 49.7348 51.7355 49.531 51.3098C49.2655 50.7547 49.9669 50.5494 50.209 50.1759C50.8185 49.2492 51.2197 48.1997 51.3847 47.1006Z" fill="#B2DADA"/>
<path d="M13.3851 51.7071C13.7191 51.1301 14.0264 50.6136 14.3087 50.0803C14.4322 49.8464 14.6126 49.8262 14.828 49.838C15.3286 49.857 15.817 49.9987 16.2509 50.2508C16.6848 50.5029 17.0511 50.8579 17.318 51.2848C17.3841 51.3625 17.4224 51.4603 17.4266 51.5626C17.4309 51.6648 17.4008 51.7655 17.3414 51.8484C17.0892 52.2572 16.8404 52.6711 16.625 53.0984C16.4696 53.3979 16.3711 53.4349 16.1039 53.1775C15.2004 52.3043 14.6093 52.0032 13.3851 51.7071Z" fill="#FFE38A"/>
<path d="M50.3092 18.6051C50.2808 18.235 50.1623 18.0752 49.7598 18.0281C45.1789 17.4998 41.2611 15.5618 38.0012 12.2913C37.6238 11.9111 37.4351 11.8993 37.0309 12.2459C33.1689 15.572 28.6448 18.0266 23.7627 19.4446C21.0115 20.2658 18.1683 20.7327 15.3007 20.8343C14.7479 20.8528 14.5241 21.0227 14.6327 21.5947C14.7997 22.4359 14.8648 23.2989 15.0686 24.1283C18.275 37.1497 33.4771 42.2825 43.8446 33.854C44.4859 33.3324 44.8466 33.3392 45.4829 33.8809C45.7584 33.3123 46.2244 32.9034 46.6636 32.4728C46.201 31.7998 46.2043 31.5205 46.7103 30.8493C47.7444 29.4841 48.5754 27.9743 49.177 26.3675C50.1194 23.8962 50.5061 21.2451 50.3092 18.6051ZM28.1632 22.6428C28.1321 22.6707 28.0949 22.6909 28.0546 22.7017C27.0526 22.8699 27.1294 23.6068 27.1745 24.3504C27.2079 24.8904 27.243 25.4506 26.7353 25.8376C25.8903 26.0849 25.5663 25.9049 25.2523 25.0048C25.2724 24.4429 25.2707 23.8776 25.3225 23.3225C25.3425 23.1105 25.2623 23.092 25.1137 23.0348C24.8392 22.9432 24.5767 22.8184 24.3321 22.663C23.918 22.3702 23.746 21.9682 23.9831 21.4651C24.2052 20.9974 24.7045 20.7518 25.1755 20.9941C25.5018 21.1754 25.8683 21.2705 26.241 21.2705C26.6136 21.2705 26.9801 21.1754 27.3064 20.9941C27.7674 20.767 28.2166 20.9588 28.4638 21.4281C28.7109 21.8975 28.5706 22.3147 28.1632 22.6445V22.6428ZM36.9842 26.206C36.8255 26.7292 36.2911 26.9597 35.6649 26.7511C34.6061 26.3978 33.5172 26.317 32.4133 26.317C32.1887 26.3238 31.9642 26.3011 31.7453 26.2497C31.5274 26.2075 31.3341 26.082 31.2059 25.8995C31.0777 25.7171 31.0244 25.4917 31.0573 25.2706C31.1024 24.7895 31.3913 24.4564 31.9023 24.4294C32.2747 24.4093 32.6488 24.4294 33.0229 24.4294C34.1233 24.4224 35.217 24.6027 36.2577 24.9627C36.8923 25.1932 37.1528 25.6508 36.9842 26.2077V26.206ZM41.0223 23.0314C41.1128 22.8517 41.2613 22.7084 41.4434 22.6249C41.6255 22.5414 41.8303 22.5228 42.0243 22.5721C42.2223 22.5965 42.4051 22.6916 42.5396 22.84C42.674 22.9884 42.7513 23.1805 42.7574 23.3813C42.7875 23.886 42.7825 24.3807 42.7925 24.8803C42.6388 25.8376 42.218 26.1034 41.3078 25.8191C40.8736 25.3076 40.6983 23.6101 41.0223 23.0314ZM40.5213 28.7127C40.5502 28.7925 40.5837 28.8706 40.6215 28.9466C40.5827 28.8723 40.5481 28.7959 40.5179 28.7178L40.5213 28.7127Z" fill="#FBDCCF"/>
<path d="M26.7352 25.8393C25.8902 26.0866 25.5662 25.9066 25.2523 25.0065C25.2723 24.4446 25.2706 23.881 25.3224 23.3241C25.3424 23.1122 25.2623 23.0937 25.1137 23.0365C24.8391 22.9449 24.5767 22.8201 24.3321 22.6647C23.9179 22.3719 23.7459 21.9699 23.983 21.4668C24.2052 20.9991 24.7045 20.7535 25.1754 20.9958C25.5017 21.1771 25.8683 21.2722 26.2409 21.2722C26.6135 21.2722 26.9801 21.1771 27.3064 20.9958C27.7673 20.7687 28.2165 20.9604 28.4637 21.4298C28.7109 21.8992 28.5706 22.3181 28.1631 22.6478C28.132 22.6758 28.0948 22.6959 28.0545 22.7067C27.0525 22.875 27.1294 23.6118 27.1744 24.3554C27.2078 24.8921 27.2463 25.4523 26.7352 25.8393Z" fill="#0D0808"/>
<path d="M33.0161 24.4261C34.1165 24.419 35.2102 24.5993 36.251 24.9594C36.8923 25.1933 37.1528 25.6509 36.9841 26.2077C36.8255 26.7309 36.291 26.9614 35.6648 26.7528C34.606 26.3995 33.5172 26.3187 32.4133 26.3187C32.1887 26.3255 31.9641 26.3029 31.7453 26.2515C31.5273 26.2092 31.334 26.0837 31.2058 25.9012C31.0776 25.7188 31.0243 25.4934 31.0572 25.2723C31.1023 24.7912 31.3912 24.4581 31.9022 24.4311C32.268 24.4093 32.6421 24.4261 33.0161 24.4261Z" fill="#0D0808"/>
<path d="M42.7891 24.8821C42.6355 25.841 42.2146 26.1051 41.3028 25.8208C40.8736 25.306 40.6982 23.6068 41.0222 23.0331C41.1128 22.8534 41.2613 22.7101 41.4433 22.6266C41.6254 22.5432 41.8303 22.5246 42.0242 22.5739C42.2222 22.5983 42.405 22.6933 42.5395 22.8417C42.674 22.9902 42.7513 23.1822 42.7574 23.3831C42.7774 23.8844 42.7774 24.3858 42.7891 24.8821Z" fill="#0D0808"/>
</g>
<defs>
<clipPath id="clip0_2033_118">
<rect width="64" height="64" fill="white"/>
</clipPath>
</defs>
</svg>
