<svg width="64" height="64" viewBox="0 0 64 64" fill="none" xmlns="http://www.w3.org/2000/svg">
<path d="M3.77122 30.6047C4.55281 30.8631 4.74978 30.7665 5.29049 30.0753C9.71155 24.421 15.4913 21.4778 22.6849 22.0649C29.043 22.5843 33.8706 25.9089 37.2052 31.3286C39.1623 34.5114 39.979 38.0242 39.8397 41.7502C39.8049 42.8724 39.6531 43.9878 39.3869 45.0785C39.1094 46.2311 38.4514 47.2564 37.5191 47.9888C36.5869 48.7211 35.4349 49.1177 34.2494 49.1144C25.3412 49.1195 16.4339 49.1195 7.52737 49.1144C4.91036 49.1144 2.74248 47.2652 2.25822 44.6846C1.55567 40.9774 1.853 37.3642 3.26187 33.8578C3.50149 33.2618 3.42622 32.7751 2.99339 32.3222C3.0624 31.6661 3.56045 31.2006 3.77122 30.6047ZM11.6185 37.6051C11.8531 36.8524 11.7803 36.0896 11.6862 35.3469C11.6273 34.8765 11.217 34.603 10.7265 34.6519C10.236 34.7008 9.89221 34.9994 9.86586 35.5414C9.84579 35.9541 9.84955 36.3669 9.84202 36.7809C8.66776 36.6554 7.56249 36.8173 6.58017 37.5261C5.10607 38.59 4.94925 40.3526 6.25273 41.5959C7.44331 42.7325 8.87351 42.9395 10.4166 42.5092C11.5884 42.1818 12.4553 41.5055 12.8003 40.2786C13.0863 39.236 12.5456 38.0292 11.6185 37.6051ZM31.9009 36.7784C31.8921 36.402 31.8884 36.0369 31.8746 35.6668C31.8532 35.0559 31.4857 34.6444 30.96 34.6343C30.4343 34.6243 30.0103 35.0345 29.9965 35.6305C29.9802 36.2477 30.0128 36.8649 30.0253 37.4834C29.9275 37.5901 29.8359 37.7005 29.7343 37.8021C28.5011 39.0416 28.5713 40.6349 29.9099 41.7627C31.369 42.9897 33.6849 43.0273 35.218 41.8468C36.751 40.6662 36.7335 38.6577 35.1577 37.5223C34.1767 36.816 33.0752 36.6379 31.9009 36.7784ZM20.8934 35.2503C20.0817 35.2503 19.27 35.2503 18.4596 35.2503C17.2866 35.2616 16.441 36.0031 16.4084 37.1485C16.377 38.2261 16.3206 39.3088 16.4761 40.3877C16.6294 41.4249 17.1473 42.3735 17.9368 43.0632C18.7264 43.753 19.7359 44.1388 20.7843 44.1514C22.9798 44.189 24.8691 42.6635 25.2367 40.5571C25.4424 39.3791 25.3697 38.1897 25.3182 37.0105C25.2731 35.993 24.42 35.2754 23.39 35.2541C22.5582 35.2328 21.7252 35.2503 20.8934 35.2503Z" fill="#898890"/>
<path d="M61.3479 41.3622C60.4768 41.3515 59.6105 41.2331 58.7685 41.0097C57.8351 40.7838 54.8392 39.3649 54.3035 38.9948C49.4509 35.6514 47.9203 29.0951 50.7908 23.959C51.8835 22.0094 53.4253 20.5027 55.3649 19.3347C55.114 19.0499 54.8894 18.7827 54.651 18.5305C53.7917 17.6222 52.8595 16.7967 51.9161 15.9775C51.4707 15.5911 51.2888 15.5572 50.9375 16.1155C49.6257 18.2384 47.563 19.79 45.1596 20.4618C42.7561 21.1335 40.1879 20.8763 37.9654 19.7411C37.2302 19.3648 36.7109 19.2217 36.1375 19.9092C35.9481 20.1351 35.6206 20.2455 35.3559 20.4111C34.7613 20.5039 34.4552 20.8527 34.2833 21.4323C34.0513 22.1835 33.7731 22.9197 33.4503 23.6365C33.2771 24.0317 33.3411 24.2575 33.6861 24.5147C34.9756 25.5003 36.1367 26.6433 37.1424 27.9171C39.7818 31.1546 41.3655 35.1232 41.6802 39.2884C41.8792 41.486 41.6997 43.7015 41.1495 45.8384C40.8183 47.0817 40.1044 48.1054 39.1786 49.0928H51.8509C53.2183 49.1266 54.5871 49.2119 55.9269 48.8117C59.1298 47.8558 61.3014 45.1974 61.7067 41.7423C61.7443 41.4224 61.6402 41.3584 61.3479 41.3622ZM31.9762 10.0334C31.4442 10.1224 30.906 10.1739 30.3741 10.2642C26.9084 10.8233 23.5889 12.0679 20.6099 13.925C17.8147 15.6049 15.4561 17.7627 13.4238 20.2944C13.154 20.6306 13.2456 20.9141 13.3999 21.2065C13.5906 21.569 13.8453 21.2579 14.036 21.1952C17.1347 20.174 20.2912 19.78 23.543 20.2229C25.0003 20.4179 26.4344 20.7588 27.8236 21.2403C27.9716 21.2918 28.2137 21.5565 28.3467 21.2203C28.6654 20.4111 28.9652 19.5956 29.26 18.7789C29.2839 18.6801 29.2677 18.5759 29.2149 18.4891C28.8071 17.8442 28.6679 17.1091 28.5035 16.3864C28.5989 13.9162 29.6753 12.2012 31.6788 11.5275C32.2986 11.3193 32.4617 11.0257 32.4479 10.4348C32.4328 10.0409 32.3161 9.97691 31.9762 10.0334Z" fill="#E95C70"/>
<path d="M8.39675 18.9044C6.7307 18.9044 5.48367 17.6611 5.48743 15.9976C5.48033 15.6179 5.54966 15.2406 5.69128 14.8882C5.83291 14.5358 6.04395 14.2155 6.31185 13.9463C6.57975 13.6771 6.89904 13.4646 7.25074 13.3213C7.60244 13.1779 7.97937 13.1068 8.35912 13.1121C9.12672 13.1071 9.86487 13.4072 10.4112 13.9465C10.9575 14.4857 11.2672 15.2199 11.2722 15.9875C11.2772 16.7551 10.977 17.4933 10.4378 18.0396C9.89854 18.5859 9.16436 18.8956 8.39675 18.9006V18.9044Z" fill="#898890"/>
<path d="M33.3399 18.9043C31.6663 18.9043 30.4419 17.6572 30.4544 15.9711C30.4657 14.3402 31.709 13.1132 33.3537 13.1157C35.0248 13.1157 36.2543 14.3703 36.2392 16.0489C36.2354 17.6786 34.9859 18.9068 33.3399 18.9043Z" fill="#898890"/>
<path d="M62.753 28.8344C58.8638 15.8435 45.8252 6.31635 31.0616 8.24962C26.5644 8.8355 22.2674 10.4684 18.516 13.0169C16.4836 14.3806 14.7172 16.0429 13.0211 17.7843C13.0035 17.8445 12.9721 17.8934 12.9094 17.847C12.8969 17.8382 12.9345 17.7604 12.9495 17.714C12.9847 17.5735 13.0173 17.4317 13.0562 17.2912C13.8905 14.2288 11.5269 11.1439 8.37292 11.174C6.07833 11.1941 4.02462 12.9015 3.63822 15.1133C3.2355 17.4117 4.46372 19.6548 6.62155 20.4878C6.80359 20.5448 6.9685 20.6464 7.10128 20.7833C7.23406 20.9202 7.3305 21.0882 7.38182 21.2719C7.64402 22.0548 7.94135 22.8288 8.26001 23.5903C8.41934 23.9667 8.39675 24.19 8.03544 24.4685C6.36467 25.7459 4.90606 27.279 3.71349 29.0113C3.2217 29.7189 3.23299 29.9585 3.7712 30.6046C4.55279 30.863 4.74975 30.7664 5.29047 30.0752C9.71153 24.4209 15.4913 21.4777 22.6849 22.0648C29.043 22.5842 33.8705 25.9088 37.2052 31.3285C39.1623 34.5113 39.979 38.024 39.8397 41.7501C39.8049 42.8722 39.6531 43.9877 39.3868 45.0784C39.1094 46.231 38.4513 47.2563 37.5191 47.9887C36.5869 48.721 35.4349 49.1176 34.2494 49.1143C25.3412 49.1193 16.4339 49.1193 7.52735 49.1143C4.91034 49.1143 2.74246 47.2651 2.2582 44.6845C1.55565 40.9773 1.85298 37.3641 3.26185 33.8576C3.50147 33.2617 3.4262 32.775 2.99337 32.3221C2.06751 32.1715 1.84169 32.307 1.48791 33.1764C1.07464 34.2319 0.739192 35.3162 0.484259 36.4207C0.282276 37.191 0.299839 38.0002 0 38.7454V43.1175C0.287294 43.6984 0.264711 44.3457 0.36884 44.9617C0.870663 47.8861 3.17027 50.2974 6.06328 50.8582C7.42447 51.1254 8.80198 50.9673 10.172 50.9962C11.3437 51.0212 11.345 50.9962 11.414 52.1591C11.5206 53.9619 12.7488 55.3971 14.3597 55.6029C16.1913 55.8375 17.7583 54.8702 18.2889 53.1753C18.4535 52.6152 18.5118 52.0293 18.4608 51.4478C18.4382 51.0928 18.5562 50.9861 18.9125 50.9936C19.9951 51.015 21.0778 51.0012 22.1605 51.0012C23.2432 51.0012 23.2281 51.0012 23.2783 52.0926C23.3436 53.509 23.9344 54.6206 25.2279 55.2667C26.4385 55.8726 27.6479 55.7961 28.772 55.0408C29.9977 54.2191 30.4029 52.9909 30.3252 51.577C30.2988 51.1116 30.4243 50.9824 30.9023 50.9886C33.1078 51.0175 35.3158 51.0012 37.5226 51.0012C38.7194 51.0012 38.7194 51.0012 38.7282 52.1817C38.7395 53.8691 40.0053 55.3746 41.6049 55.6016C43.4654 55.8651 45.1064 54.8276 45.6032 53.0925C45.7512 52.5794 45.7424 52.0613 45.7148 51.5457C45.691 51.1241 45.7926 50.9698 46.2505 50.9861C47.3106 51.0225 48.3732 50.9974 49.4358 50.9974C50.5863 50.9974 50.5863 50.9974 50.5963 52.1616C50.6088 53.8867 51.891 55.3946 53.5182 55.6004C55.4 55.8375 56.992 54.8025 57.475 53.0461C57.6846 52.2846 57.5767 51.5143 57.5804 50.749C57.5804 50.3726 57.6871 50.1719 58.0434 49.9963C60.7105 48.6865 62.4933 46.5952 63.1996 43.7109C64.419 38.7278 64.2246 33.7498 62.753 28.8344ZM5.48743 15.9978C5.48033 15.6181 5.54966 15.2408 5.69128 14.8884C5.83291 14.536 6.04395 14.2157 6.31185 13.9465C6.57975 13.6773 6.89904 13.4648 7.25074 13.3214C7.60244 13.1781 7.97937 13.107 8.35912 13.1123C9.12672 13.1073 9.86487 13.4074 10.4112 13.9467C10.9575 14.4859 11.2672 15.2201 11.2722 15.9877C11.2772 16.7553 10.977 17.4935 10.4378 18.0398C9.89854 18.5861 9.16436 18.8958 8.39675 18.9008C6.7307 18.9071 5.48367 17.6613 5.48743 15.9978ZM11.2057 22.3885C10.0766 23.0057 10.0766 23.0045 9.62998 21.8064C9.28498 20.8667 9.28498 20.8667 10.1858 20.4979C10.9473 20.1867 10.9473 20.1867 11.2534 20.9997C11.3788 21.3284 11.5043 21.6546 11.6134 21.9293C11.621 22.268 11.3763 22.2956 11.2057 22.3885ZM29.2086 18.4893C29.2614 18.5761 29.2777 18.6803 29.2538 18.7791C28.959 19.5958 28.6591 20.41 28.3405 21.2205C28.2075 21.5567 27.9641 21.292 27.8173 21.2406C26.4281 20.759 24.9941 20.4181 23.5368 20.2231C20.2849 19.7803 17.1285 20.1742 14.0297 21.1954C13.839 21.2581 13.5843 21.5718 13.3937 21.2067C13.2393 20.9144 13.1427 20.6308 13.4175 20.2946C15.4561 17.7629 17.8197 15.6051 20.6099 13.9252C23.5891 12.069 26.9086 10.8253 30.3741 10.2669C30.906 10.1766 31.4442 10.1252 31.9762 10.0361C32.3161 9.97965 32.4328 10.0436 32.4416 10.4376C32.4554 11.0335 32.2923 11.322 31.6726 11.5303C29.6653 12.204 28.5926 13.9139 28.4973 16.3892C28.6616 17.1118 28.8009 17.8445 29.2086 18.4893ZM32.4165 20.9984C32.1869 21.5981 31.9435 22.2379 31.6964 22.8803C31.6838 22.9129 31.6324 22.9606 31.6098 22.9555C31.0992 22.8301 30.6827 22.5064 30.2424 22.2442C29.9375 22.0636 30.2072 21.8039 30.2587 21.5818C30.2721 21.5426 30.2884 21.5044 30.3076 21.4676C30.4782 21.0474 30.6325 20.2821 30.8232 20.2733C31.2937 20.2495 31.7805 20.5744 32.2635 20.755C32.3676 20.7852 32.4654 20.8115 32.4165 20.9947V20.9984ZM30.4544 15.9802C30.4657 14.3493 31.7089 13.1223 33.3537 13.1248C35.0247 13.1248 36.2542 14.3794 36.2391 16.058C36.2304 17.6889 34.9846 18.9159 33.3348 18.9134C31.6663 18.9021 30.4418 17.6575 30.4544 15.9714V15.9802ZM61.7067 41.7425C61.3014 45.1976 59.1298 47.856 55.9269 48.812C54.5871 49.2122 53.2183 49.1269 51.8509 49.093H39.1736C40.0994 48.1057 40.8133 47.0857 41.1445 45.8387C41.6972 43.7022 41.8793 41.4867 41.6827 39.2886C41.368 35.1235 39.7843 31.1548 37.1449 27.9173C36.1392 26.6435 34.9781 25.5005 33.6886 24.515C33.3436 24.2553 33.2796 24.0294 33.4528 23.6368C33.7756 22.9199 34.0539 22.1837 34.2858 21.4325C34.4577 20.8529 34.7638 20.5041 35.3584 20.4113C35.6232 20.2482 35.9506 20.1378 36.14 19.9095C36.7171 19.222 37.2328 19.3637 37.9679 19.7414C40.1899 20.875 42.7569 21.1315 45.1592 20.4598C47.5615 19.7881 49.6233 18.2374 50.935 16.1157C51.2838 15.5574 51.4682 15.5913 51.9136 15.9777C52.857 16.7969 53.7954 17.6224 54.6485 18.5307C54.8869 18.7816 55.1115 19.0501 55.3624 19.3349C53.4228 20.5029 51.881 22.0096 50.7883 23.9592C47.9128 29.0953 49.4434 35.6517 54.301 38.9951C54.8367 39.3714 57.8326 40.7841 58.766 41.0099C59.6088 41.2335 60.476 41.3519 61.3479 41.3624C61.6402 41.3586 61.7443 41.4226 61.7067 41.7425Z" fill="#0A0607"/>
<path d="M32.4166 20.9944C32.187 21.5941 31.9436 22.2339 31.6965 22.8763C31.6839 22.9089 31.6325 22.9566 31.6099 22.9515C31.0993 22.8261 30.6828 22.5024 30.2424 22.2402C29.9376 22.0596 30.2073 21.7999 30.2587 21.5778C30.2721 21.5386 30.2885 21.5004 30.3077 21.4636C30.4783 21.0434 30.6326 20.2781 30.8233 20.2693C31.2937 20.2455 31.7805 20.5704 32.2635 20.7511C32.3676 20.7849 32.4655 20.8113 32.4166 20.9944Z" fill="#898890"/>
<path d="M11.6134 21.9265C11.621 22.2677 11.3763 22.2953 11.2057 22.3882C10.0766 23.0054 10.0766 23.0042 9.62999 21.8061C9.28498 20.8664 9.28498 20.8664 10.1858 20.4976C10.9473 20.1864 10.9473 20.1864 11.2534 20.9994C11.3776 21.3256 11.5068 21.6517 11.6134 21.9265Z" fill="#898890"/>
<path d="M13.0148 17.7792C12.9972 17.8395 12.9659 17.8884 12.9032 17.842C12.8906 17.8332 12.9282 17.7554 12.9433 17.709L13.0148 17.7792Z" fill="white"/>
<path d="M20.8934 35.2502C21.7252 35.2502 22.5582 35.2377 23.39 35.2502C24.42 35.2703 25.2718 35.9879 25.3182 37.0066C25.3697 38.1859 25.4437 39.3752 25.2367 40.5532C24.8691 42.6596 22.9785 44.1914 20.7843 44.1475C19.7359 44.1349 18.7264 43.7491 17.9368 43.0594C17.1473 42.3696 16.6294 41.421 16.4761 40.3839C16.3205 39.3049 16.377 38.2222 16.4084 37.1446C16.441 35.9942 17.2866 35.2627 18.4596 35.2464C19.27 35.2439 20.0817 35.2502 20.8934 35.2502ZM23.3611 38.9787C23.3611 38.4456 23.3423 38.0491 23.3611 37.6539C23.3837 37.2876 23.2733 37.1345 22.8756 37.1446C21.5044 37.1797 20.1319 37.1233 18.7607 37.2274C18.4131 37.2537 18.3492 37.3993 18.3542 37.6941C18.3655 38.4017 18.3542 39.1092 18.3617 39.8168C18.3755 40.8919 18.9237 41.6422 19.8835 42.0411C20.8658 42.4489 21.7892 42.2745 22.6034 41.5544C23.4514 40.8079 23.4038 39.8256 23.3611 38.9787Z" fill="#0A0607"/>
<path d="M31.9009 36.7783C33.0752 36.6378 34.1767 36.816 35.1628 37.5223C36.7385 38.6514 36.7661 40.6587 35.223 41.8467C33.6799 43.0348 31.374 42.9896 29.9149 41.7627C28.5763 40.6336 28.5061 39.0415 29.7393 37.802C29.8409 37.7004 29.9325 37.59 30.0291 37.4834C30.2988 37.8422 30.5987 38.1583 31.103 38.063C31.2693 38.0411 31.4258 37.972 31.5541 37.864C31.6824 37.7559 31.777 37.6134 31.8269 37.4533C31.8726 37.2311 31.8974 37.0051 31.9009 36.7783Z" fill="#F2C6C0"/>
<path d="M11.6184 37.605C12.5468 38.029 13.0863 39.2359 12.7977 40.2722C12.4565 41.4941 11.5896 42.1754 10.4141 42.5028C8.87095 42.9331 7.44075 42.7261 6.25018 41.5895C4.94544 40.3462 5.10351 38.5785 6.57762 37.5197C7.55868 36.8109 8.66395 36.6415 9.83947 36.767C9.86456 37.2863 9.87083 37.8082 10.5006 38.014C10.9937 38.1821 11.3311 37.9726 11.6184 37.605Z" fill="#F2C6C0"/>
<path d="M11.6185 37.6048C11.3312 37.9724 10.9912 38.1819 10.5032 38.02C9.87591 37.8143 9.86713 37.2924 9.84204 36.773C9.84957 36.3603 9.84204 35.9475 9.86588 35.5348C9.89222 34.9928 10.2259 34.6967 10.7265 34.6453C11.2271 34.5938 11.6273 34.8698 11.6862 35.3403C11.7803 36.0893 11.8531 36.8633 11.6185 37.6048Z" fill="#0A0607"/>
<path d="M31.9008 36.7779C31.8957 37.0049 31.8692 37.2309 31.8218 37.4529C31.772 37.613 31.6773 37.7556 31.549 37.8636C31.4207 37.9717 31.2642 38.0407 31.0979 38.0626C30.5961 38.1579 30.2938 37.8418 30.024 37.483C30.0127 36.8645 29.9801 36.2473 29.9964 35.63C30.0102 35.0341 30.433 34.6264 30.9599 34.6339C31.4868 34.6414 31.8532 35.0554 31.8745 35.6664C31.8883 36.0365 31.8921 36.4066 31.9008 36.7779Z" fill="#0A0607"/>
<path d="M23.3612 38.9787C23.4038 39.8255 23.4515 40.8078 22.6084 41.5543C21.7942 42.2744 20.8709 42.4488 19.8886 42.041C18.9288 41.6421 18.3831 40.8919 18.3668 39.8167C18.3567 39.1091 18.3668 38.4016 18.3593 37.694C18.3593 37.3992 18.4182 37.2537 18.7657 37.2273C20.137 37.1232 21.5094 37.1796 22.8807 37.1445C23.2784 37.1345 23.3888 37.2875 23.3662 37.6539C23.3424 38.049 23.3612 38.4455 23.3612 38.9787Z" fill="black"/>
</svg>
