<svg width="60" height="60" viewBox="0 0 60 60" fill="none" xmlns="http://www.w3.org/2000/svg">
<g clip-path="url(#clip0_53_2)">
<path d="M58.7755 35.5102H52.6521V5.63262C52.6521 4.95633 52.1038 4.40812 51.4276 4.40812H43.7145V1.22449C43.7145 0.548203 43.1661 0 42.49 0C41.8138 0 41.2655 0.548203 41.2655 1.22449V4.40812H33.5524C32.8763 4.40812 32.3279 4.95633 32.3279 5.63262V19.8367H19.8367V10.5357C19.8367 9.85945 19.2884 9.31125 18.6122 9.31125H1.22449C0.54832 9.31125 0 9.85945 0 10.5357V58.7755C0 59.4518 0.54832 60 1.22449 60H58.7755C59.4517 60 60 59.4518 60 58.7755V36.7346C60 36.0584 59.4517 35.5102 58.7755 35.5102ZM17.3878 21.0612V57.551H2.44898V55.9591H9.16629C9.84246 55.9591 10.3908 55.4109 10.3908 54.7346C10.3908 54.0584 9.84246 53.5102 9.16629 53.5102H2.44898V50.4677H9.16629C9.84246 50.4677 10.3908 49.9195 10.3908 49.2432C10.3908 48.567 9.84246 48.0188 9.16629 48.0188H2.44898V44.9763H9.16629C9.84246 44.9763 10.3908 44.4281 10.3908 43.7518C10.3908 43.0755 9.84246 42.5273 9.16629 42.5273H2.44898V39.4852H9.16629C9.84246 39.4852 10.3908 38.937 10.3908 38.2607C10.3908 37.5844 9.84246 37.0362 9.16629 37.0362H2.44898V33.9937H9.16629C9.84246 33.9937 10.3908 33.4455 10.3908 32.7693C10.3908 32.093 9.84246 31.5448 9.16629 31.5448H2.44898V28.5023H9.16629C9.84246 28.5023 10.3908 27.9541 10.3908 27.2779C10.3908 26.6016 9.84246 26.0534 9.16629 26.0534H2.44898V23.0111H9.16629C9.84246 23.0111 10.3908 22.4629 10.3908 21.7866C10.3908 21.1103 9.84246 20.5621 9.16629 20.5621H2.44898V17.5196H9.16629C9.84246 17.5196 10.3908 16.9714 10.3908 16.2952C10.3908 15.6189 9.84246 15.0707 9.16629 15.0707H2.44898V11.7601H17.3878V21.0612ZM34.7769 6.85711H50.2031V35.5102H40.898V21.0612C40.898 20.3849 40.3496 19.8367 39.6735 19.8367H34.7769V6.85711ZM32.5714 49.4566H23.5369V48.4796H32.5714V49.4566ZM32.5714 41.8788H23.5116V40.9018H32.5714V41.8788ZM32.5714 36.7346V38.4527H22.2871C21.6109 38.4527 21.0626 39.0009 21.0626 39.6772V43.1032C21.0626 43.7795 21.6109 44.3277 22.2871 44.3277H32.5714V46.0304H22.3124C21.6362 46.0304 21.0879 46.5786 21.0879 47.2549V50.6809C21.0879 51.3572 21.6362 51.9054 22.3124 51.9054H32.5714V57.5509H19.8367V22.2857H38.4489V35.5102H33.7958C33.1198 35.5102 32.5714 36.0584 32.5714 36.7346ZM43.2258 57.551H39.6734H39.0573V53.3982H43.2257L43.2258 57.551ZM54.7321 57.551H50.5637V53.3982H54.7321V57.551ZM57.551 57.551H57.1811V52.1738C57.1811 51.4975 56.6327 50.9493 55.9566 50.9493H49.3392C48.663 50.9493 48.1147 51.4975 48.1147 52.1738V57.551H45.6746V52.1738C45.6746 51.4975 45.1263 50.9493 44.4502 50.9493H37.8328C37.1566 50.9493 36.6083 51.4975 36.6083 52.1738V57.551H35.0204V37.9591H57.551V57.551Z" fill="black"/>
<path d="M44.4503 40.0485H37.8329C37.1567 40.0485 36.6084 40.5967 36.6084 41.273V47.8953C36.6084 48.5716 37.1567 49.1198 37.8329 49.1198C38.5091 49.1198 39.0574 48.5716 39.0574 47.8953V42.4974H43.2258V43.8579C43.2258 44.5342 43.7741 45.0824 44.4503 45.0824C45.1264 45.0824 45.6748 44.5342 45.6748 43.8579V41.273C45.6748 40.5967 45.1264 40.0485 44.4503 40.0485Z" fill="black"/>
<path d="M44.3048 46.6368C43.6287 46.6368 43.0804 47.185 43.0804 47.8613V47.8955C43.0804 48.5718 43.6287 49.12 44.3048 49.12C44.981 49.12 45.5293 48.5718 45.5293 47.8955V47.8613C45.5293 47.185 44.9811 46.6368 44.3048 46.6368Z" fill="black"/>
<path d="M55.9567 40.0485H49.3393C48.663 40.0485 48.1148 40.5967 48.1148 41.273V47.8953C48.1148 48.5716 48.6632 49.1198 49.3393 49.1198C50.0155 49.1198 50.5638 48.5716 50.5638 47.8953V42.4974H54.7322V43.8579C54.7322 44.5342 55.2805 45.0824 55.9567 45.0824C56.6328 45.0824 57.1812 44.5342 57.1812 43.8579V41.273C57.1812 40.5967 56.6328 40.0485 55.9567 40.0485Z" fill="black"/>
<path d="M55.8113 46.6368C55.1351 46.6368 54.5868 47.185 54.5868 47.8613V47.8955C54.5868 48.5718 55.1351 49.12 55.8113 49.12C56.4874 49.12 57.0357 48.5718 57.0357 47.8955V47.8613C57.0357 47.185 56.4874 46.6368 55.8113 46.6368Z" fill="black"/>
<path d="M38.2042 10.348C37.528 10.348 36.9797 10.8962 36.9797 11.5725V13.5317C36.9797 14.2079 37.528 14.7561 38.2042 14.7561C38.8803 14.7561 39.4287 14.2079 39.4287 13.5317V11.5725C39.4287 10.8962 38.8803 10.348 38.2042 10.348Z" fill="black"/>
<path d="M42.49 10.348C41.8138 10.348 41.2655 10.8962 41.2655 11.5725V13.5317C41.2655 14.2079 41.8138 14.7561 42.49 14.7561C43.1661 14.7561 43.7145 14.2079 43.7145 13.5317V11.5725C43.7145 10.8962 43.1661 10.348 42.49 10.348Z" fill="black"/>
<path d="M46.7756 10.348C46.0995 10.348 45.5511 10.8962 45.5511 11.5725V13.5317C45.5511 14.2079 46.0995 14.7561 46.7756 14.7561C47.4518 14.7561 48.0001 14.2079 48.0001 13.5317V11.5725C48.0001 10.8962 47.4518 10.348 46.7756 10.348Z" fill="black"/>
<path d="M46.7756 17.8776C46.0995 17.8776 45.5511 18.4258 45.5511 19.1021V21.0612C45.5511 21.7375 46.0995 22.2857 46.7756 22.2857C47.4518 22.2857 48.0001 21.7375 48.0001 21.0612V19.1021C48.0001 18.4258 47.4518 17.8776 46.7756 17.8776Z" fill="black"/>
<path d="M46.7756 25.5919C46.0995 25.5919 45.5511 26.1401 45.5511 26.8163V28.7755C45.5511 29.4518 46.0995 30 46.7756 30C47.4518 30 48.0001 29.4518 48.0001 28.7755V26.8163C48.0001 26.1401 47.4518 25.5919 46.7756 25.5919Z" fill="black"/>
<path d="M35.9988 23.1454H22.2871C21.6109 23.1454 21.0626 23.6937 21.0626 24.3699V27.7959C21.0626 28.4722 21.6108 29.0204 22.2871 29.0204H35.9988C36.675 29.0204 37.2233 28.4722 37.2233 27.7959V24.3699C37.2233 23.6937 36.6749 23.1454 35.9988 23.1454ZM34.7743 26.5714H23.5115V25.5944H34.7743V26.5714Z" fill="black"/>
<path d="M35.9988 30.7654H22.2871C21.6109 30.7654 21.0626 31.3136 21.0626 31.9899V35.4158C21.0626 36.0921 21.6108 36.6403 22.2871 36.6403H29.5509C30.2271 36.6403 30.7754 36.0921 30.7754 35.4158C30.7754 34.7396 30.2271 34.1914 29.5509 34.1914H23.5115V33.2144H34.7743V33.3266C34.7743 34.0029 35.3226 34.5511 35.9988 34.5511C36.675 34.5511 37.2233 34.0029 37.2233 33.3266V31.9899C37.2233 31.3136 36.675 30.7654 35.9988 30.7654Z" fill="black"/>
</g>
<defs>
<clipPath id="clip0_53_2">
<rect width="60" height="60" fill="white"/>
</clipPath>
</defs>
</svg>
