<svg width="20" height="20" viewBox="0 0 20 20" fill="none" xmlns="http://www.w3.org/2000/svg">
<g clip-path="url(#clip0_119_1127)">
<path d="M20 0H0V20H20V0Z" fill="white"/>
<path fill-rule="evenodd" clip-rule="evenodd" d="M0 10C0 4.47715 4.47715 0 10 0C15.5228 0 20 4.47715 20 10C20 15.5228 15.5228 20 10 20C4.47715 20 0 15.5228 0 10ZM13.7071 7.29289C14.0976 7.68342 14.0976 8.3166 13.7071 8.7071L10.0243 12.3899C9.4586 12.9556 8.5414 12.9556 7.97568 12.3899L6.29289 10.7071C5.90237 10.3166 5.90237 9.6834 6.29289 9.2929C6.68342 8.9024 7.31658 8.9024 7.70711 9.2929L9 10.5858L12.2929 7.29289C12.6834 6.90237 13.3166 6.90237 13.7071 7.29289Z" fill="#B2DADA"/>
</g>
<defs>
<clipPath id="clip0_119_1127">
<rect width="20" height="20" fill="white"/>
</clipPath>
</defs>
</svg>
