<svg width="57" height="57" viewBox="0 0 57 57" fill="none" xmlns="http://www.w3.org/2000/svg">
<g clip-path="url(#clip0_2007_274)">
<path d="M68.5015 34.5795C68.5015 33.0501 67.8957 31.5831 66.817 30.5011C65.7384 29.4191 64.2753 28.8105 62.7492 28.8091C61.2231 28.8105 59.76 29.4191 58.6814 30.5011C57.6028 31.5831 56.997 33.0501 56.997 34.5795C56.9998 36.1067 57.6071 37.5703 58.6856 38.6491C59.764 39.7279 61.2255 40.3338 62.7492 40.3338C64.273 40.3338 65.7345 39.7279 66.8129 38.6491C67.8914 37.5703 68.4987 36.1067 68.5015 34.5795ZM68.5015 91.789C68.4958 90.2638 67.8873 88.803 66.8091 87.7264C65.731 86.6499 64.2711 86.0455 62.7492 86.0455C61.9938 86.0455 61.2458 86.1946 60.5479 86.4843C59.85 86.7741 59.2159 87.1987 58.6818 87.734C58.1476 88.2694 57.7239 88.9049 57.4348 89.6044C57.1457 90.3038 56.997 91.0535 56.997 91.8106C56.997 92.5676 57.1457 93.3173 57.4348 94.0167C57.7239 94.7162 58.1476 95.3517 58.6818 95.8871C59.2159 96.4224 59.85 96.8471 60.5479 97.1368C61.2458 97.4265 61.9938 97.5756 62.7492 97.5756C63.5064 97.5756 64.2562 97.4258 64.9555 97.1347C65.6548 96.8437 66.2899 96.4171 66.8243 95.8795C67.3588 95.3418 67.782 94.7038 68.0698 94.0018C68.3576 93.2999 68.5043 92.5479 68.5015 91.789ZM68.5015 148.999C68.5015 147.47 67.8955 146.003 66.8167 144.922C65.738 143.841 64.2748 143.234 62.7492 143.234C61.2236 143.234 59.7605 143.841 58.6818 144.922C57.603 146.003 56.997 147.47 56.997 148.999C56.9963 149.756 57.1445 150.506 57.4333 151.206C57.722 151.906 58.1456 152.543 58.6799 153.079C59.2141 153.614 59.8484 154.04 60.5467 154.33C61.2449 154.62 61.9934 154.769 62.7492 154.769C63.5051 154.769 64.2535 154.62 64.9518 154.33C65.65 154.04 66.2844 153.614 66.8186 153.079C67.3528 152.543 67.7764 151.906 68.0652 151.206C68.354 150.506 68.5022 149.756 68.5015 148.999ZM56.997 206.213C56.997 207.742 57.603 209.209 58.6818 210.29C59.7605 211.371 61.2236 211.979 62.7492 211.979C64.2748 211.979 65.7379 211.371 66.8167 210.29C67.8955 209.209 68.5015 207.742 68.5015 206.213C68.5022 205.456 68.354 204.706 68.0652 204.006C67.7764 203.306 67.3528 202.669 66.8186 202.133C66.2844 201.598 65.65 201.172 64.9518 200.882C64.2535 200.592 63.5051 200.443 62.7492 200.443C61.9934 200.443 61.2449 200.592 60.5467 200.882C59.8484 201.172 59.2141 201.598 58.6799 202.133C58.1456 202.669 57.722 203.306 57.4333 204.006C57.1445 204.706 56.9962 205.456 56.997 206.213ZM11.5099 34.5795C11.5099 33.0501 10.9041 31.5831 9.82546 30.5011C8.74685 29.4191 7.28375 28.8105 5.75766 28.8091C5.00155 28.8091 4.25285 28.9584 3.5543 29.2484C2.85575 29.5384 2.22104 29.9634 1.68639 30.4992C1.15174 31.0351 0.727635 31.6712 0.438286 32.3713C0.148937 33.0714 1.13621e-05 33.8218 1.13289e-05 34.5795C0.00285513 36.1076 0.610892 37.572 1.69051 38.651C2.77012 39.73 4.23298 40.3353 5.75766 40.3338C7.2814 40.3338 8.74289 39.7279 9.82134 38.6491C10.8998 37.5703 11.5071 36.1067 11.5099 34.5795ZM11.5099 91.789C11.5043 90.2638 10.8957 88.803 9.81757 87.7264C8.73942 86.6499 7.27954 86.0455 5.75765 86.0455C5.0018 86.0448 4.25322 86.1934 3.5547 86.4828C2.85618 86.7722 2.22143 87.1968 1.68671 87.7322C1.152 88.2676 0.727805 88.9033 0.43839 89.6031C0.148975 90.3029 8.53153e-06 91.053 8.82728e-06 91.8106C8.4653e-06 92.5681 0.148975 93.3182 0.43839 94.018C0.727804 94.7178 1.152 95.3536 1.68671 95.889C2.22143 96.4244 2.85618 96.8489 3.5547 97.1383C4.25322 97.4277 5.0018 97.5763 5.75765 97.5756C6.51486 97.5756 7.26463 97.4258 7.96393 97.1347C8.66323 96.8437 9.29831 96.4171 9.83274 95.8795C10.3672 95.3418 10.7904 94.7038 11.0782 94.0018C11.3661 93.2999 11.5128 92.5479 11.5099 91.789ZM11.5099 148.999C11.5099 147.47 10.9039 146.003 9.82513 144.922C8.74637 143.841 7.28325 143.234 5.75765 143.234C5.0018 143.233 4.25322 143.381 3.5547 143.671C2.85618 143.96 2.22143 144.385 1.68671 144.92C1.15199 145.456 0.727802 146.091 0.438388 146.791C0.148973 147.491 6.03176e-06 148.241 6.32752e-06 148.999C-0.000699542 149.757 0.147741 150.507 0.43684 151.208C0.725939 151.908 1.15002 152.544 1.68481 153.08C2.2196 153.616 2.85459 154.041 3.55346 154.331C4.25233 154.621 5.00135 154.77 5.75765 154.769C6.5135 154.769 7.26194 154.62 7.96019 154.33C8.65844 154.04 9.29281 153.614 9.82703 153.079C10.3612 152.543 10.7848 151.906 11.0736 151.206C11.3624 150.506 11.5106 149.756 11.5099 148.999ZM11.5099 206.213C11.5106 205.456 11.3624 204.706 11.0736 204.006C10.7848 203.306 10.3612 202.669 9.82703 202.133C9.29281 201.598 8.65844 201.172 7.96019 200.882C7.26194 200.592 6.5135 200.443 5.75765 200.443C5.00135 200.442 4.25233 200.591 3.55346 200.881C2.85459 201.171 2.2196 201.596 1.68481 202.132C1.15002 202.668 0.725936 203.304 0.436838 204.004C0.147739 204.705 -0.000701977 205.455 3.82657e-06 206.213C3.4646e-06 206.971 0.14897 207.721 0.438385 208.421C0.727799 209.121 1.15199 209.756 1.68671 210.292C2.22143 210.827 2.85618 211.252 3.5547 211.541C4.25322 211.831 5.0018 211.979 5.75765 211.979C7.28325 211.979 8.74636 211.371 9.82513 210.29C10.9039 209.209 11.5099 207.742 11.5099 206.213ZM97 5.74354C96.9943 4.21828 96.3858 2.75745 95.3076 1.68094C94.2295 0.604432 92.7696 -8.25351e-06 91.2477 2.29809e-06C90.4919 -0.000704386 89.7433 0.147892 89.0448 0.437297C88.3462 0.726701 87.7115 1.15125 87.1768 1.68665C86.6421 2.22206 86.2179 2.85782 85.9284 3.55762C85.639 4.25742 85.4901 5.00752 85.4901 5.76505C85.4958 7.29124 86.105 8.75289 87.1843 9.82955C88.2636 10.9062 89.7249 11.51 91.2477 11.5086C92.7733 11.5086 94.2364 10.9012 95.3152 9.82005C96.394 8.73889 97 7.27252 97 5.74354ZM97 177.926C97 176.397 96.3939 174.931 95.3152 173.849C94.2364 172.768 92.7733 172.161 91.2477 172.161C90.4919 172.16 89.7433 172.309 89.0448 172.598C88.3462 172.888 87.7115 173.312 87.1768 173.848C86.642 174.383 86.2179 175.019 85.9284 175.719C85.639 176.418 85.4901 177.168 85.4901 177.926C85.4901 178.684 85.639 179.434 85.9284 180.133C86.2179 180.833 86.642 181.469 87.1768 182.004C87.7115 182.54 88.3462 182.964 89.0448 183.254C89.7433 183.543 90.4919 183.692 91.2477 183.691C92.0031 183.691 92.7511 183.542 93.449 183.252C94.1469 182.962 94.781 182.538 95.3152 182.002C95.8493 181.467 96.273 180.832 96.5621 180.132C96.8512 179.433 97 178.683 97 177.926ZM97 120.534C97 119.004 96.3941 117.537 95.3155 116.455C94.2369 115.373 92.7738 114.765 91.2477 114.763C89.7207 114.763 88.2562 115.371 87.1764 116.453C86.0967 117.535 85.4901 119.003 85.4901 120.534C85.4901 121.291 85.639 122.041 85.9284 122.741C86.2179 123.441 86.642 124.077 87.1768 124.612C87.7115 125.147 88.3462 125.572 89.0448 125.861C89.7433 126.151 90.4919 126.299 91.2477 126.299C92.7733 126.299 94.2364 125.691 95.3152 124.61C96.3939 123.529 97 122.063 97 120.534ZM97 63.1359C97 62.3788 96.8512 61.6292 96.5621 60.9297C96.2731 60.2303 95.8493 59.5947 95.3152 59.0594C94.781 58.5241 94.1469 58.0994 93.449 57.8097C92.7511 57.52 92.0031 57.3708 91.2477 57.3708C90.4919 57.3701 89.7433 57.5187 89.0448 57.8081C88.3462 58.0975 87.7115 58.5221 87.1768 59.0575C86.6421 59.5929 86.2179 60.2287 85.9284 60.9285C85.639 61.6283 85.4901 62.3784 85.4901 63.1359C85.4894 63.8939 85.6378 64.6446 85.9269 65.345C86.216 66.0454 86.6401 66.6818 87.1749 67.2178C87.7097 67.7538 88.3447 68.1788 89.0435 68.4685C89.7424 68.7583 90.4914 68.907 91.2477 68.9063C92.0036 68.9063 92.752 68.757 93.4503 68.467C94.1485 68.1769 94.7829 67.7518 95.3171 67.2159C95.8513 66.68 96.2749 66.0438 96.5637 65.3437C96.8524 64.6437 97.0007 63.8934 97 63.1359ZM40.0084 177.926C40.0084 177.168 39.8594 176.418 39.57 175.719C39.2806 175.019 38.8564 174.383 38.3217 173.848C37.787 173.312 37.1522 172.888 36.4537 172.598C35.7552 172.309 35.0066 172.16 34.2508 172.161C32.7252 172.161 31.262 172.768 30.1833 173.849C29.1045 174.931 28.4985 176.397 28.4985 177.926C28.4985 179.455 29.1045 180.921 30.1833 182.002C31.262 183.084 32.7252 183.691 34.2508 183.691C35.0066 183.692 35.7552 183.543 36.4537 183.254C37.1522 182.964 37.787 182.54 38.3217 182.004C38.8564 181.469 39.2806 180.833 39.57 180.133C39.8594 179.434 40.0084 178.684 40.0084 177.926ZM40.0084 5.74353C40.0027 4.21735 39.3935 2.7557 38.3141 1.67903C37.2348 0.602372 35.7736 -0.00143444 34.2508 -1.93328e-07C32.7289 -1.0878e-05 31.269 0.604429 30.1909 1.68094C29.1127 2.75745 28.5042 4.21828 28.4985 5.74353C28.4985 7.27252 29.1045 8.73889 30.1833 9.82005C31.2621 10.9012 32.7252 11.5086 34.2508 11.5086C35.0066 11.5093 35.7552 11.3607 36.4537 11.0713C37.1522 10.7819 37.787 10.3574 38.3217 9.82195C38.8564 9.28655 39.2806 8.65076 39.57 7.95096C39.8594 7.25117 40.0084 6.50106 40.0084 5.74353ZM40.0084 63.1359C40.0084 62.3784 39.8594 61.6283 39.57 60.9285C39.2806 60.2287 38.8564 59.5929 38.3217 59.0575C37.787 58.5221 37.1522 58.0975 36.4537 57.8081C35.7552 57.5187 35.0066 57.3701 34.2508 57.3708C32.7252 57.3708 31.2621 57.9782 30.1833 59.0594C29.1045 60.1406 28.4985 61.6069 28.4985 63.1359C28.4978 63.8934 28.646 64.6437 28.9348 65.3437C29.2236 66.0438 29.6472 66.68 30.1814 67.2159C30.7156 67.7518 31.35 68.1769 32.0482 68.467C32.7465 68.757 33.4949 68.9063 34.2508 68.9063C35.0071 68.907 35.7561 68.7583 36.455 68.4685C37.1538 68.1788 37.7888 67.7538 38.3236 67.2178C38.8584 66.6818 39.2825 66.0454 39.5716 65.345C39.8607 64.6446 40.0091 63.8939 40.0084 63.1359ZM40.0084 120.534C40.0084 119.003 39.4018 117.535 38.322 116.453C37.2423 115.371 35.7778 114.763 34.2508 114.763C32.7247 114.765 31.2616 115.373 30.183 116.455C29.1044 117.537 28.4985 119.004 28.4985 120.534C28.4985 122.063 29.1045 123.529 30.1833 124.61C31.262 125.691 32.7252 126.299 34.2508 126.299C35.0066 126.299 35.7552 126.151 36.4537 125.861C37.1522 125.572 37.787 125.147 38.3217 124.612C38.8564 124.077 39.2806 123.441 39.57 122.741C39.8594 122.041 40.0084 121.291 40.0084 120.534Z" fill="white"/>
</g>
<defs>
<clipPath id="clip0_2007_274">
<rect width="57" height="57" fill="white"/>
</clipPath>
</defs>
</svg>
