<svg width="60" height="60" viewBox="0 0 60 60" fill="none" xmlns="http://www.w3.org/2000/svg">
<g clip-path="url(#clip0_51_91)">
<path d="M49.7143 9.05823C44.0427 9.05823 39.4287 13.6724 39.4287 19.3439V34.0378C39.4287 39.2948 43.3938 43.6405 48.4899 44.2481V54.9766H46.3355C45.6592 54.9766 45.111 55.5248 45.111 56.2011C45.111 56.8774 45.6592 57.4256 46.3355 57.4256H54.7981C55.4743 57.4256 56.0225 56.8774 56.0225 56.2011C56.0225 55.5248 55.4743 54.9766 54.7981 54.9766H50.9388V44.2481C56.0349 43.6406 60 39.2948 60 34.0379V19.344C60 13.6724 55.3859 9.05823 49.7143 9.05823ZM57.551 34.0379C57.551 37.9426 54.6803 41.1887 50.9388 41.7784V36.6865L54.2017 33.203C54.664 32.7094 54.6387 31.9345 54.1451 31.4721C53.6514 31.0099 52.8766 31.0352 52.4142 31.5287L50.9387 33.104V29.1643L54.2016 25.6808C54.6639 25.1872 54.6386 24.4124 54.145 23.9499C53.6513 23.4878 52.8765 23.5131 52.4141 24.0065L50.9386 25.582V23.4462C50.9386 22.7699 50.3904 22.2217 49.7141 22.2217C49.0378 22.2217 48.4896 22.7699 48.4896 23.4462V28.9599L47.2289 27.6139C46.7666 27.1203 45.9916 27.095 45.4981 27.5573C45.0045 28.0195 44.9793 28.7946 45.4415 29.2882L48.4896 32.5422V41.7784C44.7481 41.1887 41.8774 37.9426 41.8774 34.0379V19.3439C41.8774 15.0227 45.3929 11.5072 49.7141 11.5072C54.0353 11.5072 57.5508 15.0227 57.5508 19.3439V34.0379H57.551Z" fill="black"/>
<path d="M58.7755 54.9766H58.7595C58.0832 54.9766 57.535 55.5248 57.535 56.2011C57.535 56.8774 58.0832 57.4256 58.7595 57.4256H58.7755C59.4518 57.4256 60 56.8774 60 56.2011C60 55.5248 59.4518 54.9766 58.7755 54.9766Z" fill="black"/>
<path d="M41.8775 54.9767H41.7475C41.8345 54.6096 41.8805 54.232 41.8805 53.8506C41.8805 51.3386 39.9757 49.2633 37.5343 48.9933C36.369 47.0265 34.2422 45.793 31.9187 45.793C29.5323 45.793 27.3823 47.081 26.2404 49.0992C25.8674 49.0096 25.4836 48.9635 25.0977 48.9635C22.403 48.9635 20.2106 51.1559 20.2106 53.8506C20.2106 54.232 20.2566 54.6097 20.3436 54.9767H17.5102V44.2386C21.9292 43.6388 25.3468 39.8433 25.3468 35.2624C25.3468 30.266 21.2821 26.2013 16.2857 26.2013C11.2893 26.2013 7.22449 30.266 7.22449 35.2624C7.22449 39.8434 10.6421 43.6386 15.0612 44.2386V54.9767H13.1878C13.2558 54.6782 13.2921 54.3714 13.2921 54.0613C13.2921 51.774 11.4314 49.9133 9.14414 49.9133C7.83539 49.9133 6.62426 50.535 5.85223 51.539C5.64973 51.5002 5.44254 51.4805 5.23289 51.4805C3.42773 51.4805 1.95914 52.9491 1.95914 54.7544C1.95914 54.8289 1.96254 54.9029 1.96746 54.9765H1.22449C0.548203 54.9767 0 55.5249 0 56.2011C0 56.8774 0.548203 57.4256 1.22449 57.4256H41.8775C42.5538 57.4256 43.102 56.8774 43.102 56.2011C43.102 55.5249 42.5538 54.9767 41.8775 54.9767ZM10.5764 54.9767H4.43824C4.41844 54.9053 4.40812 54.8305 4.40812 54.7545C4.40812 54.2995 4.7782 53.9296 5.23301 53.9296C5.40082 53.9296 5.56219 53.9796 5.69965 54.0744C6.01207 54.2898 6.40664 54.3483 6.76828 54.2326C7.1298 54.117 7.41715 53.8401 7.54629 53.4832C7.78898 52.8128 8.43117 52.3624 9.14437 52.3624C10.0811 52.3624 10.8434 53.1245 10.8434 54.0614C10.8435 54.3924 10.7505 54.7065 10.5764 54.9767ZM11.5798 37.5341L15.0612 41.0159V41.7593C11.9985 41.1832 9.67336 38.49 9.67336 35.2626C9.67336 31.6165 12.6396 28.6504 16.2855 28.6504C19.9315 28.6504 22.8977 31.6166 22.8977 35.2626C22.8977 38.49 20.5726 41.1832 17.5099 41.7593V41.0263L20.7259 37.8102C21.204 37.3321 21.204 36.5567 20.7259 36.0785C20.2478 35.6004 19.4723 35.6004 18.9942 36.0785L16.2907 38.7822L13.3112 35.8024C12.8331 35.3242 12.0577 35.3243 11.5795 35.8024C11.1014 36.2806 11.1015 37.0559 11.5798 37.5341ZM39.1575 54.9767H22.9342C22.7536 54.6325 22.6598 54.2508 22.6598 53.8506C22.6598 52.5062 23.7536 51.4125 25.0979 51.4125C25.5141 51.4125 25.925 51.5195 26.2866 51.7221C26.6053 51.9006 26.9873 51.9276 27.3281 51.7954C27.6689 51.6632 27.9328 51.3856 28.0475 51.0385C28.601 49.3658 30.1567 48.242 31.9188 48.242C33.5384 48.242 35.0051 49.2014 35.6555 50.6863C35.861 51.1555 36.3367 51.4486 36.8484 51.4173C36.8965 51.4145 36.9448 51.4125 36.9935 51.4125C38.3379 51.4125 39.4316 52.5062 39.4316 53.8506C39.4317 54.2508 39.338 54.6326 39.1575 54.9767Z" fill="black"/>
<path d="M32.4387 18.6295H12.8443C12.168 18.6295 11.6198 19.1777 11.6198 19.854C11.6198 20.5303 12.168 21.0785 12.8443 21.0785H32.4387C33.115 21.0785 33.6632 20.5303 33.6632 19.854C33.6632 19.1777 33.115 18.6295 32.4387 18.6295Z" fill="black"/>
<path d="M7.65386 18.6295H6.62671C5.95042 18.6295 5.40222 19.1777 5.40222 19.854C5.40222 20.5303 5.95042 21.0785 6.62671 21.0785H7.65386C8.33015 21.0785 8.87835 20.5303 8.87835 19.854C8.87835 19.1777 8.33015 18.6295 7.65386 18.6295Z" fill="black"/>
<path d="M30.8427 14.7006H29.2246C28.5483 14.7006 28.0001 15.2488 28.0001 15.9251C28.0001 16.6014 28.5483 17.1496 29.2246 17.1496H30.8427C31.519 17.1496 32.0672 16.6014 32.0672 15.9251C32.0672 15.2488 31.519 14.7006 30.8427 14.7006Z" fill="black"/>
<path d="M24.1224 14.7006H4.41691C3.74062 14.7006 3.19241 15.2488 3.19241 15.9251C3.19241 16.6014 3.74062 17.1496 4.41691 17.1496H24.1224C24.7987 17.1496 25.3469 16.6014 25.3469 15.9251C25.3469 15.2488 24.7987 14.7006 24.1224 14.7006Z" fill="black"/>
<path d="M26.0152 2.57437C23.0803 2.57437 20.6925 4.96265 20.6925 7.8982C20.6925 8.57449 21.2407 9.12269 21.917 9.12269C22.5933 9.12269 23.1415 8.57449 23.1415 7.8982C23.1415 6.313 24.4307 5.02336 26.0152 5.02336C27.6004 5.02336 28.89 6.313 28.89 7.8982C28.89 9.48269 27.6004 10.7719 26.0152 10.7719H7.14176C6.46547 10.7719 5.91727 11.3201 5.91727 11.9964C5.91727 12.6727 6.46547 13.2209 7.14176 13.2209H26.0152C28.9507 13.2209 31.339 10.8332 31.339 7.8982C31.339 4.96265 28.9507 2.57437 26.0152 2.57437Z" fill="black"/>
<path d="M3.18024 10.7719H3.16419C2.4879 10.7719 1.9397 11.3201 1.9397 11.9964C1.9397 12.6727 2.4879 13.2209 3.16419 13.2209H3.18024C3.85653 13.2209 4.40474 12.6727 4.40474 11.9964C4.40474 11.3201 3.85653 10.7719 3.18024 10.7719Z" fill="black"/>
</g>
<defs>
<clipPath id="clip0_51_91">
<rect width="60" height="60" fill="white"/>
</clipPath>
</defs>
</svg>
