<svg width="696" height="153" viewBox="0 0 696 153" fill="none" xmlns="http://www.w3.org/2000/svg">
<g clip-path="url(#clip0_2036_188)">
<rect width="152" height="696" transform="translate(696 0.20752) rotate(90)" fill="#F2C6C0"/>
<path d="M653.555 100.087C653.427 94.0713 655.625 88.8873 660.147 84.5353C664.713 80.1833 670.089 78.0713 676.275 78.1993C682.462 78.0713 687.838 80.1833 692.403 84.5353C697.011 88.8873 699.251 94.0713 699.123 100.087C699.251 106.146 697.011 111.33 692.403 115.639C687.838 119.949 682.462 122.061 676.275 121.975C670.046 122.061 664.67 119.949 660.147 115.639C655.625 111.33 653.427 106.146 653.555 100.087ZM687.859 100.087C687.859 96.6313 686.75 93.8153 684.531 91.6393C682.355 89.4207 679.625 88.3113 676.339 88.3113C672.926 88.3113 670.153 89.3993 668.019 91.5753C665.886 93.7513 664.819 96.5887 664.819 100.087C664.819 103.586 665.886 106.445 668.019 108.663C670.153 110.797 672.926 111.863 676.339 111.863C679.667 111.863 682.419 110.775 684.595 108.599C686.771 106.423 687.859 103.586 687.859 100.087Z" fill="white"/>
<path d="M644.658 108.663C644.658 112.29 643.292 115.298 640.562 117.687C637.874 120.034 634.482 121.207 630.386 121.207H610.674V78.9673H625.906C630.002 78.9673 633.394 80.1406 636.082 82.4873C638.813 84.7913 640.178 87.778 640.178 91.4473C640.178 94.306 639.325 96.674 637.618 98.5513C642.311 100.471 644.658 103.842 644.658 108.663ZM625.202 88.2473H621.234V95.6713H625.202C626.525 95.6713 627.549 95.33 628.274 94.6473C629.042 93.9646 629.426 93.0686 629.426 91.9593C629.426 90.85 629.042 89.9539 628.274 89.2713C627.549 88.5886 626.525 88.2473 625.202 88.2473ZM629.682 111.927C632.498 111.927 633.906 110.69 633.906 108.215C633.906 105.741 632.498 104.503 629.682 104.503H621.234V111.927H629.682Z" fill="white"/>
<path d="M577.017 121.207V88.8873H564.345V78.9673H600.697V88.8873H588.025V121.207H577.017Z" fill="white"/>
<path d="M514.383 100.087C514.298 94.0287 516.516 88.8447 521.039 84.5353C525.562 80.1833 530.959 78.0713 537.231 78.1993C541.455 78.1993 545.252 79.202 548.623 81.2073C551.994 83.17 554.639 85.9433 556.559 89.5273L548.175 95.2233C545.444 90.6153 541.775 88.3113 537.167 88.3113C533.796 88.3113 531.023 89.3993 528.847 91.5753C526.714 93.7513 525.647 96.61 525.647 100.151C525.647 103.607 526.714 106.445 528.847 108.663C531.066 110.797 533.839 111.863 537.167 111.863C541.775 111.863 545.444 109.559 548.175 104.951L556.559 110.647C554.639 114.231 551.994 117.026 548.623 119.031C545.252 120.994 541.434 121.975 537.167 121.975C530.938 122.061 525.54 119.949 520.975 115.639C516.452 111.33 514.255 106.146 514.383 100.087Z" fill="white"/>
<path d="M500.922 111.287H506.874V130.231H495.866V121.207H472.378V130.231H461.37V111.287H464.89C467.706 109.111 469.114 101.09 469.114 87.2233V78.9673H500.922V111.287ZM476.666 111.287H489.914V88.8873H479.546C479.461 99.17 478.501 106.637 476.666 111.287Z" fill="white"/>
<path d="M408.268 100.087C408.14 94.0713 410.337 88.8873 414.86 84.5353C419.425 80.1833 424.801 78.0713 430.988 78.1993C437.175 78.0713 442.551 80.1833 447.116 84.5353C451.724 88.8873 453.964 94.0713 453.836 100.087C453.964 106.146 451.724 111.33 447.116 115.639C442.551 119.949 437.175 122.061 430.988 121.975C424.759 122.061 419.383 119.949 414.86 115.639C410.337 111.33 408.14 106.146 408.268 100.087ZM442.572 100.087C442.572 96.6313 441.463 93.8153 439.244 91.6393C437.068 89.4207 434.337 88.3113 431.052 88.3113C427.639 88.3113 424.865 89.3993 422.732 91.5753C420.599 93.7513 419.532 96.5887 419.532 100.087C419.532 103.586 420.599 106.445 422.732 108.663C424.865 110.797 427.639 111.863 431.052 111.863C434.38 111.863 437.132 110.775 439.308 108.599C441.484 106.423 442.572 103.586 442.572 100.087Z" fill="white"/>
<path d="M399.37 108.663C399.37 112.29 398.005 115.298 395.274 117.687C392.586 120.034 389.194 121.207 385.098 121.207H365.386V78.9673H380.618C384.714 78.9673 388.106 80.1406 390.794 82.4873C393.525 84.7913 394.89 87.778 394.89 91.4473C394.89 94.306 394.037 96.674 392.33 98.5513C397.024 100.471 399.37 103.842 399.37 108.663ZM379.914 88.2473H375.946V95.6713H379.914C381.237 95.6713 382.261 95.33 382.986 94.6473C383.754 93.9646 384.138 93.0686 384.138 91.9593C384.138 90.85 383.754 89.9539 382.986 89.2713C382.261 88.5886 381.237 88.2473 379.914 88.2473ZM384.394 111.927C387.21 111.927 388.618 110.69 388.618 108.215C388.618 105.741 387.21 104.503 384.394 104.503H375.946V111.927H384.394Z" fill="white"/>
<path d="M354.007 108.599C354.007 112.738 352.514 116.002 349.527 118.391C346.583 120.781 342.509 121.975 337.303 121.975C333.378 121.975 329.922 121.101 326.935 119.351C323.949 117.559 321.709 115.063 320.215 111.863L327.831 106.487C330.221 110.071 333.357 111.863 337.239 111.863C339.074 111.863 340.525 111.543 341.591 110.903C342.701 110.221 343.255 109.239 343.255 107.959C343.255 106.893 342.829 106.061 341.975 105.463C341.122 104.823 339.927 104.503 338.391 104.503H332.439V95.6712H337.111C338.519 95.6712 339.629 95.3512 340.439 94.7112C341.25 94.0286 341.655 93.1539 341.655 92.0872C341.655 90.9352 341.207 90.0179 340.311 89.3352C339.458 88.6526 338.306 88.3112 336.855 88.3112C333.527 88.3112 330.946 90.1032 329.111 93.6872L321.495 88.3112C324.653 81.5699 330.029 78.1992 337.623 78.1992C342.231 78.1992 345.837 79.3299 348.439 81.5912C351.085 83.8099 352.407 86.9459 352.407 90.9992C352.407 94.4552 351.127 97.2286 348.567 99.3192C352.194 101.325 354.007 104.418 354.007 108.599Z" fill="white"/>
<path d="M305.316 78.1992H308.836V121.207H297.828V99.2552L274.916 121.975H271.396V78.9672H282.404V100.663L305.316 78.1992Z" fill="white"/>
<path d="M214.413 100.087C214.285 94.0713 216.482 88.8873 221.005 84.5353C225.57 80.1833 230.946 78.0713 237.133 78.1993C243.32 78.0713 248.696 80.1833 253.261 84.5353C257.869 88.8873 260.109 94.0713 259.981 100.087C260.109 106.146 257.869 111.33 253.261 115.639C248.696 119.949 243.32 122.061 237.133 121.975C230.904 122.061 225.528 119.949 221.005 115.639C216.482 111.33 214.285 106.146 214.413 100.087ZM248.717 100.087C248.717 96.6313 247.608 93.8153 245.389 91.6393C243.213 89.4207 240.482 88.3113 237.197 88.3113C233.784 88.3113 231.01 89.3993 228.877 91.5753C226.744 93.7513 225.677 96.5887 225.677 100.087C225.677 103.586 226.744 106.445 228.877 108.663C231.01 110.797 233.784 111.863 237.197 111.863C240.525 111.863 243.277 110.775 245.453 108.599C247.629 106.423 248.717 103.586 248.717 100.087Z" fill="white"/>
<path d="M172.594 121.207V78.9673H189.17C193.906 78.9673 197.81 80.3113 200.882 82.9993C203.954 85.6446 205.49 89.1433 205.49 93.4953C205.49 97.7619 203.933 101.261 200.818 103.991C197.703 106.722 193.821 108.087 189.17 108.087H183.602V121.207H172.594ZM183.602 98.4873H189.234C190.77 98.4873 191.986 98.0393 192.882 97.1433C193.821 96.2046 194.29 94.9886 194.29 93.4953C194.29 92.0019 193.821 90.8073 192.882 89.9113C191.986 89.0153 190.77 88.5673 189.234 88.5673H183.602V98.4873Z" fill="white"/>
<path d="M122.224 121.207V78.9673H159.024V121.207H148.016V88.8873H133.232V121.207H122.224Z" fill="white"/>
<path d="M273.459 70.2073V27.9673H302.771V37.8873H284.467V43.7113H297.523V52.9273H284.467V60.2873H303.539V70.2073H273.459ZM272.691 17.9193C272.691 16.2553 273.31 14.8473 274.547 13.6953C275.784 12.5007 277.235 11.9033 278.899 11.9033C280.648 11.9033 282.12 12.4793 283.315 13.6313C284.552 14.7833 285.171 16.2127 285.171 17.9193C285.171 19.498 284.552 20.8847 283.315 22.0793C282.078 23.274 280.606 23.8713 278.899 23.8713C277.278 23.8713 275.848 23.274 274.611 22.0793C273.331 20.8847 272.691 19.498 272.691 17.9193ZM290.291 17.9833C290.291 16.3193 290.91 14.9113 292.147 13.7593C293.384 12.5647 294.835 11.9673 296.499 11.9673C298.248 11.9673 299.72 12.5433 300.915 13.6953C302.152 14.8473 302.771 16.2767 302.771 17.9833C302.771 19.562 302.152 20.9487 300.915 22.1433C299.678 23.338 298.206 23.9353 296.499 23.9353C294.878 23.9353 293.448 23.338 292.211 22.1433C290.931 20.906 290.291 19.5193 290.291 17.9833Z" fill="white"/>
<path d="M216.475 49.0873C216.347 43.0713 218.545 37.8873 223.068 33.5353C227.633 29.1833 233.009 27.0713 239.196 27.1993C245.382 27.0713 250.758 29.1833 255.324 33.5353C259.932 37.8873 262.172 43.0713 262.044 49.0873C262.172 55.146 259.932 60.33 255.324 64.6393C250.758 68.9487 245.382 71.0607 239.196 70.9753C232.966 71.0607 227.59 68.9487 223.068 64.6393C218.545 60.33 216.347 55.146 216.475 49.0873ZM250.779 49.0873C250.779 45.6313 249.67 42.8153 247.452 40.6393C245.276 38.4207 242.545 37.3113 239.26 37.3113C235.846 37.3113 233.073 38.3993 230.94 40.5753C228.806 42.7513 227.74 45.5887 227.74 49.0873C227.74 52.586 228.806 55.4447 230.94 57.6633C233.073 59.7967 235.846 60.8633 239.26 60.8633C242.588 60.8633 245.34 59.7753 247.516 57.5993C249.692 55.4233 250.779 52.586 250.779 49.0873Z" fill="white"/>
<path d="M207.578 57.6633C207.578 61.29 206.213 64.298 203.482 66.6873C200.794 69.034 197.402 70.2073 193.306 70.2073H173.594V27.9673H188.826C192.922 27.9673 196.314 29.1406 199.002 31.4873C201.733 33.7913 203.098 36.778 203.098 40.4473C203.098 43.306 202.245 45.674 200.538 47.5513C205.231 49.4713 207.578 52.842 207.578 57.6633ZM188.122 37.2473H184.154V44.6713H188.122C189.445 44.6713 190.469 44.33 191.194 43.6473C191.962 42.9646 192.346 42.0686 192.346 40.9593C192.346 39.85 191.962 38.954 191.194 38.2713C190.469 37.5886 189.445 37.2473 188.122 37.2473ZM192.602 60.9273C195.418 60.9273 196.826 59.69 196.826 57.2153C196.826 54.7406 195.418 53.5033 192.602 53.5033H184.154V60.9273H192.602Z" fill="white"/>
<path d="M120.048 49.0873C119.963 43.0287 122.181 37.8447 126.704 33.5353C131.227 29.1833 136.624 27.0713 142.896 27.1993C147.12 27.1993 150.917 28.202 154.288 30.2073C157.659 32.17 160.304 34.9433 162.224 38.5273L153.84 44.2233C151.109 39.6153 147.44 37.3113 142.832 37.3113C139.461 37.3113 136.688 38.3993 134.512 40.5753C132.379 42.7513 131.312 45.61 131.312 49.1513C131.312 52.6073 132.379 55.4447 134.512 57.6633C136.731 59.7967 139.504 60.8633 142.832 60.8633C147.44 60.8633 151.109 58.5593 153.84 53.9513L162.224 59.6473C160.304 63.2313 157.659 66.026 154.288 68.0313C150.917 69.994 147.099 70.9753 142.832 70.9753C136.603 71.0607 131.205 68.9487 126.64 64.6393C122.117 60.33 119.92 55.146 120.048 49.0873Z" fill="white"/>
<g clip-path="url(#clip1_2036_188)">
<path d="M57.2023 4.91506C57.2023 3.6453 56.6964 2.42749 55.7957 1.52922C54.895 0.630943 53.6732 0.125707 52.3988 0.124523C51.1245 0.125707 49.9027 0.630942 49.002 1.52922C48.1013 2.42749 47.5954 3.6453 47.5954 4.91506C47.5978 6.18286 48.1049 7.39792 49.0055 8.29356C49.906 9.18919 51.1264 9.69222 52.3988 9.69221C53.6713 9.69222 54.8917 9.18919 55.7922 8.29356C56.6928 7.39792 57.1999 6.18286 57.2023 4.91506ZM57.2023 52.4097C57.1976 51.1435 56.6894 49.9307 55.7891 49.037C54.8888 48.1433 53.6697 47.6415 52.3988 47.6415C51.768 47.6415 51.1434 47.7653 50.5606 48.0058C49.9779 48.2464 49.4483 48.5989 49.0023 49.0433C48.5563 49.4878 48.2024 50.0154 47.961 50.5961C47.7196 51.1767 47.5954 51.7991 47.5954 52.4276C47.5954 53.0561 47.7196 53.6785 47.961 54.2592C48.2024 54.8398 48.5563 55.3674 49.0023 55.8119C49.4483 56.2563 49.9779 56.6088 50.5606 56.8494C51.1434 57.0899 51.768 57.2137 52.3988 57.2137C53.0312 57.2137 53.6572 57.0893 54.2412 56.8477C54.8251 56.606 55.3555 56.2519 55.8018 55.8056C56.248 55.3592 56.6015 54.8295 56.8418 54.2468C57.0822 53.664 57.2047 53.0398 57.2023 52.4097ZM57.2023 99.9044C57.2023 98.6351 56.6962 97.4177 55.7954 96.5202C54.8946 95.6226 53.6728 95.1184 52.3988 95.1184C51.1249 95.1184 49.9031 95.6226 49.0023 96.5202C48.1015 97.4177 47.5954 98.6351 47.5954 99.9044C47.5948 100.533 47.7186 101.156 47.9597 101.737C48.2009 102.319 48.5546 102.847 49.0007 103.292C49.4468 103.737 49.9765 104.089 50.5596 104.33C51.1427 104.571 51.7677 104.695 52.3988 104.695C53.03 104.695 53.655 104.571 54.2381 104.33C54.8212 104.089 55.3509 103.737 55.797 103.292C56.2431 102.847 56.5968 102.319 56.8379 101.737C57.0791 101.156 57.2029 100.533 57.2023 99.9044ZM47.5954 147.404C47.5954 148.673 48.1015 149.89 49.0023 150.788C49.9031 151.685 51.1249 152.19 52.3988 152.19C53.6728 152.19 54.8946 151.685 55.7954 150.788C56.6962 149.89 57.2023 148.673 57.2023 147.404C57.2029 146.775 57.0791 146.152 56.8379 145.571C56.5968 144.989 56.2431 144.461 55.797 144.016C55.3509 143.572 54.8212 143.219 54.2381 142.978C53.655 142.737 53.03 142.613 52.3988 142.613C51.7677 142.613 51.1427 142.737 50.5596 142.978C49.9765 143.219 49.4468 143.572 49.0007 144.016C48.5546 144.461 48.2009 144.989 47.9597 145.571C47.7186 146.152 47.5948 146.775 47.5954 147.404ZM9.61138 4.91506C9.61138 3.6453 9.10545 2.42749 8.20476 1.52921C7.30406 0.63094 6.0823 0.125705 4.80793 0.124521C4.17654 0.124521 3.55134 0.248432 2.96802 0.489179C2.38469 0.729927 1.85467 1.08279 1.40821 1.52763C0.961752 1.97248 0.607602 2.50059 0.36598 3.0818C0.124359 3.66302 -1.7795e-06 4.28595 -1.807e-06 4.91506C0.00237292 6.18363 0.510115 7.39937 1.41165 8.29514C2.31318 9.1909 3.53475 9.6934 4.80793 9.69221C6.08033 9.69221 7.30075 9.18919 8.20132 8.29356C9.10188 7.39792 9.60901 6.18286 9.61138 4.91506ZM9.61138 52.4097C9.60664 51.1435 9.09847 49.9307 8.19816 49.037C7.29785 48.1433 6.07878 47.6415 4.80793 47.6415C4.17675 47.6409 3.55165 47.7643 2.96835 48.0046C2.38505 48.2448 1.855 48.5973 1.40848 49.0418C0.961965 49.4863 0.607743 50.0141 0.366067 50.595C0.124391 51.176 -4.13097e-06 51.7987 -3.88384e-06 52.4276C-4.18595e-06 53.0565 0.124391 53.6792 0.366067 54.2602C0.607743 54.8412 0.961965 55.369 1.40848 55.8134C1.855 56.2579 2.38505 56.6104 2.96835 56.8506C3.55165 57.0909 4.17675 57.2143 4.80793 57.2137C5.44024 57.2137 6.06633 57.0893 6.65028 56.8477C7.23423 56.606 7.76456 56.2519 8.21083 55.8056C8.65711 55.3592 9.01055 54.8295 9.25089 54.2468C9.49123 53.664 9.61374 53.0398 9.61138 52.4097ZM9.61138 99.9044C9.61138 98.6351 9.1053 97.4177 8.20448 96.5202C7.30366 95.6226 6.08188 95.1184 4.80792 95.1184C4.17675 95.1178 3.55165 95.2411 2.96835 95.4814C2.38505 95.7217 1.855 96.0741 1.40848 96.5186C0.961963 96.9631 0.607741 97.4909 0.366065 98.0719C0.124389 98.6528 -6.20625e-06 99.2755 -5.95912e-06 99.9044C-0.000595397 100.534 0.12336 101.157 0.364773 101.738C0.606185 102.32 0.960318 102.848 1.40689 103.293C1.85347 103.738 2.38372 104.091 2.96731 104.332C3.55091 104.572 4.17637 104.696 4.80792 104.695C5.4391 104.695 6.06409 104.571 6.64716 104.33C7.23023 104.089 7.75996 103.737 8.20606 103.292C8.65216 102.847 9.00589 102.319 9.24702 101.737C9.48815 101.156 9.61197 100.533 9.61138 99.9044ZM9.61138 147.404C9.61196 146.775 9.48815 146.152 9.24702 145.571C9.00589 144.989 8.65216 144.461 8.20606 144.016C7.75996 143.572 7.23023 143.219 6.64716 142.978C6.06409 142.737 5.4391 142.613 4.80792 142.613C4.17637 142.612 3.5509 142.736 2.96731 142.977C2.38372 143.217 1.85347 143.57 1.40689 144.015C0.960316 144.46 0.606183 144.988 0.364771 145.57C0.123358 146.151 -0.000597418 146.774 -8.03537e-06 147.404C-8.33748e-06 148.032 0.124387 148.655 0.366063 149.236C0.607739 149.817 0.96196 150.345 1.40848 150.789C1.85499 151.234 2.38505 151.586 2.96834 151.827C3.55164 152.067 4.17675 152.19 4.80792 152.19C6.08188 152.19 7.30365 151.685 8.20448 150.788C9.1053 149.89 9.61138 148.673 9.61138 147.404ZM81 -19.0243C80.9953 -20.2905 80.4871 -21.5033 79.5868 -22.397C78.6865 -23.2907 77.4674 -23.7925 76.1965 -23.7925C75.5654 -23.7931 74.9403 -23.6697 74.357 -23.4294C73.7737 -23.1892 73.2436 -22.8367 72.7971 -22.3922C72.3506 -21.9478 71.9964 -21.4199 71.7547 -20.839C71.513 -20.258 71.3886 -19.6353 71.3886 -19.0064C71.3934 -17.7394 71.9021 -16.5259 72.8034 -15.6321C73.7047 -14.7383 74.9249 -14.237 76.1965 -14.2382C77.4705 -14.2382 78.6923 -14.7424 79.5931 -15.64C80.4939 -16.5376 81 -17.7549 81 -19.0243ZM81 123.92C81 122.65 80.4939 121.433 79.5931 120.535C78.6923 119.638 77.4705 119.134 76.1965 119.134C75.5654 119.133 74.9403 119.256 74.357 119.497C73.7737 119.737 73.2436 120.089 72.7971 120.534C72.3506 120.978 71.9964 121.506 71.7547 122.087C71.513 122.668 71.3886 123.291 71.3886 123.92C71.3886 124.549 71.513 125.171 71.7547 125.752C71.9964 126.333 72.3506 126.861 72.7971 127.306C73.2436 127.75 73.7737 128.102 74.357 128.343C74.9403 128.583 75.5654 128.706 76.1965 128.706C76.8273 128.706 77.452 128.582 78.0347 128.341C78.6175 128.101 79.1471 127.748 79.5931 127.304C80.0391 126.859 80.393 126.332 80.6344 125.751C80.8757 125.171 81 124.548 81 123.92ZM81 76.2732C81 75.0034 80.4941 73.7856 79.5934 72.8873C78.6927 71.9891 77.4709 71.4838 76.1965 71.4826C74.9214 71.4826 73.6985 71.9873 72.7968 72.8857C71.8952 73.7841 71.3886 75.0026 71.3886 76.2732C71.3886 76.9021 71.513 77.5248 71.7547 78.1058C71.9964 78.6867 72.3506 79.2145 72.7971 79.659C73.2436 80.1035 73.7737 80.456 74.357 80.6962C74.9403 80.9365 75.5654 81.0598 76.1965 81.0593C77.4705 81.0593 78.6923 80.555 79.5931 79.6574C80.4939 78.7599 81 77.5425 81 76.2732ZM81 28.6222C81 27.9937 80.8758 27.3714 80.6344 26.7907C80.393 26.21 80.0391 25.6824 79.5931 25.238C79.1471 24.7935 78.6175 24.441 78.0347 24.2005C77.452 23.9599 76.8273 23.8361 76.1965 23.8361C75.5654 23.8356 74.9403 23.9589 74.357 24.1992C73.7737 24.4394 73.2436 24.7919 72.7971 25.2364C72.3506 25.6809 71.9964 26.2087 71.7547 26.7896C71.513 27.3706 71.3886 27.9933 71.3886 28.6222C71.388 29.2515 71.512 29.8747 71.7534 30.4562C71.9948 31.0377 72.3489 31.566 72.7955 32.011C73.2421 32.4559 73.7723 32.8088 74.3559 33.0493C74.9395 33.2899 75.565 33.4134 76.1965 33.4128C76.8277 33.4128 77.4527 33.2888 78.0358 33.048C78.6189 32.8072 79.1486 32.4543 79.5947 32.0094C80.0408 31.5645 80.3945 31.0363 80.6356 30.4552C80.8768 29.874 81.0006 29.2511 81 28.6222ZM33.4091 123.92C33.4091 123.291 33.2847 122.668 33.043 122.087C32.8013 121.506 32.4471 120.978 32.0006 120.534C31.5541 120.089 31.024 119.737 30.4407 119.497C29.8574 119.256 29.2323 119.133 28.6011 119.134C27.3272 119.134 26.1054 119.638 25.2046 120.535C24.3038 121.433 23.7977 122.65 23.7977 123.92C23.7977 125.189 24.3038 126.406 25.2046 127.304C26.1054 128.201 27.3272 128.706 28.6011 128.706C29.2323 128.706 29.8574 128.583 30.4407 128.343C31.024 128.102 31.5541 127.75 32.0006 127.306C32.4471 126.861 32.8013 126.333 33.043 125.752C33.2847 125.171 33.4091 124.549 33.4091 123.92ZM33.4091 -19.0243C33.4043 -20.2913 32.8956 -21.5047 31.9943 -22.3986C31.093 -23.2924 29.8728 -23.7937 28.6012 -23.7925C27.3303 -23.7925 26.1112 -23.2907 25.2109 -22.397C24.3106 -21.5033 23.8024 -20.2905 23.7977 -19.0243C23.7977 -17.7549 24.3038 -16.5376 25.2046 -15.64C26.1054 -14.7424 27.3272 -14.2382 28.6012 -14.2382C29.2323 -14.2376 29.8574 -14.361 30.4407 -14.6012C31.024 -14.8415 31.5541 -15.1939 32.0006 -15.6384C32.4471 -16.0829 32.8013 -16.6107 33.043 -17.1917C33.2847 -17.7726 33.4091 -18.3954 33.4091 -19.0243ZM33.4091 28.6222C33.4091 27.9933 33.2847 27.3706 33.043 26.7896C32.8013 26.2087 32.4471 25.6809 32.0006 25.2364C31.5541 24.7919 31.024 24.4394 30.4407 24.1992C29.8574 23.9589 29.2323 23.8356 28.6011 23.8361C27.3272 23.8361 26.1054 24.3404 25.2046 25.238C24.3038 26.1355 23.7977 27.3529 23.7977 28.6222C23.7971 29.2511 23.9209 29.874 24.1621 30.4551C24.4032 31.0363 24.7569 31.5645 25.203 32.0094C25.6491 32.4543 26.1788 32.8072 26.7619 33.048C27.345 33.2888 27.97 33.4128 28.6011 33.4128C29.2327 33.4134 29.8582 33.2899 30.4418 33.0493C31.0253 32.8088 31.5556 32.4559 32.0022 32.011C32.4488 31.566 32.8029 31.0377 33.0443 30.4562C33.2857 29.8747 33.4097 29.2515 33.4091 28.6222ZM33.4091 76.2732C33.4091 75.0026 32.9025 73.7841 32.0009 72.8857C31.0992 71.9873 29.8763 71.4826 28.6011 71.4826C27.3268 71.4838 26.105 71.9891 25.2043 72.8873C24.3036 73.7856 23.7977 75.0034 23.7977 76.2732C23.7977 77.5425 24.3038 78.7599 25.2046 79.6574C26.1054 80.555 27.3272 81.0593 28.6011 81.0593C29.2323 81.0598 29.8574 80.9365 30.4407 80.6962C31.024 80.456 31.5541 80.1035 32.0006 79.659C32.4471 79.2145 32.8013 78.6867 33.043 78.1058C33.2847 77.5248 33.4091 76.9021 33.4091 76.2732Z" fill="white"/>
</g>
</g>
<defs>
<clipPath id="clip0_2036_188">
<rect width="152" height="696" fill="white" transform="translate(696 0.20752) rotate(90)"/>
</clipPath>
<clipPath id="clip1_2036_188">
<rect width="176" height="81" fill="white" transform="translate(81 -23.7925) rotate(90)"/>
</clipPath>
</defs>
</svg>
