<svg width="152" height="697" viewBox="0 0 152 697" fill="none" xmlns="http://www.w3.org/2000/svg">
<g clip-path="url(#clip0_2036_188)">
<rect width="152" height="696" transform="translate(0 0.20752)" fill="#F2C6C0"/>
<path d="M99.8801 42.6519C93.8641 42.7799 88.6801 40.5826 84.3281 36.0599C79.9761 31.4946 77.8641 26.1186 77.9921 19.9319C77.8641 13.7452 79.9761 8.36926 84.3281 3.80392C88.6801 -0.804079 93.8641 -3.04411 99.8801 -2.91611C105.939 -3.04411 111.123 -0.80408 115.432 3.80392C119.741 8.36925 121.853 13.7452 121.768 19.9319C121.853 26.1612 119.741 31.5372 115.432 36.0599C111.123 40.5826 105.939 42.7799 99.8801 42.6519ZM99.8801 8.34793C96.4241 8.34793 93.6081 9.45726 91.4321 11.6759C89.2134 13.8519 88.1041 16.5826 88.1041 19.8679C88.1041 23.2813 89.1921 26.0546 91.3681 28.1879C93.5441 30.3212 96.3814 31.3879 99.8801 31.3879C103.379 31.3879 106.237 30.3212 108.456 28.1879C110.589 26.0546 111.656 23.2813 111.656 19.8679C111.656 16.5399 110.568 13.7879 108.392 11.6119C106.216 9.4359 103.379 8.34793 99.8801 8.34793Z" fill="white"/>
<path d="M108.456 51.5492C112.083 51.5492 115.091 52.9145 117.48 55.6452C119.827 58.3332 121 61.7252 121 65.8212L121 85.5332L78.76 85.5332L78.76 70.3012C78.76 66.2052 79.9333 62.8132 82.28 60.1252C84.584 57.3945 87.5707 56.0292 91.24 56.0292C94.0987 56.0292 96.4667 56.8825 98.344 58.5892C100.264 53.8958 103.635 51.5492 108.456 51.5492ZM88.04 71.0052L88.04 74.9732L95.464 74.9732L95.464 71.0052C95.464 69.6825 95.1227 68.6585 94.44 67.9332C93.7573 67.1652 92.8613 66.7812 91.752 66.7812C90.6427 66.7812 89.7467 67.1652 89.064 67.9332C88.3813 68.6585 88.04 69.6825 88.04 71.0052ZM111.72 66.5252C111.72 63.7092 110.483 62.3012 108.008 62.3012C105.533 62.3012 104.296 63.7092 104.296 66.5252L104.296 74.9732L111.72 74.9732L111.72 66.5252Z" fill="white"/>
<path d="M121 119.19L88.68 119.19L88.68 131.862L78.76 131.862L78.76 95.5103L88.68 95.5103L88.68 108.182L121 108.182L121 119.19Z" fill="white"/>
<path d="M99.8801 181.824C93.8214 181.91 88.6374 179.691 84.3281 175.168C79.9761 170.646 77.8641 165.248 77.9921 158.976C77.9921 154.752 78.9947 150.955 81.0001 147.584C82.9627 144.214 85.7361 141.568 89.3201 139.648L95.0161 148.032C90.4081 150.763 88.1041 154.432 88.1041 159.04C88.1041 162.411 89.1921 165.184 91.3681 167.36C93.5441 169.494 96.4027 170.56 99.9441 170.56C103.4 170.56 106.237 169.494 108.456 167.36C110.589 165.142 111.656 162.368 111.656 159.04C111.656 154.432 109.352 150.763 104.744 148.032L110.44 139.648C114.024 141.568 116.819 144.214 118.824 147.584C120.787 150.955 121.768 154.774 121.768 159.04C121.853 165.27 119.741 170.667 115.432 175.232C111.123 179.755 105.939 181.952 99.8801 181.824Z" fill="white"/>
<path d="M111.08 195.285L111.08 189.333L130.024 189.333L130.024 200.341L121 200.341L121 223.829L130.024 223.829L130.024 234.837L111.08 234.837L111.08 231.317C108.904 228.501 100.883 227.093 87.016 227.093L78.76 227.093L78.76 195.285L111.08 195.285ZM111.08 219.541L111.08 206.293L88.68 206.293L88.68 216.661C98.9627 216.747 106.429 217.707 111.08 219.541Z" fill="white"/>
<path d="M99.8801 287.94C93.8641 288.068 88.6801 285.87 84.3281 281.348C79.9761 276.782 77.8641 271.406 77.9921 265.22C77.8641 259.033 79.9761 253.657 84.3281 249.092C88.6801 244.484 93.8641 242.244 99.8801 242.372C105.939 242.244 111.123 244.484 115.432 249.092C119.741 253.657 121.853 259.033 121.768 265.22C121.853 271.449 119.741 276.825 115.432 281.348C111.123 285.87 105.939 288.068 99.8801 287.94ZM99.8801 253.636C96.4241 253.636 93.6081 254.745 91.4321 256.964C89.2134 259.14 88.1041 261.87 88.1041 265.156C88.1041 268.569 89.1921 271.342 91.3681 273.476C93.5441 275.609 96.3814 276.676 99.8801 276.676C103.379 276.676 106.237 275.609 108.456 273.476C110.589 271.342 111.656 268.569 111.656 265.156C111.656 261.828 110.568 259.076 108.392 256.9C106.216 254.724 103.379 253.636 99.8801 253.636Z" fill="white"/>
<path d="M108.456 296.837C112.083 296.837 115.091 298.202 117.48 300.933C119.827 303.621 121 307.013 121 311.109L121 330.821L78.76 330.821L78.76 315.589C78.76 311.493 79.9333 308.101 82.28 305.413C84.584 302.682 87.5707 301.317 91.24 301.317C94.0987 301.317 96.4667 302.17 98.344 303.877C100.264 299.183 103.635 296.837 108.456 296.837ZM88.04 316.293L88.04 320.261L95.464 320.261L95.464 316.293C95.464 314.97 95.1227 313.946 94.44 313.221C93.7573 312.453 92.8613 312.069 91.752 312.069C90.6427 312.069 89.7467 312.453 89.064 313.221C88.3813 313.946 88.04 314.97 88.04 316.293ZM111.72 311.813C111.72 308.997 110.483 307.589 108.008 307.589C105.533 307.589 104.296 308.997 104.296 311.813L104.296 320.261L111.72 320.261L111.72 311.813Z" fill="white"/>
<path d="M108.392 342.2C112.531 342.2 115.795 343.693 118.184 346.68C120.573 349.624 121.768 353.698 121.768 358.904C121.768 362.829 120.893 366.285 119.144 369.272C117.352 372.258 114.856 374.498 111.656 375.992L106.28 368.376C109.864 365.986 111.656 362.85 111.656 358.968C111.656 357.133 111.336 355.682 110.696 354.616C110.013 353.506 109.032 352.952 107.752 352.952C106.685 352.952 105.853 353.378 105.256 354.232C104.616 355.085 104.296 356.28 104.296 357.816L104.296 363.768L95.4639 363.768L95.4639 359.096C95.4639 357.688 95.1439 356.578 94.5039 355.768C93.8213 354.957 92.9466 354.552 91.8799 354.552C90.7279 354.552 89.8106 355 89.1279 355.896C88.4453 356.749 88.1039 357.901 88.1039 359.352C88.1039 362.68 89.8959 365.261 93.4799 367.096L88.1039 374.712C81.3626 371.554 77.9919 366.178 77.9919 358.584C77.9919 353.976 79.1226 350.37 81.3839 347.768C83.6026 345.122 86.7386 343.8 90.7919 343.8C94.2479 343.8 97.0213 345.08 99.1119 347.64C101.117 344.013 104.211 342.2 108.392 342.2Z" fill="white"/>
<path d="M77.9919 390.891L77.9919 387.371L121 387.371L121 398.379L99.0479 398.379L121.768 421.291L121.768 424.811L78.7599 424.811L78.7599 413.803L100.456 413.803L77.9919 390.891Z" fill="white"/>
<path d="M99.8801 481.795C93.8641 481.923 88.6801 479.725 84.3281 475.203C79.9761 470.637 77.8641 465.261 77.9921 459.075C77.8641 452.888 79.9761 447.512 84.3281 442.947C88.6801 438.339 93.8641 436.099 99.8801 436.227C105.939 436.099 111.123 438.339 115.432 442.947C119.741 447.512 121.853 452.888 121.768 459.075C121.853 465.304 119.741 470.68 115.432 475.203C111.123 479.725 105.939 481.923 99.8801 481.795ZM99.8801 447.491C96.4241 447.491 93.6081 448.6 91.4321 450.819C89.2134 452.995 88.1041 455.725 88.1041 459.011C88.1041 462.424 89.1921 465.197 91.3681 467.331C93.5441 469.464 96.3814 470.531 99.8801 470.531C103.379 470.531 106.237 469.464 108.456 467.331C110.589 465.197 111.656 462.424 111.656 459.011C111.656 455.683 110.568 452.931 108.392 450.755C106.216 448.579 103.379 447.491 99.8801 447.491Z" fill="white"/>
<path d="M121 523.613L78.76 523.613L78.76 507.037C78.76 502.301 80.104 498.397 82.792 495.325C85.4373 492.253 88.936 490.717 93.288 490.717C97.5547 490.717 101.053 492.275 103.784 495.389C106.515 498.504 107.88 502.387 107.88 507.037L107.88 512.605L121 512.605L121 523.613ZM98.28 512.605L98.28 506.973C98.28 505.437 97.832 504.221 96.936 503.325C95.9973 502.387 94.7813 501.917 93.288 501.917C91.7947 501.917 90.6 502.387 89.704 503.325C88.808 504.221 88.36 505.437 88.36 506.973L88.36 512.605L98.28 512.605Z" fill="white"/>
<path d="M121 573.983L78.76 573.983L78.76 537.183L121 537.183L121 548.191L88.68 548.191L88.68 562.975L121 562.975L121 573.983Z" fill="white"/>
<path d="M70 422.749L27.76 422.749L27.76 393.437L37.68 393.437L37.68 411.741L43.504 411.741L43.504 398.685L52.72 398.685L52.72 411.741L60.0801 411.741L60.0801 392.669L70 392.669L70 422.749ZM17.712 423.517C16.048 423.517 14.64 422.898 13.488 421.661C12.2934 420.423 11.696 418.973 11.696 417.309C11.696 415.559 12.272 414.087 13.424 412.893C14.576 411.655 16.0054 411.037 17.712 411.037C19.2907 411.037 20.6774 411.655 21.872 412.893C23.0667 414.13 23.664 415.602 23.664 417.309C23.664 418.93 23.0667 420.359 21.872 421.597C20.6774 422.877 19.2907 423.517 17.712 423.517ZM17.776 405.917C16.112 405.917 14.704 405.298 13.552 404.061C12.3574 402.823 11.76 401.373 11.76 399.709C11.76 397.959 12.336 396.487 13.488 395.293C14.64 394.055 16.0694 393.437 17.776 393.437C19.3547 393.437 20.7414 394.055 21.936 395.293C23.1307 396.53 23.728 398.002 23.728 399.709C23.728 401.33 23.1307 402.759 21.936 403.997C20.6987 405.277 19.312 405.917 17.776 405.917Z" fill="white"/>
<path d="M48.8801 479.732C42.8641 479.86 37.6801 477.663 33.3281 473.14C28.9761 468.575 26.8641 463.199 26.9921 457.012C26.8641 450.825 28.9761 445.449 33.3281 440.884C37.6801 436.276 42.8641 434.036 48.8801 434.164C54.9387 434.036 60.1227 436.276 64.4321 440.884C68.7414 445.449 70.8534 450.825 70.7681 457.012C70.8534 463.241 68.7414 468.617 64.4321 473.14C60.1227 477.663 54.9387 479.86 48.8801 479.732ZM48.8801 445.428C45.4241 445.428 42.6081 446.537 40.4321 448.756C38.2134 450.932 37.1041 453.663 37.1041 456.948C37.1041 460.361 38.1921 463.135 40.3681 465.268C42.5441 467.401 45.3814 468.468 48.8801 468.468C52.3787 468.468 55.2374 467.401 57.4561 465.268C59.5894 463.135 60.6561 460.361 60.6561 456.948C60.6561 453.62 59.5681 450.868 57.3921 448.692C55.2161 446.516 52.3787 445.428 48.8801 445.428Z" fill="white"/>
<path d="M57.456 488.629C61.0827 488.629 64.0907 489.995 66.48 492.725C68.8267 495.413 70 498.805 70 502.901L70 522.613L27.76 522.613L27.76 507.381C27.76 503.285 28.9333 499.893 31.28 497.205C33.584 494.475 36.5707 493.109 40.24 493.109C43.0987 493.109 45.4667 493.963 47.344 495.669C49.264 490.976 52.6347 488.629 57.456 488.629ZM37.04 508.085L37.04 512.053L44.464 512.053L44.464 508.085C44.464 506.763 44.1227 505.739 43.44 505.013C42.7573 504.245 41.8613 503.861 40.752 503.861C39.6427 503.861 38.7467 504.245 38.064 505.013C37.3813 505.739 37.04 506.763 37.04 508.085ZM60.72 503.605C60.72 500.789 59.4827 499.381 57.008 499.381C54.5333 499.381 53.296 500.789 53.296 503.605L53.296 512.053L60.72 512.053L60.72 503.605Z" fill="white"/>
<path d="M48.8801 576.159C42.8214 576.245 37.6374 574.026 33.3281 569.503C28.9761 564.981 26.8641 559.583 26.9921 553.311C26.9921 549.087 27.9947 545.29 30.0001 541.919C31.9627 538.549 34.7361 535.903 38.3201 533.983L44.0161 542.367C39.4081 545.098 37.1041 548.767 37.1041 553.375C37.1041 556.746 38.1921 559.519 40.3681 561.695C42.5441 563.829 45.4027 564.895 48.9441 564.895C52.4001 564.895 55.2374 563.829 57.4561 561.695C59.5894 559.477 60.6561 556.703 60.6561 553.375C60.6561 548.767 58.3521 545.098 53.7441 542.367L59.4401 533.983C63.0241 535.903 65.8187 538.549 67.8241 541.919C69.7867 545.29 70.7681 549.109 70.7681 553.375C70.8534 559.605 68.7414 565.002 64.4321 569.567C60.1227 574.09 54.9387 576.287 48.8801 576.159Z" fill="white"/>
<g clip-path="url(#clip1_2036_188)">
<path d="M4.70754 639.005C3.43778 639.005 2.21997 639.511 1.3217 640.412C0.423424 641.313 -0.0818117 642.534 -0.0829951 643.809C-0.0818117 645.083 0.423424 646.305 1.3217 647.205C2.21997 648.106 3.43778 648.612 4.70754 648.612C5.97534 648.61 7.19041 648.103 8.08604 647.202C8.98167 646.301 9.4847 645.081 9.4847 643.809C9.4847 642.536 8.98167 641.316 8.08604 640.415C7.19041 639.515 5.97534 639.008 4.70754 639.005ZM52.2022 639.005C50.936 639.01 49.7232 639.518 48.8295 640.418C47.9358 641.319 47.434 642.538 47.434 643.809C47.434 644.439 47.5578 645.064 47.7983 645.647C48.0389 646.23 48.3914 646.759 48.8358 647.205C49.2802 647.651 49.8079 648.005 50.3885 648.246C50.9692 648.488 51.5916 648.612 52.2201 648.612C52.8486 648.612 53.471 648.488 54.0516 648.246C54.6323 648.005 55.1599 647.651 55.6044 647.205C56.0488 646.759 56.4013 646.23 56.6419 645.647C56.8824 645.064 57.0062 644.439 57.0062 643.809C57.0062 643.176 56.8818 642.55 56.6401 641.966C56.3985 641.382 56.0444 640.852 55.598 640.406C55.1517 639.959 54.622 639.606 54.0393 639.366C53.4565 639.125 52.8322 639.003 52.2022 639.005ZM99.6969 639.005C98.4276 639.005 97.2102 639.511 96.3127 640.412C95.4151 641.313 94.9108 642.535 94.9108 643.809C94.9108 645.083 95.4151 646.304 96.3127 647.205C97.2102 648.106 98.4276 648.612 99.6969 648.612C100.326 648.613 100.949 648.489 101.53 648.248C102.111 648.007 102.639 647.653 103.084 647.207C103.529 646.761 103.882 646.231 104.123 645.648C104.364 645.065 104.487 644.44 104.487 643.809C104.487 643.177 104.364 642.553 104.123 641.969C103.882 641.386 103.529 640.857 103.084 640.411C102.639 639.964 102.111 639.611 101.53 639.37C100.949 639.128 100.326 639.005 99.6969 639.005ZM147.196 648.612C148.465 648.612 149.683 648.106 150.58 647.205C151.478 646.304 151.982 645.083 151.982 643.809C151.982 642.535 151.478 641.313 150.58 640.412C149.683 639.511 148.465 639.005 147.196 639.005C146.567 639.005 145.944 639.128 145.363 639.37C144.782 639.611 144.254 639.964 143.809 640.411C143.364 640.857 143.011 641.386 142.77 641.969C142.529 642.553 142.406 643.177 142.406 643.809C142.406 644.44 142.529 645.065 142.77 645.648C143.011 646.231 143.364 646.761 143.809 647.207C144.254 647.653 144.782 648.007 145.363 648.248C145.944 648.489 146.567 648.613 147.196 648.612ZM4.70754 686.596C3.43778 686.596 2.21997 687.102 1.3217 688.003C0.423424 688.903 -0.0818117 690.125 -0.0829951 691.4C-0.0829951 692.031 0.0409159 692.656 0.281663 693.24C0.522411 693.823 0.875273 694.353 1.32012 694.799C1.76496 695.246 2.29307 695.6 2.87429 695.842C3.4555 696.083 4.07844 696.208 4.70754 696.208C5.97611 696.205 7.19186 695.697 8.08762 694.796C8.98338 693.894 9.48588 692.673 9.4847 691.4C9.4847 690.127 8.98167 688.907 8.08604 688.006C7.19041 687.106 5.97534 686.599 4.70754 686.596ZM52.2022 686.596C50.936 686.601 49.7232 687.109 48.8295 688.009C47.9358 688.91 47.434 690.129 47.434 691.4C47.4334 692.031 47.5568 692.656 47.797 693.239C48.0373 693.822 48.3898 694.353 48.8342 694.799C49.2787 695.246 49.8065 695.6 50.3875 695.841C50.9685 696.083 51.5912 696.208 52.2201 696.208C52.849 696.208 53.4717 696.083 54.0527 695.841C54.6336 695.6 55.1614 695.246 55.6059 694.799C56.0504 694.353 56.4029 693.822 56.6431 693.239C56.8834 692.656 57.0068 692.031 57.0062 691.4C57.0062 690.767 56.8818 690.141 56.6401 689.557C56.3985 688.973 56.0444 688.443 55.598 687.997C55.1517 687.55 54.622 687.197 54.0393 686.957C53.4565 686.716 52.8322 686.594 52.2022 686.596ZM99.6969 686.596C98.4276 686.596 97.2102 687.102 96.3127 688.003C95.4151 688.904 94.9108 690.126 94.9108 691.4C94.9103 692.031 95.0336 692.656 95.2739 693.239C95.5141 693.822 95.8666 694.353 96.3111 694.799C96.7556 695.246 97.2834 695.6 97.8643 695.841C98.4453 696.083 99.068 696.208 99.6969 696.208C100.326 696.208 100.949 696.084 101.531 695.843C102.112 695.601 102.641 695.247 103.086 694.801C103.531 694.354 103.883 693.824 104.124 693.24C104.365 692.657 104.488 692.031 104.487 691.4C104.487 690.768 104.364 690.143 104.123 689.56C103.882 688.977 103.529 688.448 103.084 688.001C102.639 687.555 102.111 687.202 101.53 686.96C100.949 686.719 100.326 686.596 99.6969 686.596ZM147.196 686.596C146.567 686.596 145.944 686.719 145.363 686.96C144.782 687.202 144.254 687.555 143.809 688.001C143.364 688.448 143.011 688.977 142.77 689.56C142.529 690.143 142.406 690.768 142.406 691.4C142.405 692.031 142.528 692.657 142.769 693.24C143.01 693.824 143.362 694.354 143.807 694.801C144.252 695.247 144.781 695.601 145.362 695.843C145.944 696.084 146.567 696.208 147.196 696.208C147.825 696.208 148.448 696.083 149.029 695.841C149.61 695.6 150.137 695.246 150.582 694.799C151.026 694.353 151.379 693.822 151.619 693.239C151.859 692.656 151.983 692.031 151.982 691.4C151.982 690.126 151.478 688.904 150.58 688.003C149.683 687.102 148.465 686.596 147.196 686.596ZM-19.2318 615.208C-20.498 615.212 -21.7108 615.72 -22.6045 616.621C-23.4982 617.521 -24 618.74 -24 620.011C-24.0006 620.642 -23.8772 621.267 -23.637 621.851C-23.3967 622.434 -23.0442 622.964 -22.5998 623.41C-22.1553 623.857 -21.6275 624.211 -21.0465 624.453C-20.4655 624.695 -19.8428 624.819 -19.2139 624.819C-17.9469 624.814 -16.7334 624.305 -15.8396 623.404C-14.9458 622.503 -14.4445 621.283 -14.4457 620.011C-14.4457 618.737 -14.9499 617.515 -15.8475 616.614C-16.7451 615.714 -17.9624 615.208 -19.2318 615.208ZM123.712 615.208C122.443 615.208 121.225 615.714 120.328 616.614C119.43 617.515 118.926 618.737 118.926 620.011C118.925 620.642 119.049 621.267 119.289 621.851C119.529 622.434 119.882 622.964 120.326 623.41C120.771 623.857 121.299 624.211 121.88 624.453C122.461 624.695 123.083 624.819 123.712 624.819C124.341 624.819 124.964 624.695 125.545 624.453C126.126 624.211 126.654 623.857 127.098 623.41C127.542 622.964 127.895 622.434 128.135 621.851C128.375 621.267 128.499 620.642 128.498 620.011C128.498 619.38 128.374 618.756 128.134 618.173C127.893 617.59 127.541 617.06 127.096 616.614C126.652 616.168 126.124 615.815 125.544 615.573C124.963 615.332 124.341 615.208 123.712 615.208ZM76.0657 615.208C74.7959 615.208 73.5781 615.713 72.6798 616.614C71.7815 617.515 71.2763 618.737 71.2751 620.011C71.2751 621.286 71.7798 622.509 72.6782 623.411C73.5766 624.312 74.7951 624.819 76.0657 624.819C76.6946 624.819 77.3173 624.695 77.8982 624.453C78.4792 624.211 79.007 623.857 79.4515 623.41C79.896 622.964 80.2484 622.434 80.4887 621.851C80.729 621.267 80.8523 620.642 80.8517 620.011C80.8517 618.737 80.3475 617.515 79.4499 616.614C78.5524 615.714 77.335 615.208 76.0657 615.208ZM28.4147 615.208C27.7862 615.208 27.1638 615.332 26.5832 615.573C26.0025 615.815 25.4749 616.168 25.0304 616.614C24.586 617.06 24.2335 617.59 23.9929 618.173C23.7524 618.756 23.6286 619.38 23.6286 620.011C23.628 620.642 23.7514 621.267 23.9917 621.851C24.2319 622.434 24.5844 622.964 25.0289 623.41C25.4734 623.857 26.0012 624.211 26.5821 624.453C27.1631 624.695 27.7858 624.819 28.4147 624.819C29.044 624.819 29.6672 624.696 30.2487 624.454C30.8301 624.213 31.3585 623.859 31.8035 623.412C32.2484 622.965 32.6013 622.435 32.8418 621.852C33.0823 621.268 33.2058 620.643 33.2053 620.011C33.2053 619.38 33.0813 618.755 32.8405 618.172C32.5997 617.589 32.2468 617.059 31.8019 616.613C31.357 616.167 30.8288 615.813 30.2476 615.572C29.6664 615.331 29.0436 615.207 28.4147 615.208ZM123.712 662.798C123.083 662.798 122.461 662.923 121.88 663.165C121.299 663.406 120.771 663.76 120.326 664.207C119.882 664.653 119.529 665.183 119.289 665.767C119.049 666.35 118.925 666.975 118.926 667.606C118.926 668.88 119.43 670.102 120.328 671.003C121.225 671.904 122.443 672.41 123.712 672.41C124.981 672.41 126.199 671.904 127.096 671.003C127.994 670.102 128.498 668.88 128.498 667.606C128.499 666.975 128.375 666.35 128.135 665.767C127.895 665.183 127.542 664.653 127.098 664.207C126.654 663.76 126.126 663.406 125.545 663.165C124.964 662.923 124.341 662.798 123.712 662.798ZM-19.2318 662.798C-20.4988 662.803 -21.7123 663.312 -22.6061 664.213C-23.4999 665.115 -24.0012 666.335 -24 667.606C-24 668.877 -23.4982 670.096 -22.6045 670.997C-21.7108 671.897 -20.498 672.405 -19.2318 672.41C-17.9624 672.41 -16.7451 671.904 -15.8475 671.003C-14.9499 670.102 -14.4457 668.88 -14.4457 667.606C-14.4451 666.975 -14.5685 666.35 -14.8087 665.767C-15.049 665.183 -15.4014 664.653 -15.8459 664.207C-16.2904 663.76 -16.8182 663.406 -17.3992 663.165C-17.9802 662.923 -18.6029 662.798 -19.2318 662.798ZM28.4147 662.798C27.7858 662.798 27.1631 662.923 26.5821 663.165C26.0012 663.406 25.4734 663.76 25.0289 664.207C24.5844 664.653 24.2319 665.183 23.9917 665.767C23.7514 666.35 23.628 666.975 23.6286 667.606C23.6286 668.88 24.1329 670.102 25.0304 671.003C25.928 671.904 27.1454 672.41 28.4147 672.41C29.0436 672.41 29.6664 672.287 30.2476 672.045C30.8288 671.804 31.357 671.451 31.8019 671.005C32.2468 670.558 32.5997 670.029 32.8405 669.446C33.0813 668.863 33.2053 668.238 33.2053 667.606C33.2058 666.975 33.0823 666.349 32.8418 665.766C32.6013 665.182 32.2484 664.652 31.8035 664.205C31.3585 663.759 30.8301 663.405 30.2487 663.163C29.6672 662.922 29.044 662.798 28.4147 662.798ZM76.0657 662.798C74.7951 662.798 73.5766 663.305 72.6782 664.207C71.7798 665.108 71.2751 666.331 71.2751 667.606C71.2763 668.881 71.7815 670.103 72.6798 671.003C73.5781 671.904 74.7959 672.41 76.0657 672.41C77.335 672.41 78.5524 671.904 79.4499 671.003C80.3475 670.102 80.8517 668.88 80.8517 667.606C80.8523 666.975 80.729 666.35 80.4887 665.767C80.2484 665.183 79.896 664.653 79.4515 664.207C79.007 663.76 78.4792 663.406 77.8982 663.165C77.3173 662.923 76.6946 662.798 76.0657 662.798Z" fill="white"/>
</g>
</g>
<defs>
<clipPath id="clip0_2036_188">
<rect width="152" height="696" fill="white" transform="translate(0 0.20752)"/>
</clipPath>
<clipPath id="clip1_2036_188">
<rect width="176" height="81" fill="white" transform="translate(-24 615.208)"/>
</clipPath>
</defs>
</svg>
