<svg width="60" height="60" viewBox="0 0 60 60" fill="none" xmlns="http://www.w3.org/2000/svg">
<g clip-path="url(#clip0_53_77)">
<path d="M8.30715 41.8316H12.5124C13.117 41.8316 13.6072 41.3414 13.6072 40.7368V35.1301C13.6072 34.5254 13.117 34.0353 12.5124 34.0353H8.30715C7.70254 34.0353 7.21237 34.5254 7.21237 35.1301V40.7368C7.21237 41.3414 7.70254 41.8316 8.30715 41.8316ZM9.40192 36.2247H11.4176V39.6419H9.40192V36.2247Z" fill="black"/>
<path d="M8.30715 50.9512H12.5124C13.117 50.9512 13.6072 50.4612 13.6072 49.8564V44.2497C13.6072 43.645 13.117 43.1549 12.5124 43.1549H8.30715C7.70254 43.1549 7.21237 43.645 7.21237 44.2497V49.8564C7.21237 50.4612 7.70254 50.9512 8.30715 50.9512ZM9.40192 45.3445H11.4176V48.7616H9.40192V45.3445Z" fill="black"/>
<path d="M47.4876 41.8316H51.6929C52.2975 41.8316 52.7876 41.3414 52.7876 40.7368V35.1301C52.7876 34.5254 52.2975 34.0353 51.6929 34.0353H47.4876C46.883 34.0353 46.3929 34.5254 46.3929 35.1301V40.7368C46.3929 41.3414 46.883 41.8316 47.4876 41.8316ZM48.5824 36.2247H50.5981V39.6419H48.5824V36.2247Z" fill="black"/>
<path d="M47.4876 50.9512H51.6929C52.2975 50.9512 52.7876 50.4612 52.7876 49.8564V44.2497C52.7876 43.645 52.2975 43.1549 51.6929 43.1549H47.4876C46.883 43.1549 46.3929 43.645 46.3929 44.2497V49.8564C46.3929 50.4612 46.883 50.9512 47.4876 50.9512ZM48.5824 45.3445H50.5981V48.7616H48.5824V45.3445Z" fill="black"/>
<path d="M59.0451 31.1787L44.7276 29.3322V25.0545L46.9817 26.229C47.1433 26.3132 47.3163 26.3531 47.4866 26.3531C47.8818 26.3531 48.2632 26.1385 48.4585 25.7639C48.7379 25.2277 48.5297 24.5666 47.9934 24.2872L31.0946 15.4824V6.29289C31.0946 5.95526 30.939 5.63676 30.6726 5.42933C30.4064 5.22191 30.0594 5.14893 29.732 5.2314L21.404 7.33249C20.9176 7.45525 20.5769 7.89257 20.5769 8.39398V14.0455C20.5769 14.3831 20.7327 14.7016 20.9989 14.9092C21.1932 15.0604 21.4304 15.1403 21.6717 15.1403C21.761 15.1403 28.9049 13.3494 28.9049 13.3494V15.4826L12.0065 24.2873C11.4702 24.5667 11.262 25.2278 11.5414 25.7641C11.7366 26.1387 12.1181 26.3532 12.5133 26.3532C12.6836 26.3532 12.8567 26.3134 13.0182 26.2292L15.2722 25.0547V29.3323L0.954948 31.1788C0.355304 31.2562 -0.0681539 31.805 0.00921009 32.4045C0.0804433 32.9568 0.551342 33.3595 1.09362 33.3595C1.14018 33.3595 3.3579 33.0766 3.3579 33.0766V53.7071C3.3579 54.3118 3.84807 54.8019 4.45268 54.8019H55.5475C56.1521 54.8019 56.6423 54.3118 56.6423 53.7071V33.0766C56.6423 33.0766 58.8598 33.3595 58.9066 33.3595C59.4488 33.3595 59.9197 32.9568 59.991 32.4045C60.0682 31.8049 59.6447 31.2561 59.0451 31.1787ZM22.7668 12.6399V9.24674L28.9052 7.69814V11.0911L22.7668 12.6399ZM5.54628 32.7943L15.2722 31.5398V52.6122H5.5473V32.8163C5.5473 32.8089 5.54643 32.8017 5.54628 32.7943ZM17.4618 23.9138L30 17.3809L42.5382 23.9138V52.6123H35.1243V47.5838C35.1243 46.979 34.6341 46.489 34.0295 46.489H25.9704C25.3658 46.489 24.8756 46.979 24.8756 47.5838V52.6123H17.4618V23.9138ZM27.0651 48.6786H28.9051V52.6123H27.0651V48.6786ZM31.0946 52.6123V48.6786H32.9347V52.6123H31.0946ZM54.4527 32.8163V52.6123H44.7278V31.54L54.4538 32.7944C54.4536 32.8017 54.4527 32.8089 54.4527 32.8163Z" fill="black"/>
<path d="M20.6288 35.1777H24.8339C25.4385 35.1777 25.9286 34.6876 25.9286 34.0829V28.4765C25.9286 27.8717 25.4385 27.3817 24.8339 27.3817H20.6288C20.0242 27.3817 19.534 27.8717 19.534 28.4765V34.0829C19.534 34.6875 20.0242 35.1777 20.6288 35.1777ZM21.7235 29.5711H23.7391V32.988H21.7235V29.5711Z" fill="black"/>
<path d="M35.1659 35.1777H39.3711C39.9757 35.1777 40.4659 34.6876 40.4659 34.0829V28.4765C40.4659 27.8717 39.9757 27.3817 39.3711 27.3817H35.1659C34.5613 27.3817 34.0711 27.8717 34.0711 28.4765V34.0829C34.0711 34.6875 34.5613 35.1777 35.1659 35.1777ZM36.2607 29.5711H38.2764V32.988H36.2607V29.5711Z" fill="black"/>
<path d="M27.8973 35.1777H32.1024C32.707 35.1777 33.1972 34.6876 33.1972 34.0829V28.4765C33.1972 27.8717 32.707 27.3817 32.1024 27.3817H27.8973C27.2927 27.3817 26.8026 27.8717 26.8026 28.4765V34.0829C26.8026 34.6875 27.2927 35.1777 27.8973 35.1777ZM28.9921 29.5711H31.0076V32.988H28.9921V29.5711Z" fill="black"/>
<path d="M25.9286 43.54V37.9335C25.9286 37.3287 25.4385 36.8387 24.8339 36.8387H20.6288C20.0242 36.8387 19.534 37.3287 19.534 37.9335V43.54C19.534 44.1446 20.0242 44.6348 20.6288 44.6348H24.8339C25.4385 44.6348 25.9286 44.1446 25.9286 43.54ZM23.7391 42.4452H21.7235V39.0282H23.7391V42.4452Z" fill="black"/>
<path d="M35.1659 44.6348H39.3711C39.9757 44.6348 40.4659 44.1446 40.4659 43.54V37.9335C40.4659 37.3287 39.9757 36.8387 39.3711 36.8387H35.1659C34.5613 36.8387 34.0711 37.3287 34.0711 37.9335V43.54C34.0711 44.1446 34.5613 44.6348 35.1659 44.6348ZM36.2607 39.0281H38.2764V42.4451H36.2607V39.0281Z" fill="black"/>
<path d="M27.8973 44.6348H32.1024C32.707 44.6348 33.1972 44.1446 33.1972 43.54V37.9335C33.1972 37.3287 32.707 36.8387 32.1024 36.8387H27.8973C27.2927 36.8387 26.8026 37.3287 26.8026 37.9335V43.54C26.8026 44.1446 27.2927 44.6348 27.8973 44.6348ZM28.9921 39.0281H31.0076V42.4451H28.9921V39.0281Z" fill="black"/>
</g>
<defs>
<clipPath id="clip0_53_77">
<rect width="60" height="60" fill="white"/>
</clipPath>
</defs>
</svg>
