<svg width="16" height="16" viewBox="0 0 16 16" fill="none" xmlns="http://www.w3.org/2000/svg">
<path d="M12.2635 4.8565C12.0869 4.8565 11.9435 4.71314 11.9435 4.5365V4.0565H11.4635C11.2869 4.0565 11.1435 3.91314 11.1435 3.7365C11.1435 3.55986 11.2869 3.4165 11.4635 3.4165H12.2635C12.4402 3.4165 12.5835 3.55986 12.5835 3.7365V4.5365C12.5835 4.71314 12.4403 4.8565 12.2635 4.8565Z" fill="black"/>
<path d="M10.0781 4.0565H8.69265C8.51601 4.0565 8.37265 3.91314 8.37265 3.7365C8.37265 3.55986 8.51601 3.4165 8.69265 3.4165H10.0781C10.2547 3.4165 10.3981 3.55986 10.3981 3.7365C10.3981 3.91314 10.2549 4.0565 10.0781 4.0565Z" fill="black"/>
<path d="M7.30722 4.0565H5.92178C5.74514 4.0565 5.60178 3.91314 5.60178 3.7365C5.60178 3.55986 5.74514 3.4165 5.92178 3.4165H7.30722C7.48386 3.4165 7.62722 3.55986 7.62722 3.7365C7.62722 3.91314 7.48402 4.0565 7.30722 4.0565Z" fill="black"/>
<path d="M3.7365 4.8565C3.55986 4.8565 3.4165 4.71314 3.4165 4.5365V3.7365C3.4165 3.55986 3.55986 3.4165 3.7365 3.4165H4.5365C4.71314 3.4165 4.8565 3.55986 4.8565 3.7365C4.8565 3.91314 4.71314 4.0565 4.5365 4.0565H4.0565V4.5365C4.0565 4.71314 3.91314 4.8565 3.7365 4.8565Z" fill="black"/>
<path d="M3.7365 10.3981C3.55986 10.3981 3.4165 10.2548 3.4165 10.0781V8.69268C3.4165 8.51604 3.55986 8.37268 3.7365 8.37268C3.91314 8.37268 4.0565 8.51604 4.0565 8.69268V10.0781C4.0565 10.2549 3.91314 10.3981 3.7365 10.3981Z" fill="black"/>
<path d="M3.7365 7.62725C3.55986 7.62725 3.4165 7.48389 3.4165 7.30725V5.92181C3.4165 5.74517 3.55986 5.60181 3.7365 5.60181C3.91314 5.60181 4.0565 5.74517 4.0565 5.92181V7.30725C4.0565 7.48405 3.91314 7.62725 3.7365 7.62725Z" fill="black"/>
<path d="M4.5365 12.5836H3.7365C3.55986 12.5836 3.4165 12.4402 3.4165 12.2636V11.4636C3.4165 11.2869 3.55986 11.1436 3.7365 11.1436C3.91314 11.1436 4.0565 11.2869 4.0565 11.4636V11.9436H4.5365C4.71314 11.9436 4.8565 12.0869 4.8565 12.2636C4.8565 12.4402 4.71314 12.5836 4.5365 12.5836Z" fill="black"/>
<path d="M10.0781 12.5836H8.69265C8.51601 12.5836 8.37265 12.4402 8.37265 12.2636C8.37265 12.087 8.51601 11.9436 8.69265 11.9436H10.0781C10.2547 11.9436 10.3981 12.087 10.3981 12.2636C10.3981 12.4402 10.2549 12.5836 10.0781 12.5836Z" fill="black"/>
<path d="M7.30722 12.5836H5.92178C5.74514 12.5836 5.60178 12.4402 5.60178 12.2636C5.60178 12.087 5.74514 11.9436 5.92178 11.9436H7.30722C7.48386 11.9436 7.62722 12.087 7.62722 12.2636C7.62722 12.4402 7.48402 12.5836 7.30722 12.5836Z" fill="black"/>
<path d="M12.2635 12.5836H11.4635C11.2869 12.5836 11.1435 12.4402 11.1435 12.2636C11.1435 12.0869 11.2869 11.9436 11.4635 11.9436H11.9435V11.4636C11.9435 11.2869 12.0869 11.1436 12.2635 11.1436C12.4402 11.1436 12.5835 11.2869 12.5835 11.4636V12.2636C12.5835 12.4404 12.4403 12.5836 12.2635 12.5836Z" fill="black"/>
<path d="M12.2635 10.3981C12.0869 10.3981 11.9435 10.2548 11.9435 10.0781V8.69268C11.9435 8.51604 12.0869 8.37268 12.2635 8.37268C12.4402 8.37268 12.5835 8.51604 12.5835 8.69268V10.0781C12.5835 10.2549 12.4403 10.3981 12.2635 10.3981Z" fill="black"/>
<path d="M12.2635 7.62725C12.0869 7.62725 11.9435 7.48389 11.9435 7.30725V5.92181C11.9435 5.74517 12.0869 5.60181 12.2635 5.60181C12.4402 5.60181 12.5835 5.74517 12.5835 5.92181V7.30725C12.5835 7.48405 12.4403 7.62725 12.2635 7.62725Z" fill="black"/>
<path d="M14.4346 14.7546H1.56545C1.38881 14.7546 1.24545 14.6112 1.24545 14.4346V1.56548C1.24545 1.38884 1.38881 1.24548 1.56545 1.24548H14.4346C14.6112 1.24548 14.7546 1.38884 14.7546 1.56548V14.4346C14.7546 14.6112 14.6112 14.7546 14.4346 14.7546ZM1.88545 14.1146H14.1146V1.88548H1.88545V14.1146Z" fill="black"/>
</svg>
