<svg width="60" height="60" viewBox="0 0 60 60" fill="none" xmlns="http://www.w3.org/2000/svg">
<path d="M58.0645 55.1612V23.2257H59.9998V18.3871H50.3224V15.4838H52.2579V10.6452H45.4836V7.74191H47.4191V2.90332H12.5807V7.74191H14.5162V10.6452H7.74191V15.4838H9.67739V18.3871H0V23.2257H1.93548V55.1612H0V57.0967H14.5162H45.4838H60V55.1612H58.0645ZM9.67739 55.1612H3.87095V23.2257H9.67739V55.1612ZM9.67739 21.2905H1.93548V20.3226H9.67739V21.2905ZM14.5162 55.1612H11.6129V23.2257V18.3871V15.4838H14.5162V55.1612ZM14.5162 13.5485H9.67739V12.5807H14.5162V13.5485ZM14.5162 4.8388H45.4838V5.80664H14.5162V4.8388ZM29.0324 55.1612H29.0322H20.3226V43.5483H29.0324V55.1612ZM39.6774 55.1612H30.9676V43.5483H39.6774V55.1612ZM43.5483 55.1612H41.6129V41.6129H18.3871V55.1612H16.4517V39.6774H43.5483V55.1612ZM43.5483 10.6452V15.4838V37.7419H16.4517V15.4838V10.6452V7.74191H43.5483V10.6452ZM45.4836 13.5485V12.5807H50.3224V13.5485H45.4836ZM48.3871 18.3871V23.2257V55.1612H45.4838V15.4838H48.3871V18.3871ZM56.1288 55.1612H50.3224V23.2257H56.1288V55.1612ZM58.0643 21.2905H50.3224V20.3226H58.0643V21.2905Z" fill="black"/>
<path d="M41.6129 13.5483H18.3871V27.0967H41.6129V13.5483ZM39.6774 25.1612H20.3226V15.4838H39.6774V25.1612Z" fill="black"/>
<path d="M37.7419 17.4193H22.2581V19.3548H37.7419V17.4193Z" fill="black"/>
<path d="M37.7419 21.2903H35.8064V23.2257H37.7419V21.2903Z" fill="black"/>
<path d="M33.8709 21.2903H22.2581V23.2257H33.8709V21.2903Z" fill="black"/>
<path d="M28.0645 46.4514H26.129V51.2902H28.0645V46.4514Z" fill="black"/>
<path d="M33.871 46.4514H31.9355V51.2902H33.871V46.4514Z" fill="black"/>
</svg>
