<svg width="16" height="16" viewBox="0 0 16 16" fill="none" xmlns="http://www.w3.org/2000/svg">
<path fill-rule="evenodd" clip-rule="evenodd" d="M3.92796 13.3333H12.072C12.4258 13.3333 12.718 13.0569 12.7377 12.7036L13.2562 3.3703C13.2774 2.98818 12.9733 2.66667 12.5905 2.66667H3.40946C3.02673 2.66667 2.72259 2.98818 2.74381 3.3703L3.26233 12.7036C3.28196 13.0569 3.57416 13.3333 3.92796 13.3333ZM12.072 14C12.7797 14 13.364 13.4472 13.4033 12.7406L13.9218 3.4073C13.9643 2.64303 13.356 2 12.5905 2H3.40946C2.64401 2 2.03572 2.64302 2.07818 3.4073L2.59669 12.7406C2.63595 13.4472 3.22033 14 3.92796 14H12.072Z" fill="black"/>
<path fill-rule="evenodd" clip-rule="evenodd" d="M11.3985 5.80186C11.0492 5.43066 10.6404 5.1181 10.1875 4.87776C9.53699 4.53253 8.81399 4.3462 8.07762 4.33393C7.34129 4.3217 6.61249 4.4839 5.95086 4.80726C5.49022 5.0324 5.07122 5.3312 4.70976 5.69056L6.25549 6.8534C6.26052 6.85503 6.27349 6.85753 6.29919 6.8552C6.35146 6.8505 6.42479 6.8265 6.49582 6.77843C6.59966 6.7081 6.70862 6.64496 6.82192 6.58956C7.20232 6.40366 7.62129 6.31043 8.04462 6.31746C8.46796 6.3245 8.88362 6.43163 9.25759 6.6301C9.36902 6.68923 9.47579 6.75596 9.57726 6.8297C9.64662 6.88013 9.71912 6.90656 9.77122 6.91296C9.79682 6.91613 9.80989 6.91406 9.81492 6.9126L11.3985 5.80186ZM9.81749 6.91153C9.81756 6.9116 9.81662 6.9121 9.81492 6.9126C9.81636 6.91176 9.81742 6.91143 9.81749 6.91153ZM6.25299 6.8522C6.25306 6.85213 6.25406 6.8525 6.25549 6.8534C6.25379 6.8528 6.25289 6.8523 6.25299 6.8522ZM11.9504 5.41683C12.1978 5.68956 12.122 6.10873 11.8205 6.32016L10.1964 7.45933C9.89499 7.67076 9.48316 7.58543 9.18532 7.369C9.10909 7.31356 9.02882 7.26343 8.94509 7.219C8.66402 7.06983 8.35166 6.98933 8.03352 6.98403C7.71539 6.97873 7.40052 7.04883 7.11466 7.18853C7.02949 7.23016 6.94762 7.2776 6.86959 7.33046C6.56472 7.5369 6.15026 7.60846 5.85606 7.38713L4.27076 6.19453C3.97652 5.9732 3.91469 5.55173 4.17099 5.2874C4.59936 4.8456 5.10219 4.48 5.65812 4.2083C6.41429 3.83873 7.24719 3.65336 8.08872 3.66736C8.93026 3.68136 9.75656 3.89433 10.5 4.28886C11.0466 4.5789 11.537 4.96103 11.9504 5.41683Z" fill="black"/>
<path d="M9.0607 5.19063C9.18153 5.05173 9.39206 5.03707 9.53096 5.15787C9.6699 5.2787 9.68456 5.48923 9.56373 5.62813L8.64826 6.68076C8.52746 6.81966 8.3169 6.83433 8.178 6.71353C8.0391 6.5927 8.02443 6.38216 8.14523 6.24326L9.0607 5.19063Z" fill="black"/>
</svg>
